Literata-M2.ufo
<glyph name="exclam" format="2">
	<unicode hex="0021"/>
	<advance width="323"/>
	<outline>
		<contour>
			<point x="149" y="193" type="line"/>
			<point x="174" y="193" type="line"/>
			<point x="174" y="264" type="line" smooth="yes"/>
			<point x="174" y="466"/>
			<point x="231" y="576"/>
			<point x="231" y="680" type="curve" smooth="yes"/>
			<point x="231" y="721"/>
			<point x="208" y="744"/>
			<point x="167" y="744" type="curve" smooth="yes"/>
			<point x="124" y="744"/>
			<point x="97" y="719"/>
			<point x="97" y="679" type="curve" smooth="yes"/>
			<point x="97" y="567"/>
			<point x="149" y="452"/>
			<point x="149" y="265" type="curve" smooth="yes"/>
		</contour>
		<contour>
			<point x="162" y="-14" type="curve" smooth="yes"/>
			<point x="203" y="-14"/>
			<point x="232" y="16"/>
			<point x="232" y="56" type="curve" smooth="yes"/>
			<point x="232" y="97"/>
			<point x="203" y="126"/>
			<point x="162" y="126" type="curve" smooth="yes"/>
			<point x="121" y="126"/>
			<point x="91" y="97"/>
			<point x="91" y="55" type="curve" smooth="yes"/>
			<point x="91" y="15"/>
			<point x="121" y="-14"/>
		</contour>
	</outline>
</glyph>
<glyph name="numbersign" format="2">
	<unicode hex="0023"/>
	<advance width="599"/>
	<outline>
		<contour>
			<point x="137" y="0" type="line"/>
			<point x="166" y="0" type="line"/>
			<point x="192" y="166" type="line"/>
			<point x="371" y="166" type="line"/>
			<point x="345" y="0" type="line"/>
			<point x="374" y="0" type="line"/>
			<point x="400" y="166" type="line"/>
			<point x="527" y="166" type="line"/>
			<point x="532" y="194" type="line"/>
			<point x="405" y="194" type="line"/>
			<point x="430" y="364" type="line"/>
			<point x="550" y="364" type="line"/>
			<point x="555" y="392" type="line"/>
			<point x="434" y="392" type="line"/>
			<point x="458" y="550" type="line"/>
			<point x="428" y="550" type="line"/>
			<point x="405" y="392" type="line"/>
			<point x="227" y="392" type="line"/>
			<point x="251" y="550" type="line"/>
			<point x="222" y="550" type="line"/>
			<point x="198" y="392" type="line"/>
			<point x="77" y="392" type="line"/>
			<point x="71" y="364" type="line"/>
			<point x="193" y="364" type="line"/>
			<point x="168" y="194" type="line"/>
			<point x="50" y="194" type="line"/>
			<point x="44" y="166" type="line"/>
			<point x="162" y="166" type="line"/>
		</contour>
		<contour>
			<point x="197" y="194" type="line"/>
			<point x="221" y="364" type="line"/>
			<point x="401" y="364" type="line"/>
			<point x="376" y="194" type="line"/>
		</contour>
	</outline>
</glyph>
<glyph name="dollar" format="2">
	<unicode hex="0024"/>
	<advance width="592"/>
	<outline>
		<contour>
			<point x="282" y="-80" type="line"/>
			<point x="309" y="-80" type="line"/>
			<point x="309" y="-14" type="line"/>
			<point x="433" y="-7"/>
			<point x="534" y="89"/>
			<point x="534" y="210" type="curve" smooth="yes"/>
			<point x="534" y="313"/>
			<point x="470" y="377"/>
			<point x="323" y="428" type="curve" smooth="yes"/>
			<point x="318" y="430"/>
			<point x="314" y="431"/>
			<point x="309" y="433" type="curve"/>
			<point x="309" y="729" type="line"/>
			<point x="397" y="723"/>
			<point x="462" y="653"/>
			<point x="492" y="515" type="curve"/>
			<point x="507" y="517" type="line"/>
			<point x="483" y="744" type="line"/>
			<point x="469" y="744" type="line"/>
			<point x="456" y="682" type="line"/>
			<point x="421" y="713"/>
			<point x="368" y="740"/>
			<point x="309" y="744" type="curve"/>
			<point x="309" y="818" type="line"/>
			<point x="282" y="818" type="line"/>
			<point x="282" y="744" type="line"/>
			<point x="161" y="739"/>
			<point x="71" y="662"/>
			<point x="71" y="551" type="curve" smooth="yes"/>
			<point x="71" y="455"/>
			<point x="120" y="394"/>
			<point x="239" y="348" type="curve" smooth="yes"/>
			<point x="252" y="343"/>
			<point x="267" y="338"/>
			<point x="282" y="333" type="curve"/>
			<point x="282" y="2" type="line"/>
			<point x="193" y="8"/>
			<point x="102" y="80"/>
			<point x="70" y="223" type="curve"/>
			<point x="56" y="220" type="line"/>
			<point x="76" y="-6" type="line"/>
			<point x="90" y="-6" type="line"/>
			<point x="103" y="53" type="line"/>
			<point x="153" y="18"/>
			<point x="211" y="-10"/>
			<point x="282" y="-14" type="curve"/>
		</contour>
		<contour>
			<point x="309" y="3" type="curve"/>
			<point x="309" y="323" type="line"/>
			<point x="402" y="287"/>
			<point x="446" y="238"/>
			<point x="446" y="145" type="curve" smooth="yes"/>
			<point x="446" y="67"/>
			<point x="397" y="9"/>
		</contour>
		<contour>
			<point x="282" y="443" type="line"/>
			<point x="196" y="478"/>
			<point x="159" y="517"/>
			<point x="159" y="592" type="curve" smooth="yes"/>
			<point x="159" y="663"/>
			<point x="201" y="722"/>
			<point x="282" y="728" type="curve"/>
		</contour>
	</outline>
	<anchor name="bottom" x="295" y="-30"/>
	<anchor name="top" x="291" y="729"/>
</glyph>
<glyph name="ampersand" format="2">
	<unicode hex="0026"/>
	<advance width="799"/>
	<outline>
		<contour>
			<point x="289" y="-14" type="curve" smooth="yes"/>
			<point x="396" y="-14"/>
			<point x="456" y="42"/>
			<point x="489" y="99" type="curve"/>
			<point x="552" y="33"/>
			<point x="585" y="-4"/>
			<point x="645" y="-4" type="curve" smooth="yes"/>
			<point x="698" y="-4"/>
			<point x="749" y="44"/>
			<point x="779" y="93" type="curve"/>
			<point x="773" y="100" type="line"/>
			<point x="749" y="76"/>
			<point x="729" y="62"/>
			<point x="697" y="62" type="curve" smooth="yes"/>
			<point x="652" y="62"/>
			<point x="618" y="97"/>
			<point x="524" y="197" type="curve"/>
			<point x="554" y="372"/>
			<point x="610" y="443"/>
			<point x="644" y="450" type="curve"/>
			<point x="662" y="395"/>
			<point x="673" y="357"/>
			<point x="712" y="357" type="curve" smooth="yes"/>
			<point x="743" y="357"/>
			<point x="761" y="386"/>
			<point x="761" y="418" type="curve" smooth="yes"/>
			<point x="761" y="460"/>
			<point x="726" y="487"/>
			<point x="684" y="487" type="curve" smooth="yes"/>
			<point x="614" y="487"/>
			<point x="553" y="437"/>
			<point x="508" y="213" type="curve"/>
			<point x="334" y="394" type="line"/>
			<point x="412" y="433"/>
			<point x="464" y="491"/>
			<point x="464" y="573" type="curve" smooth="yes"/>
			<point x="464" y="656"/>
			<point x="402" y="714"/>
			<point x="313" y="714" type="curve" smooth="yes"/>
			<point x="205" y="714"/>
			<point x="128" y="653"/>
			<point x="128" y="544" type="curve" smooth="yes"/>
			<point x="128" y="465"/>
			<point x="184" y="407"/>
			<point x="225" y="369" type="curve"/>
			<point x="138" y="336"/>
			<point x="47" y="290"/>
			<point x="47" y="181" type="curve" smooth="yes"/>
			<point x="47" y="58"/>
			<point x="154" y="-14"/>
		</contour>
		<contour>
			<point x="310" y="6" type="curve" smooth="yes"/>
			<point x="209" y="6"/>
			<point x="149" y="84"/>
			<point x="149" y="184" type="curve" smooth="yes"/>
			<point x="149" y="257"/>
			<point x="172" y="314"/>
			<point x="237" y="355" type="curve"/>
			<point x="475" y="113" type="line"/>
			<point x="445" y="54"/>
			<point x="385" y="6"/>
		</contour>
		<contour>
			<point x="320" y="407" type="curve"/>
			<point x="249" y="475"/>
			<point x="205" y="525"/>
			<point x="205" y="588" type="curve" smooth="yes"/>
			<point x="205" y="645"/>
			<point x="237" y="696"/>
			<point x="322" y="696" type="curve" smooth="yes"/>
			<point x="393" y="696"/>
			<point x="445" y="642"/>
			<point x="445" y="570" type="curve" smooth="yes"/>
			<point x="445" y="508"/>
			<point x="408" y="448"/>
		</contour>
	</outline>
</glyph>
<glyph name="parenleft" format="2">
	<unicode hex="0028"/>
	<advance width="335"/>
	<outline>
		<contour>
			<point x="298" y="-191" type="curve"/>
			<point x="308" y="-185" type="line"/>
			<point x="201" y="-34"/>
			<point x="168" y="108"/>
			<point x="168" y="306" type="curve" smooth="yes"/>
			<point x="168" y="506"/>
			<point x="201" y="648"/>
			<point x="309" y="801" type="curve"/>
			<point x="300" y="806" type="line"/>
			<point x="210" y="714"/>
			<point x="74" y="529"/>
			<point x="74" y="306" type="curve" smooth="yes"/>
			<point x="74" y="85"/>
			<point x="210" y="-100"/>
		</contour>
	</outline>
</glyph>
<glyph name="parenright" format="2">
	<unicode hex="0029"/>
	<advance width="335"/>
	<outline>
		<contour>
			<point x="35" y="-191" type="line"/>
			<point x="125" y="-99"/>
			<point x="261" y="86"/>
			<point x="261" y="309" type="curve" smooth="yes"/>
			<point x="261" y="530"/>
			<point x="125" y="715"/>
			<point x="37" y="806" type="curve"/>
			<point x="27" y="800" type="line"/>
			<point x="134" y="649"/>
			<point x="167" y="507"/>
			<point x="167" y="309" type="curve" smooth="yes"/>
			<point x="167" y="109"/>
			<point x="134" y="-33"/>
			<point x="26" y="-186" type="curve"/>
		</contour>
	</outline>
</glyph>
<glyph name="comma" format="2">
	<unicode hex="002C"/>
	<advance width="328"/>
	<outline>
		<contour>
			<point x="115" y="-168" type="line"/>
			<point x="197" y="-114"/>
			<point x="239" y="-28"/>
			<point x="239" y="31" type="curve" smooth="yes"/>
			<point x="239" y="83"/>
			<point x="216" y="126"/>
			<point x="162" y="126" type="curve" smooth="yes"/>
			<point x="122" y="126"/>
			<point x="92" y="97"/>
			<point x="92" y="60" type="curve" smooth="yes"/>
			<point x="92" y="23"/>
			<point x="117" y="0"/>
			<point x="169" y="0" type="curve" smooth="yes"/>
			<point x="191" y="0" type="line"/>
			<point x="193" y="-44"/>
			<point x="170" y="-94"/>
			<point x="105" y="-152" type="curve"/>
		</contour>
	</outline>
</glyph>
<glyph name="hyphen" format="2">
	<unicode hex="002D"/>
	<advance width="345"/>
	<outline>
		<contour>
			<point x="44" y="260" type="line"/>
			<point x="301" y="260" type="line"/>
			<point x="301" y="322" type="line"/>
			<point x="44" y="322" type="line"/>
		</contour>
	</outline>
</glyph>
<glyph name="period" format="2">
	<unicode hex="002E"/>
	<advance width="325"/>
	<outline>
		<contour>
			<point x="162" y="-14" type="curve" smooth="yes"/>
			<point x="204" y="-14"/>
			<point x="235" y="16"/>
			<point x="235" y="58" type="curve" smooth="yes"/>
			<point x="235" y="99"/>
			<point x="204" y="129"/>
			<point x="162" y="129" type="curve" smooth="yes"/>
			<point x="121" y="129"/>
			<point x="90" y="99"/>
			<point x="90" y="57" type="curve" smooth="yes"/>
			<point x="90" y="16"/>
			<point x="121" y="-14"/>
		</contour>
	</outline>
</glyph>
<glyph name="two" format="2">
	<unicode hex="0032"/>
	<advance width="530"/>
	<outline>
		<contour>
			<point x="53" y="0" type="line"/>
			<point x="451" y="0" type="line"/>
			<point x="470" y="197" type="line"/>
			<point x="454" y="197" type="line"/>
			<point x="423" y="94"/>
			<point x="415" y="89"/>
			<point x="329" y="89" type="curve" smooth="yes"/>
			<point x="103" y="89" type="line"/>
			<point x="413" y="383"/>
			<point x="467" y="445"/>
			<point x="467" y="566" type="curve" smooth="yes"/>
			<point x="467" y="671"/>
			<point x="396" y="744"/>
			<point x="257" y="744" type="curve" smooth="yes"/>
			<point x="128" y="744"/>
			<point x="49" y="666"/>
			<point x="49" y="589" type="curve" smooth="yes"/>
			<point x="49" y="549"/>
			<point x="71" y="526"/>
			<point x="110" y="526" type="curve" smooth="yes"/>
			<point x="146" y="526"/>
			<point x="167" y="548"/>
			<point x="167" y="575" type="curve" smooth="yes"/>
			<point x="167" y="608"/>
			<point x="138" y="633"/>
			<point x="100" y="664" type="curve"/>
			<point x="122" y="695"/>
			<point x="170" y="722"/>
			<point x="234" y="722" type="curve" smooth="yes"/>
			<point x="314" y="722"/>
			<point x="362" y="670"/>
			<point x="362" y="572" type="curve" smooth="yes"/>
			<point x="362" y="449"/>
			<point x="334" y="372"/>
			<point x="45" y="67" type="curve"/>
		</contour>
	</outline>
</glyph>
<glyph name="four" format="2">
	<unicode hex="0034"/>
	<advance width="562"/>
	<outline>
		<contour>
			<point x="206" y="0" type="line"/>
			<point x="519" y="0" type="line"/>
			<point x="519" y="14" type="line"/>
			<point x="462" y="19" type="line" smooth="yes"/>
			<point x="432" y="22"/>
			<point x="428" y="36"/>
			<point x="428" y="66" type="curve" smooth="yes"/>
			<point x="428" y="176" type="line"/>
			<point x="537" y="176" type="line"/>
			<point x="537" y="202" type="line"/>
			<point x="428" y="202" type="line"/>
			<point x="428" y="731" type="line"/>
			<point x="417" y="740" type="line"/>
			<point x="336" y="725" type="line"/>
			<point x="25" y="197" type="line"/>
			<point x="29" y="176" type="line"/>
			<point x="329" y="176" type="line"/>
			<point x="329" y="70" type="line" smooth="yes"/>
			<point x="329" y="41"/>
			<point x="324" y="24"/>
			<point x="296" y="21" type="curve" smooth="yes"/>
			<point x="206" y="12" type="line"/>
		</contour>
		<contour>
			<point x="55" y="202" type="line"/>
			<point x="327" y="662" type="line"/>
			<point x="329" y="662" type="line"/>
			<point x="329" y="202" type="line"/>
		</contour>
	</outline>
</glyph>
<glyph name="five" format="2">
	<unicode hex="0035"/>
	<advance width="516"/>
	<outline>
		<contour>
			<point x="244" y="-14" type="curve" smooth="yes"/>
			<point x="375" y="-14"/>
			<point x="476" y="64"/>
			<point x="476" y="222" type="curve" smooth="yes"/>
			<point x="476" y="366"/>
			<point x="393" y="445"/>
			<point x="267" y="445" type="curve" smooth="yes"/>
			<point x="206" y="445"/>
			<point x="144" y="418"/>
			<point x="100" y="381" type="curve"/>
			<point x="125" y="632" type="line"/>
			<point x="426" y="632" type="line"/>
			<point x="448" y="718" type="line"/>
			<point x="448" y="730" type="line"/>
			<point x="113" y="730" type="line"/>
			<point x="78" y="363" type="line"/>
			<point x="94" y="352" type="line"/>
			<point x="137" y="385"/>
			<point x="180" y="404"/>
			<point x="234" y="404" type="curve" smooth="yes"/>
			<point x="323" y="404"/>
			<point x="371" y="332"/>
			<point x="371" y="222" type="curve" smooth="yes"/>
			<point x="371" y="75"/>
			<point x="320" y="12"/>
			<point x="224" y="12" type="curve" smooth="yes"/>
			<point x="149" y="12"/>
			<point x="90" y="48"/>
			<point x="46" y="129" type="curve"/>
			<point x="35" y="122" type="line"/>
			<point x="81" y="19"/>
			<point x="159" y="-14"/>
		</contour>
	</outline>
</glyph>
<glyph name="six" format="2">
	<unicode hex="0036"/>
	<advance width="558"/>
	<outline>
		<contour>
			<point x="285" y="-14" type="curve" smooth="yes"/>
			<point x="430" y="-14"/>
			<point x="517" y="64"/>
			<point x="517" y="227" type="curve" smooth="yes"/>
			<point x="517" y="374"/>
			<point x="434" y="455"/>
			<point x="318" y="455" type="curve" smooth="yes"/>
			<point x="240" y="455"/>
			<point x="180" y="414"/>
			<point x="153" y="356" type="curve"/>
			<point x="161" y="572"/>
			<point x="212" y="727"/>
			<point x="346" y="727" type="curve" smooth="yes"/>
			<point x="387" y="727"/>
			<point x="417" y="720"/>
			<point x="446" y="698" type="curve"/>
			<point x="412" y="650"/>
			<point x="404" y="622"/>
			<point x="404" y="608" type="curve" smooth="yes"/>
			<point x="404" y="584"/>
			<point x="420" y="561"/>
			<point x="458" y="561" type="curve" smooth="yes"/>
			<point x="496" y="561"/>
			<point x="518" y="580"/>
			<point x="518" y="626" type="curve" smooth="yes"/>
			<point x="518" y="706"/>
			<point x="421" y="744"/>
			<point x="350" y="744" type="curve" smooth="yes"/>
			<point x="133" y="744"/>
			<point x="50" y="543"/>
			<point x="50" y="321" type="curve" smooth="yes"/>
			<point x="50" y="120"/>
			<point x="114" y="-14"/>
		</contour>
		<contour>
			<point x="289" y="3" type="curve" smooth="yes"/>
			<point x="191" y="3"/>
			<point x="152" y="102"/>
			<point x="152" y="246" type="curve" smooth="yes"/>
			<point x="152" y="374"/>
			<point x="223" y="418"/>
			<point x="292" y="418" type="curve" smooth="yes"/>
			<point x="369" y="418"/>
			<point x="419" y="359"/>
			<point x="419" y="224" type="curve" smooth="yes"/>
			<point x="419" y="54"/>
			<point x="368" y="3"/>
		</contour>
	</outline>
</glyph>
<glyph name="seven" format="2">
	<unicode hex="0037"/>
	<advance width="509"/>
	<outline>
		<contour>
			<point x="180" y="-11" type="line"/>
			<point x="282" y="0" type="line"/>
			<point x="282" y="265"/>
			<point x="288" y="434"/>
			<point x="474" y="647" type="curve"/>
			<point x="466" y="730" type="line"/>
			<point x="60" y="730" type="line"/>
			<point x="40" y="541" type="line"/>
			<point x="57" y="541" type="line"/>
			<point x="84" y="628"/>
			<point x="91" y="641"/>
			<point x="174" y="641" type="curve" smooth="yes"/>
			<point x="443" y="641" type="line"/>
			<point x="187" y="401"/>
			<point x="167" y="142"/>
			<point x="167" y="-1" type="curve"/>
		</contour>
	</outline>
</glyph>
<glyph name="eight" format="2">
	<unicode hex="0038"/>
	<advance width="555"/>
	<outline>
		<contour>
			<point x="270" y="-13" type="curve" smooth="yes"/>
			<point x="397" y="-13"/>
			<point x="520" y="64"/>
			<point x="520" y="200" type="curve" smooth="yes"/>
			<point x="520" y="277"/>
			<point x="483" y="356"/>
			<point x="350" y="410" type="curve"/>
			<point x="447" y="461"/>
			<point x="489" y="509"/>
			<point x="489" y="587" type="curve" smooth="yes"/>
			<point x="489" y="673"/>
			<point x="413" y="744"/>
			<point x="276" y="744" type="curve" smooth="yes"/>
			<point x="128" y="744"/>
			<point x="59" y="653"/>
			<point x="59" y="563" type="curve" smooth="yes"/>
			<point x="59" y="489"/>
			<point x="87" y="431"/>
			<point x="199" y="376" type="curve"/>
			<point x="75" y="326"/>
			<point x="30" y="258"/>
			<point x="30" y="177" type="curve" smooth="yes"/>
			<point x="30" y="51"/>
			<point x="136" y="-13"/>
		</contour>
		<contour>
			<point x="279" y="8" type="curve" smooth="yes"/>
			<point x="187" y="8"/>
			<point x="131" y="61"/>
			<point x="131" y="176" type="curve" smooth="yes"/>
			<point x="131" y="247"/>
			<point x="147" y="317"/>
			<point x="215" y="369" type="curve"/>
			<point x="371" y="304"/>
			<point x="417" y="265"/>
			<point x="417" y="170" type="curve" smooth="yes"/>
			<point x="417" y="56"/>
			<point x="364" y="8"/>
		</contour>
		<contour>
			<point x="334" y="417" type="curve"/>
			<point x="186" y="478"/>
			<point x="151" y="514"/>
			<point x="151" y="597" type="curve" smooth="yes"/>
			<point x="151" y="692"/>
			<point x="206" y="723"/>
			<point x="272" y="723" type="curve" smooth="yes"/>
			<point x="337" y="723"/>
			<point x="397" y="688"/>
			<point x="397" y="588" type="curve" smooth="yes"/>
			<point x="397" y="518"/>
			<point x="376" y="467"/>
		</contour>
	</outline>
</glyph>
<glyph name="colon" format="2">
	<unicode hex="003A"/>
	<advance width="325"/>
	<outline>
		<contour>
			<point x="162" y="-14" type="curve" smooth="yes"/>
			<point x="204" y="-14"/>
			<point x="235" y="16"/>
			<point x="235" y="58" type="curve" smooth="yes"/>
			<point x="235" y="99"/>
			<point x="204" y="129"/>
			<point x="162" y="129" type="curve" smooth="yes"/>
			<point x="121" y="129"/>
			<point x="90" y="99"/>
			<point x="90" y="57" type="curve" smooth="yes"/>
			<point x="90" y="16"/>
			<point x="121" y="-14"/>
		</contour>
		<contour>
			<point x="162" y="384" type="curve" smooth="yes"/>
			<point x="204" y="384"/>
			<point x="235" y="414"/>
			<point x="235" y="456" type="curve" smooth="yes"/>
			<point x="235" y="497"/>
			<point x="204" y="527"/>
			<point x="162" y="527" type="curve" smooth="yes"/>
			<point x="121" y="527"/>
			<point x="90" y="497"/>
			<point x="90" y="455" type="curve" smooth="yes"/>
			<point x="90" y="414"/>
			<point x="121" y="384"/>
		</contour>
	</outline>
</glyph>
<glyph name="semicolon" format="2">
	<unicode hex="003B"/>
	<advance width="328"/>
	<outline>
		<contour>
			<point x="115" y="-168" type="line"/>
			<point x="197" y="-114"/>
			<point x="239" y="-28"/>
			<point x="239" y="31" type="curve" smooth="yes"/>
			<point x="239" y="83"/>
			<point x="216" y="126"/>
			<point x="162" y="126" type="curve" smooth="yes"/>
			<point x="122" y="126"/>
			<point x="92" y="97"/>
			<point x="92" y="60" type="curve" smooth="yes"/>
			<point x="92" y="23"/>
			<point x="117" y="0"/>
			<point x="169" y="0" type="curve" smooth="yes"/>
			<point x="191" y="0" type="line"/>
			<point x="193" y="-44"/>
			<point x="170" y="-94"/>
			<point x="105" y="-152" type="curve"/>
		</contour>
		<contour>
			<point x="162" y="384" type="curve" smooth="yes"/>
			<point x="204" y="384"/>
			<point x="235" y="414"/>
			<point x="235" y="456" type="curve" smooth="yes"/>
			<point x="235" y="497"/>
			<point x="204" y="527"/>
			<point x="162" y="527" type="curve" smooth="yes"/>
			<point x="121" y="527"/>
			<point x="90" y="497"/>
			<point x="90" y="455" type="curve" smooth="yes"/>
			<point x="90" y="414"/>
			<point x="121" y="384"/>
		</contour>
	</outline>
</glyph>
<glyph name="less" format="2">
	<unicode hex="003C"/>
	<advance width="582"/>
	<outline>
		<contour>
			<point x="458" y="45" type="line"/>
			<point x="467" y="62" type="line"/>
			<point x="96" y="284" type="line"/>
			<point x="467" y="508" type="line"/>
			<point x="456" y="524" type="line"/>
			<point x="75" y="295" type="line"/>
			<point x="75" y="273" type="line"/>
		</contour>
	</outline>
</glyph>
<glyph name="equal" format="2">
	<unicode hex="003D"/>
	<advance width="582"/>
	<outline>
		<contour>
			<point x="107" y="384" type="line"/>
			<point x="475" y="384" type="line"/>
			<point x="475" y="403" type="line"/>
			<point x="107" y="403" type="line"/>
		</contour>
		<contour>
			<point x="107" y="204" type="line"/>
			<point x="475" y="204" type="line"/>
			<point x="475" y="223" type="line"/>
			<point x="107" y="223" type="line"/>
		</contour>
	</outline>
</glyph>
<glyph name="greater" format="2">
	<unicode hex="003E"/>
	<advance width="582"/>
	<outline>
		<contour>
			<point x="124" y="45" type="line"/>
			<point x="507" y="273" type="line"/>
			<point x="507" y="295" type="line"/>
			<point x="126" y="524" type="line"/>
			<point x="115" y="508" type="line"/>
			<point x="486" y="284" type="line"/>
			<point x="115" y="62" type="line"/>
		</contour>
	</outline>
</glyph>
<glyph name="question" format="2">
	<unicode hex="003F"/>
	<advance width="530"/>
	<outline>
		<contour>
			<point x="222" y="194" type="line"/>
			<point x="247" y="194" type="line"/>
			<point x="247" y="251" type="line" smooth="yes"/>
			<point x="247" y="287"/>
			<point x="256" y="301"/>
			<point x="357" y="394" type="curve" smooth="yes"/>
			<point x="436" y="467"/>
			<point x="456" y="515"/>
			<point x="456" y="580" type="curve" smooth="yes"/>
			<point x="456" y="683"/>
			<point x="378" y="744"/>
			<point x="262" y="744" type="curve" smooth="yes"/>
			<point x="166" y="744"/>
			<point x="71" y="685"/>
			<point x="71" y="607" type="curve" smooth="yes"/>
			<point x="71" y="573"/>
			<point x="85" y="547"/>
			<point x="125" y="547" type="curve" smooth="yes"/>
			<point x="157" y="547"/>
			<point x="182" y="567"/>
			<point x="182" y="590" type="curve" smooth="yes"/>
			<point x="182" y="614"/>
			<point x="166" y="642"/>
			<point x="134" y="682" type="curve"/>
			<point x="158" y="708"/>
			<point x="207" y="724"/>
			<point x="253" y="724" type="curve" smooth="yes"/>
			<point x="314" y="724"/>
			<point x="365" y="686"/>
			<point x="365" y="615" type="curve" smooth="yes"/>
			<point x="365" y="547"/>
			<point x="344" y="511"/>
			<point x="289" y="457" type="curve" smooth="yes"/>
			<point x="232" y="402"/>
			<point x="222" y="374"/>
			<point x="222" y="336" type="curve" smooth="yes"/>
		</contour>
		<contour>
			<point x="237" y="-14" type="curve" smooth="yes"/>
			<point x="278" y="-14"/>
			<point x="307" y="16"/>
			<point x="307" y="56" type="curve" smooth="yes"/>
			<point x="307" y="97"/>
			<point x="278" y="126"/>
			<point x="237" y="126" type="curve" smooth="yes"/>
			<point x="196" y="126"/>
			<point x="166" y="97"/>
			<point x="166" y="55" type="curve" smooth="yes"/>
			<point x="166" y="15"/>
			<point x="196" y="-14"/>
		</contour>
	</outline>
</glyph>
<glyph name="A" format="2">
	<unicode hex="0041"/>
	<advance width="661"/>
	<outline>
		<contour>
			<point x="0" y="0" type="line"/>
			<point x="194" y="0" type="line"/>
			<point x="194" y="11" type="line"/>
			<point x="134" y="18" type="line" smooth="yes"/>
			<point x="105" y="21"/>
			<point x="101" y="42"/>
			<point x="111" y="73" type="curve" smooth="yes"/>
			<point x="167" y="248" type="line"/>
			<point x="422" y="248" type="line"/>
			<point x="475" y="67" type="line" smooth="yes"/>
			<point x="484" y="35"/>
			<point x="480" y="22"/>
			<point x="456" y="19" type="curve" smooth="yes"/>
			<point x="402" y="12" type="line"/>
			<point x="402" y="0" type="line"/>
			<point x="661" y="0" type="line"/>
			<point x="661" y="14" type="line"/>
			<point x="625" y="21" type="line" smooth="yes"/>
			<point x="597" y="26"/>
			<point x="592" y="38"/>
			<point x="581" y="71" type="curve" smooth="yes"/>
			<point x="367" y="730" type="line"/>
			<point x="299" y="730" type="line"/>
			<point x="84" y="74" type="line" smooth="yes"/>
			<point x="71" y="34"/>
			<point x="61" y="24"/>
			<point x="38" y="19" type="curve" smooth="yes"/>
			<point x="0" y="12" type="line"/>
		</contour>
		<contour>
			<point x="174" y="266" type="line"/>
			<point x="295" y="650" type="line"/>
			<point x="297" y="650" type="line"/>
			<point x="415" y="266" type="line"/>
		</contour>
	</outline>
	<anchor name="bottom" x="296" y="-30"/>
	<anchor name="top" x="335" y="730"/>
</glyph>
<glyph name="B" format="2">
	<unicode hex="0042"/>
	<advance width="642"/>
	<outline>
		<contour>
			<point x="59" y="0" type="line"/>
			<point x="315" y="0" type="line" smooth="yes"/>
			<point x="497" y="0"/>
			<point x="603" y="72"/>
			<point x="603" y="211" type="curve" smooth="yes"/>
			<point x="603" y="315"/>
			<point x="536" y="376"/>
			<point x="415" y="387" type="curve"/>
			<point x="415" y="391" type="line"/>
			<point x="500" y="411"/>
			<point x="563" y="473"/>
			<point x="563" y="563" type="curve" smooth="yes"/>
			<point x="563" y="675"/>
			<point x="481" y="730"/>
			<point x="309" y="730" type="curve" smooth="yes"/>
			<point x="59" y="730" type="line"/>
			<point x="59" y="718" type="line"/>
			<point x="115" y="715" type="line" smooth="yes"/>
			<point x="142" y="714"/>
			<point x="148" y="701"/>
			<point x="148" y="668" type="curve" smooth="yes"/>
			<point x="148" y="72" type="line" smooth="yes"/>
			<point x="148" y="30"/>
			<point x="142" y="18"/>
			<point x="117" y="16" type="curve" smooth="yes"/>
			<point x="59" y="12" type="line"/>
		</contour>
		<contour>
			<point x="313" y="16" type="curve" smooth="yes"/>
			<point x="289" y="16"/>
			<point x="261" y="18"/>
			<point x="247" y="21" type="curve"/>
			<point x="247" y="369" type="line"/>
			<point x="266" y="372"/>
			<point x="287" y="373"/>
			<point x="317" y="373" type="curve" smooth="yes"/>
			<point x="433" y="373"/>
			<point x="496" y="327"/>
			<point x="496" y="202" type="curve" smooth="yes"/>
			<point x="496" y="76"/>
			<point x="431" y="16"/>
		</contour>
		<contour>
			<point x="297" y="389" type="curve" smooth="yes"/>
			<point x="276" y="389"/>
			<point x="260" y="389"/>
			<point x="247" y="391" type="curve"/>
			<point x="247" y="714" type="line"/>
			<point x="300" y="714" type="line" smooth="yes"/>
			<point x="403" y="714"/>
			<point x="456" y="679"/>
			<point x="456" y="562" type="curve" smooth="yes"/>
			<point x="456" y="441"/>
			<point x="390" y="389"/>
		</contour>
	</outline>
</glyph>
<glyph name="E" format="2">
	<unicode hex="0045"/>
	<advance width="601"/>
	<outline>
		<contour>
			<point x="59" y="0" type="line"/>
			<point x="535" y="0" type="line"/>
			<point x="551" y="173" type="line"/>
			<point x="538" y="173" type="line"/>
			<point x="500" y="47"/>
			<point x="472" y="16"/>
			<point x="374" y="16" type="curve" smooth="yes"/>
			<point x="247" y="16" type="line"/>
			<point x="247" y="366" type="line"/>
			<point x="342" y="366" type="line" smooth="yes"/>
			<point x="409" y="366"/>
			<point x="423" y="349"/>
			<point x="440" y="272" type="curve"/>
			<point x="454" y="274" type="line"/>
			<point x="454" y="478" type="line"/>
			<point x="440" y="476" type="line"/>
			<point x="419" y="395"/>
			<point x="408" y="382"/>
			<point x="342" y="382" type="curve" smooth="yes"/>
			<point x="247" y="382" type="line"/>
			<point x="247" y="714" type="line"/>
			<point x="345" y="714" type="line" smooth="yes"/>
			<point x="451" y="714"/>
			<point x="483" y="682"/>
			<point x="523" y="564" type="curve"/>
			<point x="536" y="567" type="line"/>
			<point x="508" y="730" type="line"/>
			<point x="59" y="730" type="line"/>
			<point x="59" y="718" type="line"/>
			<point x="115" y="715" type="line" smooth="yes"/>
			<point x="142" y="714"/>
			<point x="148" y="701"/>
			<point x="148" y="668" type="curve" smooth="yes"/>
			<point x="148" y="67" type="line" smooth="yes"/>
			<point x="148" y="30"/>
			<point x="142" y="18"/>
			<point x="117" y="16" type="curve" smooth="yes"/>
			<point x="59" y="12" type="line"/>
		</contour>
	</outline>
	<anchor name="bottom" x="341" y="-30"/>
	<anchor name="top" x="311" y="730"/>
</glyph>
<glyph name="F" format="2">
	<unicode hex="0046"/>
	<advance width="580"/>
	<outline>
		<contour>
			<point x="59" y="0" type="line"/>
			<point x="359" y="0" type="line"/>
			<point x="359" y="12" type="line"/>
			<point x="284" y="15" type="line" smooth="yes"/>
			<point x="254" y="16"/>
			<point x="247" y="30"/>
			<point x="247" y="65" type="curve" smooth="yes"/>
			<point x="247" y="360" type="line"/>
			<point x="331" y="360" type="line" smooth="yes"/>
			<point x="402" y="360"/>
			<point x="417" y="347"/>
			<point x="435" y="261" type="curve"/>
			<point x="448" y="263" type="line"/>
			<point x="448" y="472" type="line"/>
			<point x="435" y="470" type="line"/>
			<point x="414" y="391"/>
			<point x="405" y="376"/>
			<point x="332" y="376" type="curve" smooth="yes"/>
			<point x="247" y="376" type="line"/>
			<point x="247" y="714" type="line"/>
			<point x="344" y="714" type="line" smooth="yes"/>
			<point x="439" y="714"/>
			<point x="481" y="691"/>
			<point x="522" y="564" type="curve"/>
			<point x="535" y="567" type="line"/>
			<point x="507" y="730" type="line"/>
			<point x="59" y="730" type="line"/>
			<point x="59" y="718" type="line"/>
			<point x="115" y="715" type="line" smooth="yes"/>
			<point x="142" y="714"/>
			<point x="148" y="701"/>
			<point x="148" y="668" type="curve" smooth="yes"/>
			<point x="148" y="67" type="line" smooth="yes"/>
			<point x="148" y="30"/>
			<point x="142" y="18"/>
			<point x="117" y="16" type="curve" smooth="yes"/>
			<point x="59" y="12" type="line"/>
		</contour>
	</outline>
</glyph>
<glyph name="K" format="2">
	<unicode hex="004B"/>
	<advance width="735"/>
	<outline>
		<contour>
			<point x="632" y="-14" type="curve" smooth="yes"/>
			<point x="672" y="-14"/>
			<point x="711" y="1"/>
			<point x="735" y="26" type="curve"/>
			<point x="729" y="34" type="line"/>
			<point x="715" y="26"/>
			<point x="701" y="19"/>
			<point x="683" y="19" type="curve" smooth="yes"/>
			<point x="633" y="19"/>
			<point x="608" y="50"/>
			<point x="553" y="136" type="curve" smooth="yes"/>
			<point x="365" y="431" type="line"/>
			<point x="575" y="647" type="line" smooth="yes"/>
			<point x="605" y="678"/>
			<point x="638" y="713"/>
			<point x="681" y="716" type="curve" smooth="yes"/>
			<point x="710" y="718" type="line"/>
			<point x="710" y="730" type="line"/>
			<point x="473" y="730" type="line"/>
			<point x="471" y="718" type="line"/>
			<point x="522" y="716" type="line" smooth="yes"/>
			<point x="578" y="714"/>
			<point x="596" y="686"/>
			<point x="567" y="657" type="curve" smooth="yes"/>
			<point x="251" y="333" type="line"/>
			<point x="251" y="664" type="line" smooth="yes"/>
			<point x="251" y="699"/>
			<point x="256" y="714"/>
			<point x="281" y="715" type="curve" smooth="yes"/>
			<point x="344" y="718" type="line"/>
			<point x="344" y="730" type="line"/>
			<point x="60" y="730" type="line"/>
			<point x="60" y="718" type="line"/>
			<point x="119" y="715" type="line" smooth="yes"/>
			<point x="146" y="714"/>
			<point x="152" y="701"/>
			<point x="152" y="668" type="curve" smooth="yes"/>
			<point x="152" y="67" type="line" smooth="yes"/>
			<point x="152" y="30"/>
			<point x="146" y="18"/>
			<point x="121" y="16" type="curve" smooth="yes"/>
			<point x="59" y="12" type="line"/>
			<point x="59" y="0" type="line"/>
			<point x="344" y="0" type="line"/>
			<point x="344" y="12" type="line"/>
			<point x="283" y="16" type="line" smooth="yes"/>
			<point x="257" y="18"/>
			<point x="251" y="29"/>
			<point x="251" y="63" type="curve" smooth="yes"/>
			<point x="251" y="314" type="line"/>
			<point x="297" y="360" type="line"/>
			<point x="471" y="85" type="line" smooth="yes"/>
			<point x="516" y="13"/>
			<point x="560" y="-14"/>
		</contour>
	</outline>
	<anchor name="bottom" x="398" y="-30"/>
	<anchor name="top" x="398" y="730"/>
</glyph>
<glyph name="O" format="2">
	<unicode hex="004F"/>
	<advance width="751"/>
	<outline>
		<contour>
			<point x="374" y="-14" type="curve" smooth="yes"/>
			<point x="572" y="-14"/>
			<point x="698" y="140"/>
			<point x="698" y="383" type="curve" smooth="yes"/>
			<point x="698" y="606"/>
			<point x="577" y="744"/>
			<point x="383" y="744" type="curve" smooth="yes"/>
			<point x="177" y="744"/>
			<point x="53" y="597"/>
			<point x="53" y="351" type="curve" smooth="yes"/>
			<point x="53" y="126"/>
			<point x="177" y="-14"/>
		</contour>
		<contour>
			<point x="388" y="3" type="curve" smooth="yes"/>
			<point x="244" y="3"/>
			<point x="159" y="123"/>
			<point x="159" y="375" type="curve" smooth="yes"/>
			<point x="159" y="627"/>
			<point x="229" y="730"/>
			<point x="368" y="730" type="curve" smooth="yes"/>
			<point x="511" y="730"/>
			<point x="589" y="615"/>
			<point x="589" y="361" type="curve" smooth="yes"/>
			<point x="589" y="103"/>
			<point x="526" y="3"/>
		</contour>
	</outline>
	<anchor name="bottom" x="375" y="-30"/>
	<anchor name="top" x="378" y="730"/>
</glyph>
<glyph name="Q" format="2">
	<unicode hex="0051"/>
	<advance width="751"/>
	<outline>
		<contour>
			<point x="681" y="-191" type="curve" smooth="yes"/>
			<point x="741" y="-191"/>
			<point x="797" y="-157"/>
			<point x="835" y="-36" type="curve"/>
			<point x="826" y="-32" type="line"/>
			<point x="786" y="-89"/>
			<point x="748" y="-107"/>
			<point x="708" y="-107" type="curve" smooth="yes"/>
			<point x="641" y="-107"/>
			<point x="597" y="-51"/>
			<point x="542" y="33" type="curve"/>
			<point x="641" y="96"/>
			<point x="698" y="219"/>
			<point x="698" y="383" type="curve" smooth="yes"/>
			<point x="698" y="606"/>
			<point x="577" y="744"/>
			<point x="383" y="744" type="curve" smooth="yes"/>
			<point x="177" y="744"/>
			<point x="53" y="597"/>
			<point x="53" y="351" type="curve" smooth="yes"/>
			<point x="53" y="126"/>
			<point x="177" y="-14"/>
			<point x="374" y="-14" type="curve" smooth="yes"/>
			<point x="412" y="-14"/>
			<point x="447" y="-8"/>
			<point x="479" y="2" type="curve"/>
			<point x="555" y="-130"/>
			<point x="605" y="-191"/>
		</contour>
		<contour>
			<point x="388" y="3" type="curve" smooth="yes"/>
			<point x="297" y="3"/>
			<point x="229" y="51"/>
			<point x="192" y="150" type="curve"/>
			<point x="222" y="197"/>
			<point x="253" y="212"/>
			<point x="297" y="212" type="curve" smooth="yes"/>
			<point x="356" y="212"/>
			<point x="387" y="171"/>
			<point x="470" y="19" type="curve"/>
			<point x="446" y="8"/>
			<point x="419" y="3"/>
		</contour>
		<contour>
			<point x="524" y="61" type="curve"/>
			<point x="443" y="183"/>
			<point x="407" y="244"/>
			<point x="312" y="244" type="curve" smooth="yes"/>
			<point x="256" y="244"/>
			<point x="219" y="217"/>
			<point x="186" y="166" type="curve"/>
			<point x="168" y="222"/>
			<point x="159" y="291"/>
			<point x="159" y="375" type="curve" smooth="yes"/>
			<point x="159" y="627"/>
			<point x="229" y="730"/>
			<point x="368" y="730" type="curve" smooth="yes"/>
			<point x="511" y="730"/>
			<point x="589" y="615"/>
			<point x="589" y="361" type="curve" smooth="yes"/>
			<point x="589" y="212"/>
			<point x="568" y="116"/>
		</contour>
	</outline>
</glyph>
<glyph name="T" format="2">
	<unicode hex="0054"/>
	<advance width="658"/>
	<outline>
		<contour>
			<point x="177" y="0" type="line"/>
			<point x="482" y="0" type="line"/>
			<point x="482" y="12" type="line"/>
			<point x="413" y="16" type="line" smooth="yes"/>
			<point x="385" y="18"/>
			<point x="379" y="29"/>
			<point x="379" y="62" type="curve" smooth="yes"/>
			<point x="379" y="714" type="line"/>
			<point x="445" y="714" type="line" smooth="yes"/>
			<point x="536" y="714"/>
			<point x="575" y="666"/>
			<point x="618" y="528" type="curve"/>
			<point x="633" y="532" type="line"/>
			<point x="607" y="730" type="line"/>
			<point x="53" y="730" type="line"/>
			<point x="25" y="532" type="line"/>
			<point x="39" y="528" type="line"/>
			<point x="83" y="666"/>
			<point x="123" y="714"/>
			<point x="215" y="714" type="curve" smooth="yes"/>
			<point x="280" y="714" type="line"/>
			<point x="280" y="66" type="line" smooth="yes"/>
			<point x="280" y="33"/>
			<point x="273" y="17"/>
			<point x="247" y="16" type="curve" smooth="yes"/>
			<point x="177" y="12" type="line"/>
		</contour>
	</outline>
	<anchor name="bottom" x="329" y="-30"/>
	<anchor name="top" x="329" y="730"/>
</glyph>
<glyph name="U" format="2">
	<unicode hex="0055"/>
	<advance width="762"/>
	<outline>
		<contour>
			<point x="390" y="-14" type="curve" smooth="yes"/>
			<point x="534" y="-14"/>
			<point x="635" y="75"/>
			<point x="635" y="254" type="curve" smooth="yes"/>
			<point x="635" y="664" type="line" smooth="yes"/>
			<point x="635" y="701"/>
			<point x="641" y="713"/>
			<point x="666" y="715" type="curve" smooth="yes"/>
			<point x="710" y="718" type="line"/>
			<point x="710" y="730" type="line"/>
			<point x="532" y="730" type="line"/>
			<point x="532" y="718" type="line"/>
			<point x="580" y="715" type="line" smooth="yes"/>
			<point x="607" y="713"/>
			<point x="613" y="702"/>
			<point x="613" y="668" type="curve" smooth="yes"/>
			<point x="613" y="254" type="line" smooth="yes"/>
			<point x="613" y="111"/>
			<point x="544" y="19"/>
			<point x="414" y="19" type="curve" smooth="yes"/>
			<point x="285" y="19"/>
			<point x="233" y="101"/>
			<point x="233" y="252" type="curve" smooth="yes"/>
			<point x="233" y="664" type="line" smooth="yes"/>
			<point x="233" y="703"/>
			<point x="241" y="714"/>
			<point x="263" y="715" type="curve" smooth="yes"/>
			<point x="321" y="718" type="line"/>
			<point x="321" y="730" type="line"/>
			<point x="45" y="730" type="line"/>
			<point x="45" y="718" type="line"/>
			<point x="101" y="715" type="line" smooth="yes"/>
			<point x="128" y="714"/>
			<point x="134" y="701"/>
			<point x="134" y="668" type="curve" smooth="yes"/>
			<point x="134" y="245" type="line" smooth="yes"/>
			<point x="134" y="70"/>
			<point x="220" y="-14"/>
		</contour>
	</outline>
	<anchor name="bottom" x="400" y="-30"/>
	<anchor name="top" x="412" y="730"/>
</glyph>
<glyph name="V" format="2">
	<unicode hex="0056"/>
	<advance width="677"/>
	<outline>
		<contour>
			<point x="310" y="0" type="line"/>
			<point x="373" y="0" type="line"/>
			<point x="592" y="656" type="line" smooth="yes"/>
			<point x="605" y="696"/>
			<point x="615" y="708"/>
			<point x="638" y="711" type="curve" smooth="yes"/>
			<point x="697" y="718" type="line"/>
			<point x="697" y="730" type="line"/>
			<point x="469" y="730" type="line"/>
			<point x="469" y="719" type="line"/>
			<point x="546" y="712" type="line" smooth="yes"/>
			<point x="575" y="709"/>
			<point x="579" y="689"/>
			<point x="569" y="657" type="curve" smooth="yes"/>
			<point x="378" y="86" type="line"/>
			<point x="376" y="86" type="line"/>
			<point x="186" y="663" type="line" smooth="yes"/>
			<point x="176" y="695"/>
			<point x="181" y="708"/>
			<point x="205" y="711" type="curve" smooth="yes"/>
			<point x="259" y="718" type="line"/>
			<point x="259" y="730" type="line"/>
			<point x="0" y="730" type="line"/>
			<point x="0" y="716" type="line"/>
			<point x="36" y="709" type="line" smooth="yes"/>
			<point x="64" y="704"/>
			<point x="68" y="692"/>
			<point x="80" y="659" type="curve" smooth="yes"/>
		</contour>
	</outline>
	<anchor name="top" x="368" y="730"/>
</glyph>
<glyph name="X" format="2">
	<unicode hex="0058"/>
	<advance width="682"/>
	<outline>
		<contour>
			<point x="0" y="0" type="line"/>
			<point x="230" y="0" type="line"/>
			<point x="230" y="12" type="line"/>
			<point x="176" y="17" type="line" smooth="yes"/>
			<point x="140" y="20"/>
			<point x="126" y="36"/>
			<point x="143" y="62" type="curve" smooth="yes"/>
			<point x="311" y="316" type="line"/>
			<point x="466" y="62" type="line" smooth="yes"/>
			<point x="483" y="34"/>
			<point x="484" y="15"/>
			<point x="458" y="14" type="curve" smooth="yes"/>
			<point x="413" y="12" type="line"/>
			<point x="413" y="0" type="line"/>
			<point x="682" y="0" type="line"/>
			<point x="682" y="12" type="line"/>
			<point x="644" y="16" type="line" smooth="yes"/>
			<point x="618" y="19"/>
			<point x="596" y="35"/>
			<point x="575" y="69" type="curve" smooth="yes"/>
			<point x="382" y="394" type="line"/>
			<point x="544" y="657" type="line" smooth="yes"/>
			<point x="565" y="691"/>
			<point x="582" y="712"/>
			<point x="618" y="715" type="curve" smooth="yes"/>
			<point x="656" y="718" type="line"/>
			<point x="656" y="730" type="line"/>
			<point x="441" y="730" type="line"/>
			<point x="439" y="716" type="line"/>
			<point x="502" y="711" type="line" smooth="yes"/>
			<point x="529" y="709"/>
			<point x="538" y="687"/>
			<point x="519" y="657" type="curve" smooth="yes"/>
			<point x="369" y="415" type="line"/>
			<point x="213" y="669" type="line" smooth="yes"/>
			<point x="193" y="702"/>
			<point x="196" y="713"/>
			<point x="219" y="715" type="curve" smooth="yes"/>
			<point x="259" y="718" type="line"/>
			<point x="259" y="730" type="line"/>
			<point x="15" y="730" type="line"/>
			<point x="13" y="716" type="line"/>
			<point x="40" y="712" type="line" smooth="yes"/>
			<point x="70" y="707"/>
			<point x="83" y="692"/>
			<point x="102" y="661" type="curve" smooth="yes"/>
			<point x="298" y="337" type="line"/>
			<point x="128" y="78" type="line" smooth="yes"/>
			<point x="104" y="41"/>
			<point x="84" y="22"/>
			<point x="37" y="16" type="curve" smooth="yes"/>
			<point x="0" y="12" type="line"/>
		</contour>
	</outline>
</glyph>
<glyph name="Y" format="2">
	<unicode hex="0059"/>
	<advance width="632"/>
	<outline>
		<contour>
			<point x="185" y="0" type="line"/>
			<point x="461" y="0" type="line"/>
			<point x="461" y="12" type="line"/>
			<point x="405" y="16" type="line" smooth="yes"/>
			<point x="379" y="18"/>
			<point x="373" y="29"/>
			<point x="373" y="63" type="curve" smooth="yes"/>
			<point x="373" y="332" type="line"/>
			<point x="556" y="655" type="line" smooth="yes"/>
			<point x="582" y="700"/>
			<point x="592" y="707"/>
			<point x="613" y="710" type="curve" smooth="yes"/>
			<point x="662" y="718" type="line"/>
			<point x="662" y="730" type="line"/>
			<point x="451" y="730" type="line"/>
			<point x="451" y="719" type="line"/>
			<point x="515" y="708" type="line" smooth="yes"/>
			<point x="546" y="703"/>
			<point x="548" y="686"/>
			<point x="532" y="657" type="curve" smooth="yes"/>
			<point x="368" y="367" type="line"/>
			<point x="363" y="367" type="line"/>
			<point x="195" y="661" type="line" smooth="yes"/>
			<point x="179" y="689"/>
			<point x="183" y="707"/>
			<point x="214" y="711" type="curve" smooth="yes"/>
			<point x="269" y="718" type="line"/>
			<point x="269" y="730" type="line"/>
			<point x="-10" y="730" type="line"/>
			<point x="-10" y="718" type="line"/>
			<point x="27" y="711" type="line" smooth="yes"/>
			<point x="54" y="706"/>
			<point x="66" y="693"/>
			<point x="87" y="657" type="curve" smooth="yes"/>
			<point x="274" y="332" type="line"/>
			<point x="274" y="67" type="line" smooth="yes"/>
			<point x="274" y="30"/>
			<point x="268" y="18"/>
			<point x="243" y="16" type="curve" smooth="yes"/>
			<point x="185" y="12" type="line"/>
		</contour>
	</outline>
	<anchor name="bottom" x="321" y="-30"/>
	<anchor name="top" x="352" y="730"/>
</glyph>
<glyph name="asciicircum" format="2">
	<unicode hex="005E"/>
	<advance width="582"/>
	<outline>
		<contour>
			<point x="75" y="396" type="line"/>
			<point x="291" y="724" type="line"/>
			<point x="507" y="395" type="line"/>
			<point x="525" y="406" type="line"/>
			<point x="303" y="744" type="line"/>
			<point x="279" y="744" type="line"/>
			<point x="57" y="406" type="line"/>
		</contour>
	</outline>
</glyph>
<glyph name="e" format="2">
	<unicode hex="0065"/>
	<advance width="509"/>
	<outline>
		<contour>
			<point x="272" y="-14" type="curve" smooth="yes"/>
			<point x="355" y="-14"/>
			<point x="417" y="21"/>
			<point x="471" y="113" type="curve"/>
			<point x="462" y="120" type="line"/>
			<point x="409" y="66"/>
			<point x="361" y="54"/>
			<point x="304" y="54" type="curve" smooth="yes"/>
			<point x="210" y="54"/>
			<point x="140" y="121"/>
			<point x="147" y="291" type="curve"/>
			<point x="464" y="291" type="line"/>
			<point x="466" y="310"/>
			<point x="467" y="326"/>
			<point x="467" y="348" type="curve" smooth="yes"/>
			<point x="467" y="456"/>
			<point x="398" y="527"/>
			<point x="288" y="527" type="curve" smooth="yes"/>
			<point x="143" y="527"/>
			<point x="48" y="428"/>
			<point x="48" y="245" type="curve" smooth="yes"/>
			<point x="48" y="75"/>
			<point x="138" y="-14"/>
		</contour>
		<contour>
			<point x="148" y="307" type="line"/>
			<point x="158" y="459"/>
			<point x="201" y="512"/>
			<point x="279" y="512" type="curve" smooth="yes"/>
			<point x="343" y="512"/>
			<point x="372" y="473"/>
			<point x="372" y="352" type="curve" smooth="yes"/>
			<point x="372" y="334"/>
			<point x="371" y="319"/>
			<point x="370" y="307" type="curve"/>
		</contour>
	</outline>
	<anchor name="bottom" x="281" y="-30"/>
	<anchor name="top" x="272" y="550"/>
</glyph>
<glyph name="g" format="2">
	<unicode hex="0067"/>
	<advance width="557"/>
	<outline>
		<contour>
			<point x="259" y="-230" type="curve" smooth="yes"/>
			<point x="427" y="-230"/>
			<point x="524" y="-162"/>
			<point x="524" y="-46" type="curve" smooth="yes"/>
			<point x="524" y="42"/>
			<point x="459" y="78"/>
			<point x="337" y="78" type="curve" smooth="yes"/>
			<point x="199" y="78" type="line" smooth="yes"/>
			<point x="139" y="78"/>
			<point x="111" y="96"/>
			<point x="111" y="133" type="curve" smooth="yes"/>
			<point x="111" y="151"/>
			<point x="119" y="167"/>
			<point x="145" y="196" type="curve"/>
			<point x="176" y="183"/>
			<point x="212" y="174"/>
			<point x="262" y="174" type="curve" smooth="yes"/>
			<point x="385" y="174"/>
			<point x="464" y="242"/>
			<point x="464" y="351" type="curve" smooth="yes"/>
			<point x="464" y="397"/>
			<point x="441" y="446"/>
			<point x="416" y="476" type="curve"/>
			<point x="425" y="502"/>
			<point x="433" y="520"/>
			<point x="445" y="539" type="curve"/>
			<point x="465" y="506" type="line" smooth="yes"/>
			<point x="476" y="488"/>
			<point x="487" y="479"/>
			<point x="505" y="479" type="curve" smooth="yes"/>
			<point x="535" y="479"/>
			<point x="562" y="506"/>
			<point x="562" y="535" type="curve" smooth="yes"/>
			<point x="562" y="566"/>
			<point x="534" y="588"/>
			<point x="495" y="588" type="curve" smooth="yes"/>
			<point x="450" y="588"/>
			<point x="424" y="547"/>
			<point x="401" y="486" type="curve"/>
			<point x="364" y="511"/>
			<point x="313" y="527"/>
			<point x="261" y="527" type="curve" smooth="yes"/>
			<point x="136" y="527"/>
			<point x="54" y="457"/>
			<point x="54" y="346" type="curve" smooth="yes"/>
			<point x="54" y="277"/>
			<point x="79" y="231"/>
			<point x="128" y="206" type="curve"/>
			<point x="128" y="203" type="line"/>
			<point x="77" y="150"/>
			<point x="63" y="123"/>
			<point x="63" y="87" type="curve" smooth="yes"/>
			<point x="63" y="47"/>
			<point x="87" y="15"/>
			<point x="135" y="5" type="curve"/>
			<point x="135" y="1" type="line"/>
			<point x="62" y="-12"/>
			<point x="30" y="-56"/>
			<point x="30" y="-106" type="curve" smooth="yes"/>
			<point x="30" y="-188"/>
			<point x="106" y="-230"/>
		</contour>
		<contour>
			<point x="267" y="-212" type="curve" smooth="yes"/>
			<point x="163" y="-212"/>
			<point x="110" y="-174"/>
			<point x="110" y="-91" type="curve" smooth="yes"/>
			<point x="110" y="-56"/>
			<point x="127" y="-21"/>
			<point x="156" y="-1" type="curve"/>
			<point x="336" y="-1" type="line" smooth="yes"/>
			<point x="405" y="-1"/>
			<point x="444" y="-26"/>
			<point x="444" y="-87" type="curve" smooth="yes"/>
			<point x="444" y="-160"/>
			<point x="366" y="-212"/>
		</contour>
		<contour>
			<point x="260" y="192" type="curve" smooth="yes"/>
			<point x="192" y="192"/>
			<point x="149" y="254"/>
			<point x="149" y="351" type="curve" smooth="yes"/>
			<point x="149" y="454"/>
			<point x="185" y="509"/>
			<point x="254" y="509" type="curve" smooth="yes"/>
			<point x="327" y="509"/>
			<point x="369" y="450"/>
			<point x="369" y="348" type="curve" smooth="yes"/>
			<point x="369" y="250"/>
			<point x="330" y="192"/>
		</contour>
	</outline>
	<anchor name="top" x="262" y="550"/>
</glyph>
<glyph name="j" format="2">
	<unicode hex="006A"/>
	<advance width="304"/>
	<outline>
		<contour>
			<point x="41" y="-229" type="line"/>
			<point x="179" y="-161"/>
			<point x="212" y="-91"/>
			<point x="212" y="91" type="curve" smooth="yes"/>
			<point x="212" y="513" type="line"/>
			<point x="205" y="518" type="line"/>
			<point x="36" y="509" type="line"/>
			<point x="35" y="499" type="line"/>
			<point x="85" y="495" type="line" smooth="yes"/>
			<point x="114" y="493"/>
			<point x="119" y="480"/>
			<point x="119" y="432" type="curve" smooth="yes"/>
			<point x="119" y="26" type="line" smooth="yes"/>
			<point x="119" y="-118"/>
			<point x="108" y="-165"/>
			<point x="36" y="-220" type="curve"/>
		</contour>
		<contour>
			<point x="151" y="620" type="curve" smooth="yes"/>
			<point x="191" y="620"/>
			<point x="219" y="648"/>
			<point x="219" y="687" type="curve" smooth="yes"/>
			<point x="219" y="726"/>
			<point x="191" y="753"/>
			<point x="151" y="753" type="curve" smooth="yes"/>
			<point x="112" y="753"/>
			<point x="84" y="725"/>
			<point x="84" y="686" type="curve" smooth="yes"/>
			<point x="84" y="647"/>
			<point x="112" y="620"/>
		</contour>
	</outline>
</glyph>
<glyph name="l" format="2">
	<unicode hex="006C"/>
	<advance width="322"/>
	<outline>
		<contour>
			<point x="43" y="0" type="line"/>
			<point x="293" y="0" type="line"/>
			<point x="293" y="11" type="line"/>
			<point x="242" y="17" type="line" smooth="yes"/>
			<point x="214" y="20"/>
			<point x="210" y="32"/>
			<point x="210" y="64" type="curve" smooth="yes"/>
			<point x="210" y="761" type="line"/>
			<point x="203" y="766" type="line"/>
			<point x="34" y="761" type="line"/>
			<point x="33" y="751" type="line"/>
			<point x="83" y="747" type="line" smooth="yes"/>
			<point x="111" y="745"/>
			<point x="117" y="733"/>
			<point x="117" y="688" type="curve" smooth="yes"/>
			<point x="117" y="68" type="line" smooth="yes"/>
			<point x="117" y="31"/>
			<point x="113" y="20"/>
			<point x="86" y="17" type="curve" smooth="yes"/>
			<point x="43" y="12" type="line"/>
		</contour>
	</outline>
	<anchor name="bottom" x="163" y="-30"/>
	<anchor name="top" x="137" y="782"/>
</glyph>
<glyph name="o" format="2">
	<unicode hex="006F"/>
	<advance width="580"/>
	<outline>
		<contour>
			<point x="286" y="-14" type="curve" smooth="yes"/>
			<point x="434" y="-14"/>
			<point x="532" y="96"/>
			<point x="532" y="270" type="curve" smooth="yes"/>
			<point x="532" y="428"/>
			<point x="440" y="527"/>
			<point x="300" y="527" type="curve" smooth="yes"/>
			<point x="146" y="527"/>
			<point x="48" y="420"/>
			<point x="48" y="245" type="curve" smooth="yes"/>
			<point x="48" y="85"/>
			<point x="142" y="-14"/>
		</contour>
		<contour>
			<point x="303" y="4" type="curve" smooth="yes"/>
			<point x="211" y="4"/>
			<point x="149" y="85"/>
			<point x="149" y="274" type="curve" smooth="yes"/>
			<point x="149" y="446"/>
			<point x="196" y="509"/>
			<point x="281" y="509" type="curve" smooth="yes"/>
			<point x="374" y="509"/>
			<point x="430" y="429"/>
			<point x="430" y="245" type="curve" smooth="yes"/>
			<point x="430" y="71"/>
			<point x="385" y="4"/>
		</contour>
	</outline>
	<anchor name="bottom" x="290" y="-30"/>
	<anchor name="top" x="283" y="550"/>
</glyph>
<glyph name="p" format="2">
	<unicode hex="0070"/>
	<advance width="622"/>
	<outline>
		<contour>
			<point x="37" y="-216" type="line"/>
			<point x="297" y="-216" type="line"/>
			<point x="297" y="-204" type="line"/>
			<point x="236" y="-198" type="line" smooth="yes"/>
			<point x="208" y="-195"/>
			<point x="204" y="-186"/>
			<point x="204" y="-152" type="curve" smooth="yes"/>
			<point x="204" y="19" type="line"/>
			<point x="235" y="-1"/>
			<point x="287" y="-14"/>
			<point x="326" y="-14" type="curve" smooth="yes"/>
			<point x="485" y="-14"/>
			<point x="570" y="101"/>
			<point x="570" y="271" type="curve" smooth="yes"/>
			<point x="570" y="446"/>
			<point x="492" y="527"/>
			<point x="362" y="527" type="curve" smooth="yes"/>
			<point x="297" y="527"/>
			<point x="240" y="502"/>
			<point x="204" y="433" type="curve"/>
			<point x="202" y="433" type="line"/>
			<point x="202" y="513" type="line"/>
			<point x="197" y="518" type="line"/>
			<point x="28" y="509" type="line"/>
			<point x="27" y="499" type="line"/>
			<point x="76" y="495" type="line" smooth="yes"/>
			<point x="105" y="493"/>
			<point x="111" y="483"/>
			<point x="111" y="433" type="curve" smooth="yes"/>
			<point x="111" y="-152" type="line" smooth="yes"/>
			<point x="111" y="-190"/>
			<point x="104" y="-195"/>
			<point x="84" y="-198" type="curve" smooth="yes"/>
			<point x="37" y="-204" type="line"/>
		</contour>
		<contour>
			<point x="328" y="3" type="curve" smooth="yes"/>
			<point x="278" y="3"/>
			<point x="231" y="28"/>
			<point x="204" y="53" type="curve"/>
			<point x="204" y="355" type="line" smooth="yes"/>
			<point x="204" y="441"/>
			<point x="253" y="492"/>
			<point x="337" y="492" type="curve" smooth="yes"/>
			<point x="420" y="492"/>
			<point x="471" y="433"/>
			<point x="471" y="266" type="curve" smooth="yes"/>
			<point x="471" y="58"/>
			<point x="416" y="3"/>
		</contour>
	</outline>
</glyph>
<glyph name="q" format="2">
	<unicode hex="0071"/>
	<advance width="605"/>
	<outline>
		<contour>
			<point x="328" y="-216" type="line"/>
			<point x="589" y="-216" type="line"/>
			<point x="589" y="-204" type="line"/>
			<point x="544" y="-199" type="line" smooth="yes"/>
			<point x="519" y="-196"/>
			<point x="511" y="-191"/>
			<point x="511" y="-160" type="curve" smooth="yes"/>
			<point x="511" y="516" type="line"/>
			<point x="499" y="521" type="line"/>
			<point x="439" y="480" type="line"/>
			<point x="403" y="509"/>
			<point x="351" y="527"/>
			<point x="295" y="527" type="curve" smooth="yes"/>
			<point x="142" y="527"/>
			<point x="52" y="419"/>
			<point x="52" y="237" type="curve" smooth="yes"/>
			<point x="52" y="74"/>
			<point x="126" y="-14"/>
			<point x="258" y="-14" type="curve" smooth="yes"/>
			<point x="330" y="-14"/>
			<point x="379" y="14"/>
			<point x="418" y="71" type="curve"/>
			<point x="418" y="68" type="line"/>
			<point x="418" y="-158" type="line" smooth="yes"/>
			<point x="418" y="-190"/>
			<point x="410" y="-198"/>
			<point x="386" y="-200" type="curve" smooth="yes"/>
			<point x="328" y="-205" type="line"/>
		</contour>
		<contour>
			<point x="290" y="19" type="curve" smooth="yes"/>
			<point x="199" y="19"/>
			<point x="151" y="88"/>
			<point x="151" y="249" type="curve" smooth="yes"/>
			<point x="151" y="440"/>
			<point x="193" y="510"/>
			<point x="290" y="510" type="curve" smooth="yes"/>
			<point x="340" y="510"/>
			<point x="386" y="487"/>
			<point x="418" y="460" type="curve"/>
			<point x="418" y="162" type="line" smooth="yes"/>
			<point x="418" y="64"/>
			<point x="357" y="19"/>
		</contour>
	</outline>
</glyph>
<glyph name="x" format="2">
	<unicode hex="0078"/>
	<advance width="559"/>
	<outline>
		<contour>
			<point x="-7" y="0" type="line"/>
			<point x="200" y="0" type="line"/>
			<point x="200" y="11" type="line"/>
			<point x="139" y="17" type="line" smooth="yes"/>
			<point x="113" y="20"/>
			<point x="111" y="35"/>
			<point x="129" y="59" type="curve" smooth="yes"/>
			<point x="248" y="218" type="line"/>
			<point x="358" y="61" type="line" smooth="yes"/>
			<point x="379" y="31"/>
			<point x="373" y="16"/>
			<point x="342" y="14" type="curve" smooth="yes"/>
			<point x="305" y="11" type="line"/>
			<point x="305" y="0" type="line"/>
			<point x="559" y="0" type="line"/>
			<point x="559" y="11" type="line"/>
			<point x="531" y="17" type="line" smooth="yes"/>
			<point x="506" y="22"/>
			<point x="484" y="33"/>
			<point x="460" y="68" type="curve" smooth="yes"/>
			<point x="307" y="288" type="line"/>
			<point x="421" y="448" type="line" smooth="yes"/>
			<point x="446" y="483"/>
			<point x="458" y="492"/>
			<point x="483" y="496" type="curve" smooth="yes"/>
			<point x="531" y="503" type="line"/>
			<point x="531" y="513" type="line"/>
			<point x="329" y="513" type="line"/>
			<point x="326" y="503" type="line"/>
			<point x="375" y="498" type="line" smooth="yes"/>
			<point x="408" y="495"/>
			<point x="417" y="473"/>
			<point x="402" y="452" type="curve"/>
			<point x="296" y="304" type="line"/>
			<point x="192" y="453" type="line" smooth="yes"/>
			<point x="169" y="485"/>
			<point x="177" y="494"/>
			<point x="199" y="497" type="curve" smooth="yes"/>
			<point x="249" y="503" type="line"/>
			<point x="249" y="513" type="line"/>
			<point x="-8" y="513" type="line"/>
			<point x="-10" y="503" type="line"/>
			<point x="24" y="497" type="line" smooth="yes"/>
			<point x="54" y="492"/>
			<point x="71" y="473"/>
			<point x="90" y="445" type="curve" smooth="yes"/>
			<point x="236" y="236" type="line"/>
			<point x="108" y="64" type="line"/>
			<point x="83" y="33"/>
			<point x="64" y="23"/>
			<point x="42" y="19" type="curve" smooth="yes"/>
			<point x="-7" y="11" type="line"/>
		</contour>
	</outline>
</glyph>
<glyph name="z" format="2">
	<unicode hex="007A"/>
	<advance width="477"/>
	<outline>
		<contour>
			<point x="40" y="0" type="line"/>
			<point x="428" y="0" type="line"/>
			<point x="442" y="181" type="line"/>
			<point x="427" y="181" type="line"/>
			<point x="392" y="49"/>
			<point x="373" y="16"/>
			<point x="287" y="16" type="curve" smooth="yes"/>
			<point x="137" y="16" type="line"/>
			<point x="441" y="498" type="line"/>
			<point x="441" y="513" type="line"/>
			<point x="57" y="513" type="line"/>
			<point x="45" y="346" type="line"/>
			<point x="60" y="347" type="line"/>
			<point x="94" y="463"/>
			<point x="108" y="498"/>
			<point x="189" y="498" type="curve" smooth="yes"/>
			<point x="350" y="498" type="line"/>
			<point x="40" y="15" type="line"/>
		</contour>
	</outline>
	<anchor name="bottom" x="236" y="-30"/>
	<anchor name="top" x="242" y="550"/>
</glyph>
<glyph name="braceleft" format="2">
	<unicode hex="007B"/>
	<advance width="372"/>
	<outline>
		<contour>
			<point x="263" y="-227" type="curve" smooth="yes"/>
			<point x="288" y="-227"/>
			<point x="313" y="-224"/>
			<point x="335" y="-218" type="curve"/>
			<point x="333" y="-207" type="line"/>
			<point x="313" y="-211"/>
			<point x="299" y="-213"/>
			<point x="277" y="-213" type="curve" smooth="yes"/>
			<point x="246" y="-213"/>
			<point x="222" y="-200"/>
			<point x="222" y="-123" type="curve" smooth="yes"/>
			<point x="222" y="-58"/>
			<point x="239" y="109"/>
			<point x="239" y="174" type="curve" smooth="yes"/>
			<point x="239" y="268"/>
			<point x="182" y="291"/>
			<point x="114" y="308" type="curve"/>
			<point x="182" y="325"/>
			<point x="239" y="348"/>
			<point x="239" y="442" type="curve" smooth="yes"/>
			<point x="239" y="507"/>
			<point x="222" y="653"/>
			<point x="222" y="718" type="curve" smooth="yes"/>
			<point x="222" y="795"/>
			<point x="246" y="808"/>
			<point x="277" y="808" type="curve" smooth="yes"/>
			<point x="296" y="808"/>
			<point x="309" y="805"/>
			<point x="325" y="802" type="curve"/>
			<point x="327" y="813" type="line"/>
			<point x="306" y="818"/>
			<point x="279" y="822"/>
			<point x="257" y="822" type="curve" smooth="yes"/>
			<point x="174" y="822"/>
			<point x="130" y="775"/>
			<point x="130" y="701" type="curve" smooth="yes"/>
			<point x="130" y="640"/>
			<point x="149" y="484"/>
			<point x="149" y="412" type="curve" smooth="yes"/>
			<point x="149" y="326"/>
			<point x="128" y="315"/>
			<point x="55" y="314" type="curve"/>
			<point x="55" y="302" type="line"/>
			<point x="128" y="301"/>
			<point x="149" y="290"/>
			<point x="149" y="204" type="curve" smooth="yes"/>
			<point x="149" y="132"/>
			<point x="130" y="-45"/>
			<point x="130" y="-106" type="curve" smooth="yes"/>
			<point x="130" y="-180"/>
			<point x="180" y="-227"/>
		</contour>
	</outline>
</glyph>
<glyph name="asciitilde" format="2">
	<unicode hex="007E"/>
	<advance width="582"/>
	<outline>
		<contour>
			<point x="85" y="257" type="line"/>
			<point x="97" y="277"/>
			<point x="106" y="289"/>
			<point x="134" y="289" type="curve" smooth="yes"/>
			<point x="183" y="289"/>
			<point x="227" y="282"/>
			<point x="281" y="268" type="curve" smooth="yes"/>
			<point x="336" y="254"/>
			<point x="377" y="246"/>
			<point x="415" y="246" type="curve" smooth="yes"/>
			<point x="455" y="246"/>
			<point x="478" y="262"/>
			<point x="512" y="342" type="curve"/>
			<point x="496" y="348" type="line"/>
			<point x="484" y="328"/>
			<point x="475" y="316"/>
			<point x="447" y="316" type="curve" smooth="yes"/>
			<point x="398" y="316"/>
			<point x="354" y="323"/>
			<point x="300" y="337" type="curve" smooth="yes"/>
			<point x="247" y="351"/>
			<point x="202" y="359"/>
			<point x="166" y="359" type="curve" smooth="yes"/>
			<point x="121" y="359"/>
			<point x="101" y="336"/>
			<point x="69" y="263" type="curve"/>
		</contour>
	</outline>
</glyph>
<glyph name="cent" format="2">
	<unicode hex="00A2"/>
	<advance width="504"/>
	<outline>
		<contour>
			<point x="178" y="-29" type="line"/>
			<point x="204" y="-29" type="line"/>
			<point x="345" y="638" type="line"/>
			<point x="319" y="638" type="line"/>
		</contour>
		<contour>
			<point x="268" y="36" type="curve" smooth="yes"/>
			<point x="354" y="36"/>
			<point x="413" y="77"/>
			<point x="459" y="157" type="curve"/>
			<point x="450" y="164" type="line"/>
			<point x="416" y="130"/>
			<point x="370" y="104"/>
			<point x="302" y="104" type="curve" smooth="yes"/>
			<point x="207" y="104"/>
			<point x="147" y="178"/>
			<point x="147" y="328" type="curve" smooth="yes"/>
			<point x="147" y="493"/>
			<point x="208" y="560"/>
			<point x="290" y="560" type="curve" smooth="yes"/>
			<point x="328" y="560"/>
			<point x="356" y="551"/>
			<point x="382" y="531" type="curve"/>
			<point x="355" y="485"/>
			<point x="340" y="463"/>
			<point x="340" y="443" type="curve" smooth="yes"/>
			<point x="340" y="413"/>
			<point x="359" y="394"/>
			<point x="396" y="394" type="curve" smooth="yes"/>
			<point x="436" y="394"/>
			<point x="454" y="419"/>
			<point x="454" y="459" type="curve" smooth="yes"/>
			<point x="454" y="521"/>
			<point x="388" y="577"/>
			<point x="289" y="577" type="curve" smooth="yes"/>
			<point x="148" y="577"/>
			<point x="48" y="473"/>
			<point x="48" y="297" type="curve" smooth="yes"/>
			<point x="48" y="127"/>
			<point x="140" y="36"/>
		</contour>
	</outline>
	<anchor name="bottom" x="275" y="20"/>
	<anchor name="top" x="277" y="600"/>
</glyph>
<glyph name="sterling" format="2">
	<unicode hex="00A3"/>
	<advance width="554"/>
	<outline>
		<contour>
			<point x="57" y="0" type="line"/>
			<point x="484" y="0" type="line"/>
			<point x="514" y="197" type="line"/>
			<point x="497" y="197" type="line"/>
			<point x="460" y="89"/>
			<point x="442" y="77"/>
			<point x="348" y="77" type="curve" smooth="yes"/>
			<point x="159" y="77" type="line"/>
			<point x="157" y="81" type="line"/>
			<point x="238" y="122"/>
			<point x="268" y="177"/>
			<point x="268" y="244" type="curve" smooth="yes"/>
			<point x="268" y="284"/>
			<point x="258" y="318"/>
			<point x="244" y="350" type="curve"/>
			<point x="412" y="350" type="line"/>
			<point x="412" y="371" type="line"/>
			<point x="234" y="371" type="line"/>
			<point x="209" y="427"/>
			<point x="177" y="482"/>
			<point x="177" y="563" type="curve" smooth="yes"/>
			<point x="177" y="658"/>
			<point x="221" y="726"/>
			<point x="312" y="726" type="curve" smooth="yes"/>
			<point x="356" y="726"/>
			<point x="401" y="710"/>
			<point x="432" y="680" type="curve"/>
			<point x="393" y="631"/>
			<point x="386" y="612"/>
			<point x="386" y="596" type="curve" smooth="yes"/>
			<point x="386" y="567"/>
			<point x="406" y="548"/>
			<point x="440" y="548" type="curve" smooth="yes"/>
			<point x="476" y="548"/>
			<point x="496" y="570"/>
			<point x="496" y="608" type="curve" smooth="yes"/>
			<point x="496" y="684"/>
			<point x="416" y="744"/>
			<point x="307" y="744" type="curve" smooth="yes"/>
			<point x="182" y="744"/>
			<point x="89" y="665"/>
			<point x="89" y="527" type="curve" smooth="yes"/>
			<point x="89" y="465"/>
			<point x="108" y="416"/>
			<point x="129" y="371" type="curve"/>
			<point x="33" y="371" type="line"/>
			<point x="30" y="350" type="line"/>
			<point x="139" y="350" type="line"/>
			<point x="162" y="301"/>
			<point x="185" y="255"/>
			<point x="185" y="199" type="curve" smooth="yes"/>
			<point x="185" y="109"/>
			<point x="127" y="72"/>
			<point x="50" y="41" type="curve"/>
		</contour>
	</outline>
</glyph>
<glyph name="yen" format="2">
	<unicode hex="00A5"/>
	<advance width="680"/>
	<outline>
		<contour>
			<point x="199" y="0" type="line"/>
			<point x="475" y="0" type="line"/>
			<point x="475" y="12" type="line"/>
			<point x="419" y="16" type="line" smooth="yes"/>
			<point x="393" y="18"/>
			<point x="387" y="29"/>
			<point x="387" y="63" type="curve" smooth="yes"/>
			<point x="387" y="250" type="line"/>
			<point x="580" y="250" type="line"/>
			<point x="580" y="271" type="line"/>
			<point x="387" y="271" type="line"/>
			<point x="387" y="332" type="line"/>
			<point x="410" y="372" type="line"/>
			<point x="580" y="372" type="line"/>
			<point x="580" y="395" type="line"/>
			<point x="423" y="395" type="line"/>
			<point x="570" y="655" type="line" smooth="yes"/>
			<point x="596" y="700"/>
			<point x="606" y="707"/>
			<point x="627" y="710" type="curve" smooth="yes"/>
			<point x="676" y="718" type="line"/>
			<point x="676" y="730" type="line"/>
			<point x="465" y="730" type="line"/>
			<point x="465" y="719" type="line"/>
			<point x="529" y="708" type="line" smooth="yes"/>
			<point x="560" y="703"/>
			<point x="562" y="686"/>
			<point x="546" y="657" type="curve" smooth="yes"/>
			<point x="382" y="367" type="line"/>
			<point x="377" y="367" type="line"/>
			<point x="209" y="661" type="line" smooth="yes"/>
			<point x="193" y="689"/>
			<point x="197" y="707"/>
			<point x="228" y="711" type="curve" smooth="yes"/>
			<point x="283" y="718" type="line"/>
			<point x="283" y="730" type="line"/>
			<point x="4" y="730" type="line"/>
			<point x="4" y="718" type="line"/>
			<point x="41" y="711" type="line" smooth="yes"/>
			<point x="68" y="706"/>
			<point x="80" y="693"/>
			<point x="101" y="657" type="curve" smooth="yes"/>
			<point x="252" y="395" type="line"/>
			<point x="104" y="395" type="line"/>
			<point x="101" y="374" type="line"/>
			<point x="264" y="374" type="line"/>
			<point x="288" y="332" type="line"/>
			<point x="288" y="271" type="line"/>
			<point x="101" y="271" type="line"/>
			<point x="98" y="250" type="line"/>
			<point x="288" y="250" type="line"/>
			<point x="288" y="67" type="line" smooth="yes"/>
			<point x="288" y="30"/>
			<point x="282" y="18"/>
			<point x="257" y="16" type="curve" smooth="yes"/>
			<point x="199" y="12" type="line"/>
		</contour>
	</outline>
	<anchor name="bottom" x="335" y="-30"/>
	<anchor name="top" x="366" y="730"/>
</glyph>
<glyph name="section" format="2">
	<unicode hex="00A7"/>
	<advance width="618"/>
	<outline>
		<contour>
			<point x="278" y="-156" type="curve" smooth="yes"/>
			<point x="389" y="-156"/>
			<point x="465" y="-92"/>
			<point x="465" y="1" type="curve" smooth="yes"/>
			<point x="465" y="26"/>
			<point x="458" y="53"/>
			<point x="447" y="79" type="curve"/>
			<point x="506" y="107"/>
			<point x="553" y="145"/>
			<point x="553" y="206" type="curve" smooth="yes"/>
			<point x="553" y="285"/>
			<point x="503" y="349"/>
			<point x="388" y="416" type="curve" smooth="yes"/>
			<point x="273" y="483"/>
			<point x="233" y="526"/>
			<point x="233" y="581" type="curve" smooth="yes"/>
			<point x="233" y="642"/>
			<point x="271" y="696"/>
			<point x="328" y="696" type="curve" smooth="yes"/>
			<point x="353" y="696"/>
			<point x="377" y="692"/>
			<point x="397" y="684" type="curve"/>
			<point x="376" y="650"/>
			<point x="351" y="613"/>
			<point x="351" y="589" type="curve" smooth="yes"/>
			<point x="351" y="565"/>
			<point x="372" y="550"/>
			<point x="406" y="550" type="curve" smooth="yes"/>
			<point x="441" y="550"/>
			<point x="468" y="580"/>
			<point x="468" y="618" type="curve" smooth="yes"/>
			<point x="468" y="675"/>
			<point x="410" y="714"/>
			<point x="326" y="714" type="curve" smooth="yes"/>
			<point x="225" y="714"/>
			<point x="153" y="649"/>
			<point x="153" y="558" type="curve" smooth="yes"/>
			<point x="153" y="533"/>
			<point x="161" y="498"/>
			<point x="170" y="480" type="curve"/>
			<point x="112" y="452"/>
			<point x="65" y="417"/>
			<point x="65" y="356" type="curve" smooth="yes"/>
			<point x="65" y="277"/>
			<point x="113" y="217"/>
			<point x="236" y="141" type="curve" smooth="yes"/>
			<point x="347" y="73"/>
			<point x="385" y="32"/>
			<point x="385" y="-17" type="curve" smooth="yes"/>
			<point x="385" y="-69"/>
			<point x="347" y="-138"/>
			<point x="276" y="-138" type="curve" smooth="yes"/>
			<point x="250" y="-138"/>
			<point x="226" y="-134"/>
			<point x="201" y="-124" type="curve"/>
			<point x="222" y="-90"/>
			<point x="247" y="-54"/>
			<point x="247" y="-30" type="curve" smooth="yes"/>
			<point x="247" y="-6"/>
			<point x="226" y="9"/>
			<point x="192" y="9" type="curve" smooth="yes"/>
			<point x="156" y="9"/>
			<point x="130" y="-20"/>
			<point x="130" y="-60" type="curve" smooth="yes"/>
			<point x="130" y="-119"/>
			<point x="188" y="-156"/>
		</contour>
		<contour>
			<point x="439" y="93" type="curve"/>
			<point x="406" y="139"/>
			<point x="355" y="180"/>
			<point x="277" y="225" type="curve" smooth="yes"/>
			<point x="186" y="280"/>
			<point x="147" y="325"/>
			<point x="147" y="376" type="curve" smooth="yes"/>
			<point x="147" y="409"/>
			<point x="153" y="440"/>
			<point x="179" y="466" type="curve"/>
			<point x="221" y="416"/>
			<point x="266" y="375"/>
			<point x="354" y="323" type="curve" smooth="yes"/>
			<point x="437" y="273"/>
			<point x="471" y="233"/>
			<point x="471" y="185" type="curve" smooth="yes"/>
			<point x="471" y="151"/>
			<point x="469" y="121"/>
		</contour>
	</outline>
</glyph>
<glyph name="dieresis" format="2">
	<unicode hex="00A8"/>
	<advance width="500"/>
	<outline>
		<contour>
			<point x="348" y="626" type="curve" smooth="yes"/>
			<point x="383" y="626"/>
			<point x="408" y="651"/>
			<point x="408" y="685" type="curve" smooth="yes"/>
			<point x="408" y="719"/>
			<point x="383" y="743"/>
			<point x="348" y="743" type="curve" smooth="yes"/>
			<point x="313" y="743"/>
			<point x="289" y="718"/>
			<point x="289" y="684" type="curve" smooth="yes"/>
			<point x="289" y="650"/>
			<point x="313" y="626"/>
		</contour>
		<contour>
			<point x="151" y="626" type="curve" smooth="yes"/>
			<point x="187" y="626"/>
			<point x="211" y="651"/>
			<point x="211" y="685" type="curve" smooth="yes"/>
			<point x="211" y="719"/>
			<point x="187" y="743"/>
			<point x="151" y="743" type="curve" smooth="yes"/>
			<point x="117" y="743"/>
			<point x="92" y="718"/>
			<point x="92" y="684" type="curve" smooth="yes"/>
			<point x="92" y="650"/>
			<point x="117" y="626"/>
		</contour>
	</outline>
	<anchor name="_top" x="250" y="550"/>
</glyph>
<glyph name="registered" format="2">
	<unicode hex="00AE"/>
	<advance width="487"/>
	<outline>
		<contour>
			<point x="243" y="404" type="curve" smooth="yes"/>
			<point x="351" y="404"/>
			<point x="427" y="478"/>
			<point x="427" y="586" type="curve" smooth="yes"/>
			<point x="427" y="692"/>
			<point x="356" y="762"/>
			<point x="244" y="762" type="curve" smooth="yes"/>
			<point x="142" y="762"/>
			<point x="60" y="692"/>
			<point x="60" y="579" type="curve" smooth="yes"/>
			<point x="60" y="479"/>
			<point x="122" y="404"/>
		</contour>
		<contour>
			<point x="327" y="465" type="curve" smooth="yes"/>
			<point x="300" y="465"/>
			<point x="290" y="479"/>
			<point x="280" y="503" type="curve" smooth="yes"/>
			<point x="268" y="535" type="line" smooth="yes"/>
			<point x="257" y="564"/>
			<point x="246" y="580"/>
			<point x="228" y="580" type="curve" smooth="yes"/>
			<point x="214" y="580" type="line"/>
			<point x="214" y="498" type="line" smooth="yes"/>
			<point x="214" y="486"/>
			<point x="216" y="481"/>
			<point x="227" y="480" type="curve" smooth="yes"/>
			<point x="249" y="478" type="line"/>
			<point x="249" y="469" type="line"/>
			<point x="142" y="469" type="line"/>
			<point x="142" y="478" type="line"/>
			<point x="163" y="480" type="line" smooth="yes"/>
			<point x="174" y="481"/>
			<point x="176" y="488"/>
			<point x="176" y="498" type="curve" smooth="yes"/>
			<point x="176" y="676" type="line" smooth="yes"/>
			<point x="176" y="686"/>
			<point x="174" y="692"/>
			<point x="163" y="693" type="curve" smooth="yes"/>
			<point x="146" y="695" type="line"/>
			<point x="148" y="703" type="line"/>
			<point x="233" y="703" type="line" smooth="yes"/>
			<point x="283" y="703"/>
			<point x="327" y="688"/>
			<point x="327" y="643" type="curve" smooth="yes"/>
			<point x="327" y="602"/>
			<point x="288" y="588"/>
			<point x="262" y="584" type="curve"/>
			<point x="262" y="583" type="line"/>
			<point x="294" y="576"/>
			<point x="303" y="553"/>
			<point x="311" y="532" type="curve" smooth="yes"/>
			<point x="323" y="499" type="line" smooth="yes"/>
			<point x="328" y="485"/>
			<point x="336" y="478"/>
			<point x="346" y="478" type="curve" smooth="yes"/>
			<point x="352" y="478"/>
			<point x="355" y="478"/>
			<point x="360" y="479" type="curve"/>
			<point x="360" y="471" type="line"/>
			<point x="353" y="467"/>
			<point x="339" y="465"/>
		</contour>
		<contour>
			<point x="214" y="590" type="line"/>
			<point x="232" y="590" type="line" smooth="yes"/>
			<point x="271" y="590"/>
			<point x="287" y="607"/>
			<point x="287" y="643" type="curve" smooth="yes"/>
			<point x="287" y="681"/>
			<point x="263" y="694"/>
			<point x="231" y="694" type="curve" smooth="yes"/>
			<point x="214" y="694" type="line"/>
		</contour>
	</outline>
</glyph>
<glyph name="twosuperior" format="2">
	<unicode hex="00B2"/>
	<advance width="389"/>
	<outline>
		<contour>
			<point x="40" y="374" type="line"/>
			<point x="339" y="374" type="line"/>
			<point x="354" y="522" type="line"/>
			<point x="342" y="522" type="line"/>
			<point x="329" y="458"/>
			<point x="318" y="442"/>
			<point x="286" y="442" type="curve" smooth="yes"/>
			<point x="83" y="442" type="line"/>
			<point x="227" y="565"/>
			<point x="341" y="634"/>
			<point x="341" y="727" type="curve" smooth="yes"/>
			<point x="341" y="794"/>
			<point x="293" y="839"/>
			<point x="185" y="839" type="curve" smooth="yes"/>
			<point x="96" y="839"/>
			<point x="25" y="799"/>
			<point x="25" y="741" type="curve" smooth="yes"/>
			<point x="25" y="713"/>
			<point x="41" y="689"/>
			<point x="79" y="689" type="curve" smooth="yes"/>
			<point x="109" y="689"/>
			<point x="124" y="709"/>
			<point x="124" y="727" type="curve" smooth="yes"/>
			<point x="124" y="748"/>
			<point x="103" y="782"/>
			<point x="89" y="805" type="curve"/>
			<point x="116" y="818"/>
			<point x="138" y="824"/>
			<point x="163" y="824" type="curve" smooth="yes"/>
			<point x="220" y="824"/>
			<point x="251" y="783"/>
			<point x="251" y="720" type="curve" smooth="yes"/>
			<point x="251" y="654"/>
			<point x="244" y="605"/>
			<point x="33" y="424" type="curve"/>
		</contour>
	</outline>
</glyph>
<glyph name="threesuperior" format="2">
	<unicode hex="00B3"/>
	<advance width="397"/>
	<outline>
		<contour>
			<point x="187" y="362" type="curve" smooth="yes"/>
			<point x="274" y="362"/>
			<point x="357" y="415"/>
			<point x="357" y="498" type="curve" smooth="yes"/>
			<point x="357" y="569"/>
			<point x="306" y="605"/>
			<point x="221" y="612" type="curve"/>
			<point x="221" y="614" type="line"/>
			<point x="296" y="629"/>
			<point x="339" y="671"/>
			<point x="339" y="730" type="curve" smooth="yes"/>
			<point x="339" y="798"/>
			<point x="272" y="839"/>
			<point x="184" y="839" type="curve" smooth="yes"/>
			<point x="91" y="839"/>
			<point x="28" y="791"/>
			<point x="28" y="740" type="curve" smooth="yes"/>
			<point x="28" y="712"/>
			<point x="45" y="690"/>
			<point x="81" y="690" type="curve" smooth="yes"/>
			<point x="110" y="690"/>
			<point x="125" y="708"/>
			<point x="125" y="728" type="curve" smooth="yes"/>
			<point x="125" y="745"/>
			<point x="97" y="779"/>
			<point x="84" y="798" type="curve"/>
			<point x="106" y="813"/>
			<point x="138" y="824"/>
			<point x="171" y="824" type="curve" smooth="yes"/>
			<point x="227" y="824"/>
			<point x="257" y="791"/>
			<point x="257" y="724" type="curve" smooth="yes"/>
			<point x="257" y="645"/>
			<point x="219" y="621"/>
			<point x="147" y="614" type="curve"/>
			<point x="146" y="600" type="line"/>
			<point x="230" y="603"/>
			<point x="267" y="584"/>
			<point x="267" y="500" type="curve" smooth="yes"/>
			<point x="267" y="415"/>
			<point x="230" y="379"/>
			<point x="172" y="379" type="curve" smooth="yes"/>
			<point x="100" y="379"/>
			<point x="59" y="421"/>
			<point x="37" y="465" type="curve"/>
			<point x="25" y="457" type="line"/>
			<point x="42" y="427"/>
			<point x="74" y="362"/>
		</contour>
	</outline>
</glyph>
<glyph name="acute" format="2">
	<unicode hex="00B4"/>
	<advance width="500"/>
	<outline>
		<contour>
			<point x="195" y="585" type="line"/>
			<point x="319" y="680" type="line" smooth="yes"/>
			<point x="337" y="694"/>
			<point x="354" y="711"/>
			<point x="354" y="731" type="curve" smooth="yes"/>
			<point x="354" y="753"/>
			<point x="341" y="775"/>
			<point x="314" y="775" type="curve" smooth="yes"/>
			<point x="300" y="775"/>
			<point x="287" y="767"/>
			<point x="275" y="746" type="curve" smooth="yes"/>
			<point x="187" y="593" type="line"/>
		</contour>
	</outline>
	<anchor name="_top" x="250" y="550"/>
</glyph>
<glyph name="paragraph" format="2">
	<unicode hex="00B6"/>
	<advance width="561"/>
	<outline>
		<contour>
			<point x="242" y="-114" type="line"/>
			<point x="434" y="-114" type="line"/>
			<point x="434" y="662" type="line" smooth="yes"/>
			<point x="434" y="694"/>
			<point x="441" y="709"/>
			<point x="466" y="712" type="curve" smooth="yes"/>
			<point x="516" y="718" type="line"/>
			<point x="516" y="730" type="line"/>
			<point x="354" y="730" type="line"/>
			<point x="354" y="-46" type="line" smooth="yes"/>
			<point x="354" y="-78"/>
			<point x="347" y="-93"/>
			<point x="322" y="-95" type="curve" smooth="yes"/>
			<point x="242" y="-102" type="line"/>
		</contour>
		<contour>
			<point x="275" y="268" type="curve" smooth="yes"/>
			<point x="291" y="268" type="line"/>
			<point x="291" y="730" type="line"/>
			<point x="279" y="730" type="line" smooth="yes"/>
			<point x="143" y="730"/>
			<point x="70" y="645"/>
			<point x="70" y="498" type="curve" smooth="yes"/>
			<point x="70" y="352"/>
			<point x="151" y="268"/>
		</contour>
	</outline>
</glyph>
<glyph name="ordmasculine" format="2">
	<unicode hex="00BA"/>
	<advance width="427"/>
	<outline>
		<contour>
			<point x="210" y="362" type="curve" smooth="yes"/>
			<point x="317" y="362"/>
			<point x="392" y="432"/>
			<point x="392" y="562" type="curve" smooth="yes"/>
			<point x="392" y="683"/>
			<point x="319" y="742"/>
			<point x="221" y="742" type="curve" smooth="yes"/>
			<point x="123" y="742"/>
			<point x="35" y="688"/>
			<point x="35" y="544" type="curve" smooth="yes"/>
			<point x="35" y="439"/>
			<point x="93" y="362"/>
		</contour>
		<contour>
			<point x="221" y="380" type="curve" smooth="yes"/>
			<point x="150" y="380"/>
			<point x="114" y="449"/>
			<point x="114" y="566" type="curve" smooth="yes"/>
			<point x="114" y="677"/>
			<point x="152" y="726"/>
			<point x="209" y="726" type="curve" smooth="yes"/>
			<point x="273" y="726"/>
			<point x="312" y="659"/>
			<point x="312" y="545" type="curve" smooth="yes"/>
			<point x="312" y="438"/>
			<point x="280" y="380"/>
		</contour>
	</outline>
</glyph>
<glyph name="Oslash" format="2">
	<unicode hex="00D8"/>
	<advance width="751"/>
	<outline>
		<contour>
			<point x="77" y="-14" type="line"/>
			<point x="107" y="-14" type="line"/>
			<point x="163" y="61" type="line"/>
			<point x="217" y="12"/>
			<point x="288" y="-14"/>
			<point x="374" y="-14" type="curve" smooth="yes"/>
			<point x="572" y="-14"/>
			<point x="698" y="140"/>
			<point x="698" y="383" type="curve" smooth="yes"/>
			<point x="698" y="499"/>
			<point x="665" y="592"/>
			<point x="606" y="655" type="curve"/>
			<point x="673" y="744" type="line"/>
			<point x="643" y="744" type="line"/>
			<point x="589" y="672" type="line"/>
			<point x="536" y="718"/>
			<point x="466" y="744"/>
			<point x="383" y="744" type="curve" smooth="yes"/>
			<point x="177" y="744"/>
			<point x="53" y="597"/>
			<point x="53" y="351" type="curve" smooth="yes"/>
			<point x="53" y="235"/>
			<point x="86" y="141"/>
			<point x="145" y="78" type="curve"/>
		</contour>
		<contour>
			<point x="388" y="3" type="curve" smooth="yes"/>
			<point x="307" y="3"/>
			<point x="245" y="41"/>
			<point x="206" y="118" type="curve"/>
			<point x="557" y="589" type="line"/>
			<point x="578" y="531"/>
			<point x="589" y="456"/>
			<point x="589" y="361" type="curve" smooth="yes"/>
			<point x="589" y="103"/>
			<point x="526" y="3"/>
		</contour>
		<contour>
			<point x="195" y="144" type="line"/>
			<point x="171" y="202"/>
			<point x="159" y="279"/>
			<point x="159" y="375" type="curve" smooth="yes"/>
			<point x="159" y="627"/>
			<point x="229" y="730"/>
			<point x="368" y="730" type="curve" smooth="yes"/>
			<point x="449" y="730"/>
			<point x="509" y="693"/>
			<point x="546" y="614" type="curve"/>
		</contour>
	</outline>
	<anchor name="bottom" x="375" y="-30"/>
	<anchor name="top" x="378" y="730"/>
</glyph>
<glyph name="Thorn" format="2">
	<unicode hex="00DE"/>
	<advance width="606"/>
	<outline>
		<contour>
			<point x="59" y="0" type="line"/>
			<point x="354" y="0" type="line"/>
			<point x="354" y="12" type="line"/>
			<point x="284" y="15" type="line" smooth="yes"/>
			<point x="255" y="16"/>
			<point x="247" y="30"/>
			<point x="247" y="65" type="curve" smooth="yes"/>
			<point x="247" y="173" type="line"/>
			<point x="257" y="170"/>
			<point x="290" y="168"/>
			<point x="326" y="168" type="curve" smooth="yes"/>
			<point x="474" y="168"/>
			<point x="574" y="236"/>
			<point x="574" y="372" type="curve" smooth="yes"/>
			<point x="574" y="494"/>
			<point x="485" y="557"/>
			<point x="305" y="557" type="curve" smooth="yes"/>
			<point x="247" y="557" type="line"/>
			<point x="247" y="665" type="line" smooth="yes"/>
			<point x="247" y="701"/>
			<point x="255" y="714"/>
			<point x="284" y="715" type="curve" smooth="yes"/>
			<point x="354" y="718" type="line"/>
			<point x="354" y="730" type="line"/>
			<point x="59" y="730" type="line"/>
			<point x="59" y="718" type="line"/>
			<point x="117" y="714" type="line" smooth="yes"/>
			<point x="142" y="712"/>
			<point x="148" y="700"/>
			<point x="148" y="663" type="curve" smooth="yes"/>
			<point x="148" y="67" type="line" smooth="yes"/>
			<point x="148" y="30"/>
			<point x="142" y="18"/>
			<point x="117" y="16" type="curve" smooth="yes"/>
			<point x="59" y="12" type="line"/>
		</contour>
		<contour>
			<point x="247" y="189" type="curve"/>
			<point x="247" y="541" type="line"/>
			<point x="298" y="541" type="line" smooth="yes"/>
			<point x="415" y="541"/>
			<point x="467" y="496"/>
			<point x="467" y="369" type="curve" smooth="yes"/>
			<point x="467" y="246"/>
			<point x="412" y="184"/>
			<point x="305" y="184" type="curve" smooth="yes"/>
			<point x="281" y="184"/>
			<point x="257" y="186"/>
		</contour>
	</outline>
</glyph>
<glyph name="germandbls" format="2">
	<unicode hex="00DF"/>
	<advance width="681"/>
	<outline>
		<contour>
			<point x="302" y="-14" type="line"/>
			<point x="314" y="-13" type="line"/>
			<point x="326" y="32" type="line"/>
			<point x="364" y="0"/>
			<point x="415" y="-14"/>
			<point x="470" y="-14" type="curve" smooth="yes"/>
			<point x="589" y="-14"/>
			<point x="646" y="67"/>
			<point x="646" y="152" type="curve" smooth="yes"/>
			<point x="646" y="327"/>
			<point x="411" y="317"/>
			<point x="411" y="431" type="curve" smooth="yes"/>
			<point x="411" y="519"/>
			<point x="537" y="553"/>
			<point x="537" y="659" type="curve" smooth="yes"/>
			<point x="537" y="750"/>
			<point x="447" y="782"/>
			<point x="354" y="782" type="curve" smooth="yes"/>
			<point x="210" y="782"/>
			<point x="123" y="690"/>
			<point x="123" y="545" type="curve" smooth="yes"/>
			<point x="123" y="513" type="line"/>
			<point x="43" y="506" type="line"/>
			<point x="43" y="496" type="line"/>
			<point x="123" y="496" type="line"/>
			<point x="123" y="67" type="line" smooth="yes"/>
			<point x="123" y="38"/>
			<point x="122" y="20"/>
			<point x="93" y="17" type="curve" smooth="yes"/>
			<point x="35" y="11" type="line"/>
			<point x="35" y="0" type="line"/>
			<point x="216" y="0" type="line"/>
			<point x="216" y="599" type="line" smooth="yes"/>
			<point x="216" y="732"/>
			<point x="280" y="767"/>
			<point x="352" y="767" type="curve" smooth="yes"/>
			<point x="404" y="767"/>
			<point x="457" y="750"/>
			<point x="457" y="651" type="curve" smooth="yes"/>
			<point x="457" y="473"/>
			<point x="335" y="480"/>
			<point x="335" y="371" type="curve" smooth="yes"/>
			<point x="335" y="234"/>
			<point x="579" y="241"/>
			<point x="579" y="114" type="curve" smooth="yes"/>
			<point x="579" y="36"/>
			<point x="524" y="6"/>
			<point x="470" y="6" type="curve" smooth="yes"/>
			<point x="419" y="6"/>
			<point x="338" y="16"/>
			<point x="303" y="167" type="curve"/>
			<point x="289" y="166" type="line"/>
		</contour>
	</outline>
</glyph>
<glyph name="ccedilla" format="2">
	<unicode hex="00E7"/>
	<advance width="494"/>
	<outline>
		<contour>
			<point x="272" y="-220" type="curve" smooth="yes"/>
			<point x="342" y="-220"/>
			<point x="379" y="-182"/>
			<point x="379" y="-139" type="curve" smooth="yes"/>
			<point x="379" y="-86"/>
			<point x="338" y="-53"/>
			<point x="256" y="-63" type="curve"/>
			<point x="275" y="-14" type="line"/>
			<point x="357" y="-12"/>
			<point x="414" y="29"/>
			<point x="459" y="107" type="curve"/>
			<point x="450" y="114" type="line"/>
			<point x="416" y="80"/>
			<point x="370" y="54"/>
			<point x="302" y="54" type="curve" smooth="yes"/>
			<point x="207" y="54"/>
			<point x="147" y="128"/>
			<point x="147" y="278" type="curve" smooth="yes"/>
			<point x="147" y="443"/>
			<point x="208" y="510"/>
			<point x="290" y="510" type="curve" smooth="yes"/>
			<point x="328" y="510"/>
			<point x="356" y="501"/>
			<point x="382" y="481" type="curve"/>
			<point x="355" y="435"/>
			<point x="340" y="413"/>
			<point x="340" y="393" type="curve" smooth="yes"/>
			<point x="340" y="363"/>
			<point x="359" y="344"/>
			<point x="396" y="344" type="curve" smooth="yes"/>
			<point x="436" y="344"/>
			<point x="454" y="369"/>
			<point x="454" y="409" type="curve" smooth="yes"/>
			<point x="454" y="471"/>
			<point x="388" y="527"/>
			<point x="289" y="527" type="curve" smooth="yes"/>
			<point x="148" y="527"/>
			<point x="48" y="423"/>
			<point x="48" y="247" type="curve" smooth="yes"/>
			<point x="48" y="82"/>
			<point x="135" y="-8"/>
			<point x="256" y="-14" type="curve"/>
			<point x="230" y="-80" type="line"/>
			<point x="234" y="-90" type="line"/>
			<point x="243" y="-87"/>
			<point x="250" y="-86"/>
			<point x="262" y="-86" type="curve" smooth="yes"/>
			<point x="292" y="-86"/>
			<point x="310" y="-102"/>
			<point x="310" y="-131" type="curve" smooth="yes"/>
			<point x="310" y="-170"/>
			<point x="280" y="-194"/>
			<point x="243" y="-194" type="curve" smooth="yes"/>
			<point x="214" y="-194"/>
			<point x="196" y="-182"/>
			<point x="178" y="-168" type="curve"/>
			<point x="169" y="-180" type="line"/>
			<point x="191" y="-202"/>
			<point x="221" y="-220"/>
		</contour>
	</outline>
	<anchor name="bottom" x="275" y="-30"/>
	<anchor name="top" x="277" y="550"/>
</glyph>
<glyph name="eth" format="2">
	<unicode hex="00F0"/>
	<advance width="574"/>
	<outline>
		<contour>
			<point x="278" y="-14" type="curve" smooth="yes"/>
			<point x="451" y="-14"/>
			<point x="527" y="121"/>
			<point x="527" y="348" type="curve" smooth="yes"/>
			<point x="527" y="528"/>
			<point x="455" y="621"/>
			<point x="379" y="691" type="curve"/>
			<point x="475" y="764" type="line"/>
			<point x="467" y="780" type="line"/>
			<point x="365" y="701" type="line"/>
			<point x="310" y="742"/>
			<point x="229" y="766"/>
			<point x="151" y="771" type="curve"/>
			<point x="148" y="754" type="line"/>
			<point x="228" y="746"/>
			<point x="289" y="712"/>
			<point x="330" y="675" type="curve"/>
			<point x="230" y="601" type="line"/>
			<point x="239" y="585" type="line"/>
			<point x="342" y="664" type="line"/>
			<point x="394" y="612"/>
			<point x="427" y="495"/>
			<point x="437" y="412" type="curve"/>
			<point x="434" y="412" type="line"/>
			<point x="401" y="464"/>
			<point x="339" y="496"/>
			<point x="273" y="496" type="curve" smooth="yes"/>
			<point x="166" y="496"/>
			<point x="48" y="421"/>
			<point x="48" y="241" type="curve" smooth="yes"/>
			<point x="48" y="81"/>
			<point x="138" y="-14"/>
		</contour>
		<contour>
			<point x="294" y="4" type="curve" smooth="yes"/>
			<point x="202" y="4"/>
			<point x="151" y="94"/>
			<point x="151" y="244" type="curve" smooth="yes"/>
			<point x="151" y="395"/>
			<point x="213" y="475"/>
			<point x="289" y="475" type="curve" smooth="yes"/>
			<point x="339" y="475"/>
			<point x="378" y="447"/>
			<point x="401" y="403" type="curve" smooth="yes"/>
			<point x="423" y="361"/>
			<point x="429" y="306"/>
			<point x="429" y="247" type="curve" smooth="yes"/>
			<point x="429" y="104"/>
			<point x="381" y="4"/>
		</contour>
	</outline>
</glyph>
<glyph name="divide" format="2">
	<unicode hex="00F7"/>
	<advance width="582"/>
	<outline>
		<contour>
			<point x="77" y="295" type="line"/>
			<point x="505" y="295" type="line"/>
			<point x="505" y="318" type="line"/>
			<point x="77" y="318" type="line"/>
		</contour>
		<contour>
			<point x="290" y="99" type="curve" smooth="yes"/>
			<point x="323" y="99"/>
			<point x="350" y="124"/>
			<point x="350" y="156" type="curve" smooth="yes"/>
			<point x="350" y="187"/>
			<point x="323" y="211"/>
			<point x="290" y="211" type="curve" smooth="yes"/>
			<point x="258" y="211"/>
			<point x="231" y="187"/>
			<point x="231" y="155" type="curve" smooth="yes"/>
			<point x="231" y="123"/>
			<point x="258" y="99"/>
		</contour>
		<contour>
			<point x="290" y="398" type="curve" smooth="yes"/>
			<point x="323" y="398"/>
			<point x="350" y="422"/>
			<point x="350" y="454" type="curve" smooth="yes"/>
			<point x="350" y="486"/>
			<point x="323" y="510"/>
			<point x="290" y="510" type="curve" smooth="yes"/>
			<point x="258" y="510"/>
			<point x="231" y="485"/>
			<point x="231" y="453" type="curve" smooth="yes"/>
			<point x="231" y="422"/>
			<point x="258" y="398"/>
		</contour>
	</outline>
</glyph>
<glyph name="aogonek" format="2">
	<unicode hex="0105"/>
	<advance width="529"/>
	<outline>
		<contour>
			<point x="418" y="-230" type="curve" smooth="yes"/>
			<point x="448" y="-230"/>
			<point x="489" y="-219"/>
			<point x="518" y="-166" type="curve"/>
			<point x="510" y="-161" type="line"/>
			<point x="494" y="-176"/>
			<point x="476" y="-183"/>
			<point x="460" y="-183" type="curve" smooth="yes"/>
			<point x="435" y="-183"/>
			<point x="417" y="-168"/>
			<point x="417" y="-126" type="curve" smooth="yes"/>
			<point x="417" y="-50"/>
			<point x="474" y="-8"/>
			<point x="529" y="33" type="curve"/>
			<point x="524" y="40" type="line"/>
			<point x="507" y="31"/>
			<point x="489" y="26"/>
			<point x="473" y="26" type="curve" smooth="yes"/>
			<point x="447" y="26"/>
			<point x="429" y="40"/>
			<point x="429" y="77" type="curve" smooth="yes"/>
			<point x="429" y="347" type="line" smooth="yes"/>
			<point x="429" y="469"/>
			<point x="370" y="527"/>
			<point x="244" y="527" type="curve" smooth="yes"/>
			<point x="145" y="527"/>
			<point x="57" y="465"/>
			<point x="57" y="401" type="curve" smooth="yes"/>
			<point x="57" y="367"/>
			<point x="76" y="348"/>
			<point x="112" y="348" type="curve" smooth="yes"/>
			<point x="147" y="348"/>
			<point x="167" y="369"/>
			<point x="167" y="392" type="curve" smooth="yes"/>
			<point x="167" y="409"/>
			<point x="155" y="434"/>
			<point x="120" y="474" type="curve"/>
			<point x="143" y="496"/>
			<point x="190" y="512"/>
			<point x="236" y="512" type="curve" smooth="yes"/>
			<point x="306" y="512"/>
			<point x="336" y="480"/>
			<point x="336" y="398" type="curve" smooth="yes"/>
			<point x="336" y="276" type="line"/>
			<point x="123" y="267"/>
			<point x="55" y="221"/>
			<point x="55" y="121" type="curve" smooth="yes"/>
			<point x="55" y="36"/>
			<point x="106" y="-14"/>
			<point x="194" y="-14" type="curve" smooth="yes"/>
			<point x="261" y="-14"/>
			<point x="307" y="10"/>
			<point x="341" y="84" type="curve"/>
			<point x="347" y="11"/>
			<point x="376" y="-14"/>
			<point x="445" y="-14" type="curve"/>
			<point x="387" y="-52"/>
			<point x="337" y="-101"/>
			<point x="337" y="-155" type="curve" smooth="yes"/>
			<point x="337" y="-195"/>
			<point x="364" y="-230"/>
		</contour>
		<contour>
			<point x="236" y="25" type="curve" smooth="yes"/>
			<point x="181" y="25"/>
			<point x="152" y="64"/>
			<point x="152" y="132" type="curve" smooth="yes"/>
			<point x="152" y="230"/>
			<point x="202" y="259"/>
			<point x="336" y="262" type="curve"/>
			<point x="336" y="138" type="line" smooth="yes"/>
			<point x="336" y="71"/>
			<point x="295" y="25"/>
		</contour>
	</outline>
	<anchor name="bottom" x="261" y="-30"/>
	<anchor name="top" x="243" y="550"/>
</glyph>
<glyph name="dcroat" format="2">
	<unicode hex="0111"/>
	<advance width="618"/>
	<outline>
		<contour>
			<point x="256" y="-14" type="curve" smooth="yes"/>
			<point x="329" y="-14"/>
			<point x="385" y="14"/>
			<point x="418" y="80" type="curve"/>
			<point x="420" y="80" type="line"/>
			<point x="428" y="-9" type="line"/>
			<point x="593" y="0" type="line"/>
			<point x="593" y="12" type="line"/>
			<point x="544" y="15" type="line" smooth="yes"/>
			<point x="517" y="17"/>
			<point x="511" y="28"/>
			<point x="511" y="60" type="curve" smooth="yes"/>
			<point x="511" y="619" type="line"/>
			<point x="599" y="619" type="line"/>
			<point x="599" y="644" type="line"/>
			<point x="511" y="644" type="line"/>
			<point x="511" y="761" type="line"/>
			<point x="504" y="766" type="line"/>
			<point x="325" y="761" type="line"/>
			<point x="324" y="751" type="line"/>
			<point x="375" y="748" type="line" smooth="yes"/>
			<point x="412" y="746"/>
			<point x="418" y="736"/>
			<point x="418" y="691" type="curve" smooth="yes"/>
			<point x="418" y="644" type="line"/>
			<point x="271" y="644" type="line"/>
			<point x="266" y="619" type="line"/>
			<point x="418" y="619" type="line"/>
			<point x="418" y="494" type="line"/>
			<point x="387" y="514"/>
			<point x="339" y="527"/>
			<point x="293" y="527" type="curve" smooth="yes"/>
			<point x="143" y="527"/>
			<point x="52" y="420"/>
			<point x="52" y="241" type="curve" smooth="yes"/>
			<point x="52" y="70"/>
			<point x="126" y="-14"/>
		</contour>
		<contour>
			<point x="285" y="21" type="curve" smooth="yes"/>
			<point x="199" y="21"/>
			<point x="151" y="87"/>
			<point x="151" y="255" type="curve" smooth="yes"/>
			<point x="151" y="440"/>
			<point x="194" y="510"/>
			<point x="289" y="510" type="curve" smooth="yes"/>
			<point x="338" y="510"/>
			<point x="385" y="489"/>
			<point x="418" y="460" type="curve"/>
			<point x="418" y="156" type="line" smooth="yes"/>
			<point x="418" y="65"/>
			<point x="364" y="21"/>
		</contour>
	</outline>
	<anchor name="bottom" x="312" y="-30"/>
	<anchor name="top" x="292" y="550"/>
</glyph>
<glyph name="Eogonek" format="2">
	<unicode hex="0118"/>
	<advance width="601"/>
	<outline>
		<contour>
			<point x="436" y="-230" type="curve" smooth="yes"/>
			<point x="466" y="-230"/>
			<point x="507" y="-220"/>
			<point x="536" y="-166" type="curve"/>
			<point x="528" y="-161" type="line"/>
			<point x="512" y="-176"/>
			<point x="494" y="-183"/>
			<point x="478" y="-183" type="curve" smooth="yes"/>
			<point x="453" y="-183"/>
			<point x="435" y="-168"/>
			<point x="435" y="-126" type="curve" smooth="yes"/>
			<point x="435" y="-83"/>
			<point x="460" y="-46"/>
			<point x="535" y="0" type="curve"/>
			<point x="551" y="173" type="line"/>
			<point x="538" y="173" type="line"/>
			<point x="500" y="47"/>
			<point x="472" y="16"/>
			<point x="374" y="16" type="curve" smooth="yes"/>
			<point x="247" y="16" type="line"/>
			<point x="247" y="366" type="line"/>
			<point x="342" y="366" type="line" smooth="yes"/>
			<point x="409" y="366"/>
			<point x="423" y="349"/>
			<point x="440" y="272" type="curve"/>
			<point x="454" y="274" type="line"/>
			<point x="454" y="478" type="line"/>
			<point x="440" y="476" type="line"/>
			<point x="419" y="395"/>
			<point x="408" y="382"/>
			<point x="342" y="382" type="curve" smooth="yes"/>
			<point x="247" y="382" type="line"/>
			<point x="247" y="714" type="line"/>
			<point x="345" y="714" type="line" smooth="yes"/>
			<point x="451" y="714"/>
			<point x="483" y="682"/>
			<point x="523" y="564" type="curve"/>
			<point x="536" y="567" type="line"/>
			<point x="508" y="730" type="line"/>
			<point x="59" y="730" type="line"/>
			<point x="59" y="718" type="line"/>
			<point x="115" y="715" type="line" smooth="yes"/>
			<point x="142" y="714"/>
			<point x="148" y="701"/>
			<point x="148" y="668" type="curve" smooth="yes"/>
			<point x="148" y="67" type="line" smooth="yes"/>
			<point x="148" y="30"/>
			<point x="142" y="18"/>
			<point x="117" y="16" type="curve" smooth="yes"/>
			<point x="59" y="12" type="line"/>
			<point x="59" y="0" type="line"/>
			<point x="510" y="0" type="line"/>
			<point x="424" y="-41"/>
			<point x="355" y="-93"/>
			<point x="355" y="-155" type="curve" smooth="yes"/>
			<point x="355" y="-195"/>
			<point x="382" y="-230"/>
		</contour>
	</outline>
	<anchor name="bottom" x="341" y="-30"/>
	<anchor name="top" x="311" y="730"/>
</glyph>
<glyph name="eogonek" format="2">
	<unicode hex="0119"/>
	<advance width="509"/>
	<outline>
		<contour>
			<point x="311" y="-230" type="curve" smooth="yes"/>
			<point x="341" y="-230"/>
			<point x="382" y="-220"/>
			<point x="411" y="-166" type="curve"/>
			<point x="403" y="-161" type="line"/>
			<point x="387" y="-176"/>
			<point x="369" y="-183"/>
			<point x="353" y="-183" type="curve" smooth="yes"/>
			<point x="328" y="-183"/>
			<point x="310" y="-168"/>
			<point x="310" y="-127" type="curve" smooth="yes"/>
			<point x="310" y="-80"/>
			<point x="326" y="-40"/>
			<point x="391" y="21" type="curve"/>
			<point x="420" y="41"/>
			<point x="447" y="71"/>
			<point x="471" y="113" type="curve"/>
			<point x="462" y="120" type="line"/>
			<point x="409" y="66"/>
			<point x="361" y="54"/>
			<point x="304" y="54" type="curve" smooth="yes"/>
			<point x="210" y="54"/>
			<point x="140" y="121"/>
			<point x="147" y="291" type="curve"/>
			<point x="464" y="291" type="line"/>
			<point x="466" y="310"/>
			<point x="467" y="326"/>
			<point x="467" y="348" type="curve" smooth="yes"/>
			<point x="467" y="456"/>
			<point x="398" y="527"/>
			<point x="288" y="527" type="curve" smooth="yes"/>
			<point x="143" y="527"/>
			<point x="48" y="428"/>
			<point x="48" y="245" type="curve" smooth="yes"/>
			<point x="48" y="75"/>
			<point x="138" y="-14"/>
			<point x="272" y="-14" type="curve" smooth="yes"/>
			<point x="296" y="-14"/>
			<point x="319" y="-11"/>
			<point x="340" y="-4" type="curve"/>
			<point x="279" y="-50"/>
			<point x="230" y="-101"/>
			<point x="230" y="-155" type="curve" smooth="yes"/>
			<point x="230" y="-195"/>
			<point x="257" y="-230"/>
		</contour>
		<contour>
			<point x="148" y="307" type="line"/>
			<point x="158" y="459"/>
			<point x="201" y="512"/>
			<point x="279" y="512" type="curve" smooth="yes"/>
			<point x="343" y="512"/>
			<point x="372" y="473"/>
			<point x="372" y="352" type="curve" smooth="yes"/>
			<point x="372" y="334"/>
			<point x="371" y="319"/>
			<point x="370" y="307" type="curve"/>
		</contour>
	</outline>
	<anchor name="bottom" x="281" y="-30"/>
	<anchor name="top" x="272" y="550"/>
</glyph>
<glyph name="hbar" format="2">
	<unicode hex="0127"/>
	<advance width="634"/>
	<outline>
		<contour>
			<point x="43" y="0" type="line"/>
			<point x="288" y="0" type="line"/>
			<point x="288" y="11" type="line"/>
			<point x="235" y="19" type="line" smooth="yes"/>
			<point x="215" y="22"/>
			<point x="210" y="32"/>
			<point x="210" y="62" type="curve" smooth="yes"/>
			<point x="210" y="351" type="line" smooth="yes"/>
			<point x="210" y="435"/>
			<point x="266" y="489"/>
			<point x="341" y="489" type="curve" smooth="yes"/>
			<point x="417" y="489"/>
			<point x="438" y="454"/>
			<point x="438" y="360" type="curve" smooth="yes"/>
			<point x="438" y="58" type="line" smooth="yes"/>
			<point x="438" y="28"/>
			<point x="433" y="19"/>
			<point x="408" y="16" type="curve" smooth="yes"/>
			<point x="364" y="11" type="line"/>
			<point x="364" y="0" type="line"/>
			<point x="609" y="0" type="line"/>
			<point x="609" y="12" type="line"/>
			<point x="562" y="17" type="line" smooth="yes"/>
			<point x="536" y="20"/>
			<point x="531" y="28"/>
			<point x="531" y="58" type="curve" smooth="yes"/>
			<point x="531" y="356" type="line" smooth="yes"/>
			<point x="531" y="467"/>
			<point x="478" y="527"/>
			<point x="377" y="527" type="curve" smooth="yes"/>
			<point x="306" y="527"/>
			<point x="242" y="491"/>
			<point x="211" y="421" type="curve"/>
			<point x="210" y="421" type="line"/>
			<point x="210" y="619" type="line"/>
			<point x="350" y="619" type="line"/>
			<point x="350" y="644" type="line"/>
			<point x="210" y="644" type="line"/>
			<point x="210" y="761" type="line"/>
			<point x="203" y="766" type="line"/>
			<point x="34" y="761" type="line"/>
			<point x="33" y="751" type="line"/>
			<point x="83" y="747" type="line" smooth="yes"/>
			<point x="112" y="745"/>
			<point x="117" y="733"/>
			<point x="117" y="685" type="curve" smooth="yes"/>
			<point x="117" y="644" type="line"/>
			<point x="24" y="644" type="line"/>
			<point x="19" y="619" type="line"/>
			<point x="117" y="619" type="line"/>
			<point x="117" y="66" type="line" smooth="yes"/>
			<point x="117" y="31"/>
			<point x="112" y="21"/>
			<point x="91" y="18" type="curve" smooth="yes"/>
			<point x="43" y="12" type="line"/>
		</contour>
	</outline>
	<anchor name="bottom" x="326" y="-30"/>
	<anchor name="top" x="137" y="782"/>
</glyph>
<glyph name="iogonek" format="2">
	<unicode hex="012F"/>
	<advance width="324"/>
	<outline>
		<contour>
			<point x="159" y="-230" type="curve" smooth="yes"/>
			<point x="189" y="-230"/>
			<point x="230" y="-219"/>
			<point x="259" y="-166" type="curve"/>
			<point x="251" y="-161" type="line"/>
			<point x="235" y="-176"/>
			<point x="217" y="-183"/>
			<point x="201" y="-183" type="curve" smooth="yes"/>
			<point x="176" y="-183"/>
			<point x="158" y="-168"/>
			<point x="158" y="-126" type="curve" smooth="yes"/>
			<point x="158" y="-80"/>
			<point x="180" y="-42"/>
			<point x="232" y="0" type="curve"/>
			<point x="295" y="0" type="line"/>
			<point x="295" y="11" type="line"/>
			<point x="237" y="19" type="line" smooth="yes"/>
			<point x="217" y="22"/>
			<point x="212" y="31"/>
			<point x="212" y="62" type="curve" smooth="yes"/>
			<point x="212" y="513" type="line"/>
			<point x="205" y="518" type="line"/>
			<point x="36" y="509" type="line"/>
			<point x="35" y="499" type="line"/>
			<point x="85" y="495" type="line" smooth="yes"/>
			<point x="114" y="493"/>
			<point x="119" y="480"/>
			<point x="119" y="433" type="curve" smooth="yes"/>
			<point x="119" y="66" type="line" smooth="yes"/>
			<point x="119" y="32"/>
			<point x="115" y="20"/>
			<point x="93" y="18" type="curve" smooth="yes"/>
			<point x="40" y="12" type="line"/>
			<point x="40" y="0" type="line"/>
			<point x="204" y="0" type="line"/>
			<point x="138" y="-40"/>
			<point x="78" y="-96"/>
			<point x="78" y="-155" type="curve" smooth="yes"/>
			<point x="78" y="-195"/>
			<point x="105" y="-230"/>
		</contour>
		<contour>
			<point x="152" y="622" type="curve" smooth="yes"/>
			<point x="190" y="622"/>
			<point x="218" y="650"/>
			<point x="218" y="687" type="curve" smooth="yes"/>
			<point x="218" y="724"/>
			<point x="190" y="751"/>
			<point x="152" y="751" type="curve" smooth="yes"/>
			<point x="115" y="751"/>
			<point x="87" y="723"/>
			<point x="87" y="686" type="curve" smooth="yes"/>
			<point x="87" y="649"/>
			<point x="115" y="622"/>
		</contour>
	</outline>
	<anchor name="bottom" x="165" y="-30"/>
</glyph>
<glyph name="idotless" format="2">
	<unicode hex="0131"/>
	<advance width="324"/>
	<outline>
		<contour>
			<point x="40" y="0" type="line"/>
			<point x="295" y="0" type="line"/>
			<point x="295" y="11" type="line"/>
			<point x="237" y="19" type="line" smooth="yes"/>
			<point x="217" y="22"/>
			<point x="212" y="31"/>
			<point x="212" y="62" type="curve" smooth="yes"/>
			<point x="212" y="513" type="line"/>
			<point x="205" y="518" type="line"/>
			<point x="36" y="509" type="line"/>
			<point x="35" y="499" type="line"/>
			<point x="85" y="495" type="line" smooth="yes"/>
			<point x="114" y="493"/>
			<point x="119" y="481"/>
			<point x="119" y="433" type="curve" smooth="yes"/>
			<point x="119" y="66" type="line" smooth="yes"/>
			<point x="119" y="31"/>
			<point x="114" y="20"/>
			<point x="93" y="18" type="curve" smooth="yes"/>
			<point x="40" y="12" type="line"/>
		</contour>
	</outline>
	<anchor name="bottom" x="165" y="-30"/>
	<anchor name="top" x="146" y="550"/>
</glyph>
<glyph name="kgreenlandic" format="2">
	<unicode hex="0138"/>
	<advance width="567"/>
	<outline>
		<contour>
			<point x="489" y="-9" type="curve" smooth="yes"/>
			<point x="526" y="-9"/>
			<point x="558" y="6"/>
			<point x="586" y="35" type="curve"/>
			<point x="582" y="43" type="line"/>
			<point x="565" y="37"/>
			<point x="549" y="35"/>
			<point x="537" y="35" type="curve" smooth="yes"/>
			<point x="514" y="35"/>
			<point x="496" y="53"/>
			<point x="468" y="91" type="curve" smooth="yes"/>
			<point x="297" y="325" type="line"/>
			<point x="439" y="450" type="line" smooth="yes"/>
			<point x="466" y="473"/>
			<point x="480" y="482"/>
			<point x="503" y="489" type="curve" smooth="yes"/>
			<point x="538" y="500" type="line"/>
			<point x="538" y="513" type="line"/>
			<point x="372" y="513" type="line"/>
			<point x="370" y="500" type="line"/>
			<point x="400" y="492" type="line" smooth="yes"/>
			<point x="427" y="485"/>
			<point x="425" y="468"/>
			<point x="407" y="452" type="curve" smooth="yes"/>
			<point x="223" y="284" type="line"/>
			<point x="223" y="278" type="line"/>
			<point x="375" y="65" type="line" smooth="yes"/>
			<point x="420" y="1"/>
			<point x="451" y="-9"/>
		</contour>
		<contour>
			<point x="45" y="0" type="line"/>
			<point x="273" y="0" type="line"/>
			<point x="273" y="13" type="line"/>
			<point x="239" y="17" type="line" smooth="yes"/>
			<point x="218" y="19"/>
			<point x="212" y="32"/>
			<point x="212" y="64" type="curve" smooth="yes"/>
			<point x="212" y="513" type="line"/>
			<point x="205" y="518" type="line"/>
			<point x="37" y="509" type="line"/>
			<point x="35" y="499" type="line"/>
			<point x="84" y="495" type="line" smooth="yes"/>
			<point x="116" y="492"/>
			<point x="119" y="482"/>
			<point x="119" y="436" type="curve" smooth="yes"/>
			<point x="119" y="68" type="line" smooth="yes"/>
			<point x="119" y="30"/>
			<point x="114" y="20"/>
			<point x="88" y="17" type="curve" smooth="yes"/>
			<point x="45" y="12" type="line"/>
		</contour>
	</outline>
</glyph>
<glyph name="lslash" format="2">
	<unicode hex="0142"/>
	<advance width="322"/>
	<outline>
		<contour>
			<point x="43" y="0" type="line"/>
			<point x="293" y="0" type="line"/>
			<point x="293" y="11" type="line"/>
			<point x="242" y="17" type="line" smooth="yes"/>
			<point x="214" y="20"/>
			<point x="210" y="32"/>
			<point x="210" y="64" type="curve" smooth="yes"/>
			<point x="210" y="427" type="line"/>
			<point x="317" y="485" type="line"/>
			<point x="317" y="513" type="line"/>
			<point x="210" y="455" type="line"/>
			<point x="210" y="761" type="line"/>
			<point x="203" y="766" type="line"/>
			<point x="34" y="761" type="line"/>
			<point x="33" y="751" type="line"/>
			<point x="83" y="747" type="line" smooth="yes"/>
			<point x="111" y="745"/>
			<point x="117" y="733"/>
			<point x="117" y="688" type="curve" smooth="yes"/>
			<point x="117" y="415" type="line"/>
			<point x="13" y="359" type="line"/>
			<point x="13" y="330" type="line"/>
			<point x="117" y="387" type="line"/>
			<point x="117" y="68" type="line" smooth="yes"/>
			<point x="117" y="31"/>
			<point x="113" y="20"/>
			<point x="86" y="17" type="curve" smooth="yes"/>
			<point x="43" y="12" type="line"/>
		</contour>
	</outline>
	<anchor name="bottom" x="163" y="-30"/>
	<anchor name="top" x="137" y="782"/>
</glyph>
<glyph name="eng" format="2">
	<unicode hex="014B"/>
	<advance width="616"/>
	<outline>
		<contour>
			<point x="377" y="527" type="curve" smooth="yes"/>
			<point x="306" y="527"/>
			<point x="239" y="490"/>
			<point x="208" y="415" type="curve"/>
			<point x="207" y="415" type="line"/>
			<point x="208" y="513" type="line"/>
			<point x="203" y="518" type="line"/>
			<point x="34" y="509" type="line"/>
			<point x="33" y="499" type="line"/>
			<point x="83" y="495" type="line" smooth="yes"/>
			<point x="112" y="493"/>
			<point x="117" y="480"/>
			<point x="117" y="433" type="curve" smooth="yes"/>
			<point x="117" y="66" type="line" smooth="yes"/>
			<point x="117" y="31"/>
			<point x="112" y="21"/>
			<point x="91" y="18" type="curve" smooth="yes"/>
			<point x="43" y="12" type="line"/>
			<point x="43" y="0" type="line"/>
			<point x="288" y="0" type="line"/>
			<point x="288" y="11" type="line"/>
			<point x="235" y="19" type="line" smooth="yes"/>
			<point x="215" y="22"/>
			<point x="210" y="32"/>
			<point x="210" y="62" type="curve" smooth="yes"/>
			<point x="210" y="351" type="line" smooth="yes"/>
			<point x="210" y="435"/>
			<point x="266" y="489"/>
			<point x="341" y="489" type="curve" smooth="yes"/>
			<point x="417" y="489"/>
			<point x="438" y="454"/>
			<point x="438" y="360" type="curve" smooth="yes"/>
			<point x="438" y="26" type="line" smooth="yes"/>
			<point x="438" y="-118"/>
			<point x="427" y="-165"/>
			<point x="355" y="-220" type="curve"/>
			<point x="360" y="-229" type="line"/>
			<point x="498" y="-161"/>
			<point x="531" y="-91"/>
			<point x="531" y="91" type="curve" smooth="yes"/>
			<point x="531" y="356" type="line" smooth="yes"/>
			<point x="531" y="467"/>
			<point x="478" y="527"/>
		</contour>
	</outline>
	<anchor name="bottom" x="161" y="-30"/>
	<anchor name="top" x="324" y="550"/>
</glyph>
<glyph name="oe" format="2">
	<unicode hex="0153"/>
	<advance width="886"/>
	<outline>
		<contour>
			<point x="286" y="-14" type="curve" smooth="yes"/>
			<point x="365" y="-14"/>
			<point x="431" y="18"/>
			<point x="474" y="75" type="curve"/>
			<point x="513" y="16"/>
			<point x="575" y="-14"/>
			<point x="649" y="-14" type="curve" smooth="yes"/>
			<point x="732" y="-14"/>
			<point x="794" y="21"/>
			<point x="848" y="113" type="curve"/>
			<point x="839" y="120" type="line"/>
			<point x="786" y="66"/>
			<point x="738" y="54"/>
			<point x="681" y="54" type="curve" smooth="yes"/>
			<point x="592" y="54"/>
			<point x="522" y="121"/>
			<point x="529" y="291" type="curve"/>
			<point x="841" y="291" type="line"/>
			<point x="843" y="310"/>
			<point x="844" y="326"/>
			<point x="844" y="348" type="curve" smooth="yes"/>
			<point x="844" y="456"/>
			<point x="775" y="527"/>
			<point x="665" y="527" type="curve" smooth="yes"/>
			<point x="589" y="527"/>
			<point x="525" y="497"/>
			<point x="483" y="440" type="curve"/>
			<point x="443" y="496"/>
			<point x="379" y="527"/>
			<point x="300" y="527" type="curve" smooth="yes"/>
			<point x="146" y="527"/>
			<point x="48" y="420"/>
			<point x="48" y="245" type="curve" smooth="yes"/>
			<point x="48" y="85"/>
			<point x="142" y="-14"/>
		</contour>
		<contour>
			<point x="303" y="4" type="curve" smooth="yes"/>
			<point x="211" y="4"/>
			<point x="149" y="85"/>
			<point x="149" y="274" type="curve" smooth="yes"/>
			<point x="149" y="446"/>
			<point x="196" y="509"/>
			<point x="281" y="509" type="curve" smooth="yes"/>
			<point x="374" y="509"/>
			<point x="430" y="429"/>
			<point x="430" y="245" type="curve" smooth="yes"/>
			<point x="430" y="71"/>
			<point x="385" y="4"/>
		</contour>
		<contour>
			<point x="530" y="307" type="line"/>
			<point x="540" y="459"/>
			<point x="583" y="512"/>
			<point x="656" y="512" type="curve" smooth="yes"/>
			<point x="720" y="512"/>
			<point x="749" y="473"/>
			<point x="749" y="352" type="curve" smooth="yes"/>
			<point x="749" y="334"/>
			<point x="748" y="319"/>
			<point x="747" y="307" type="curve"/>
		</contour>
	</outline>
</glyph>
<glyph name="Scedilla" format="2">
	<unicode hex="015E"/>
	<advance width="592"/>
	<outline>
		<contour>
			<point x="292" y="-220" type="curve" smooth="yes"/>
			<point x="362" y="-220"/>
			<point x="399" y="-182"/>
			<point x="399" y="-139" type="curve" smooth="yes"/>
			<point x="399" y="-86"/>
			<point x="358" y="-53"/>
			<point x="276" y="-63" type="curve"/>
			<point x="295" y="-14" type="line"/>
			<point x="426" y="-14"/>
			<point x="534" y="85"/>
			<point x="534" y="210" type="curve" smooth="yes"/>
			<point x="534" y="313"/>
			<point x="470" y="377"/>
			<point x="323" y="428" type="curve" smooth="yes"/>
			<point x="207" y="468"/>
			<point x="159" y="506"/>
			<point x="159" y="592" type="curve" smooth="yes"/>
			<point x="159" y="668"/>
			<point x="207" y="729"/>
			<point x="298" y="729" type="curve" smooth="yes"/>
			<point x="392" y="729"/>
			<point x="461" y="659"/>
			<point x="492" y="515" type="curve"/>
			<point x="507" y="517" type="line"/>
			<point x="483" y="744" type="line"/>
			<point x="469" y="744" type="line"/>
			<point x="456" y="682" type="line"/>
			<point x="418" y="715"/>
			<point x="359" y="744"/>
			<point x="295" y="744" type="curve" smooth="yes"/>
			<point x="167" y="744"/>
			<point x="71" y="666"/>
			<point x="71" y="551" type="curve" smooth="yes"/>
			<point x="71" y="450"/>
			<point x="125" y="383"/>
			<point x="276" y="335" type="curve" smooth="yes"/>
			<point x="392" y="298"/>
			<point x="446" y="248"/>
			<point x="446" y="145" type="curve" smooth="yes"/>
			<point x="446" y="62"/>
			<point x="391" y="2"/>
			<point x="293" y="2" type="curve" smooth="yes"/>
			<point x="201" y="2"/>
			<point x="103" y="74"/>
			<point x="70" y="223" type="curve"/>
			<point x="56" y="220" type="line"/>
			<point x="76" y="-6" type="line"/>
			<point x="90" y="-6" type="line"/>
			<point x="103" y="53" type="line"/>
			<point x="152" y="19"/>
			<point x="208" y="-9"/>
			<point x="277" y="-13" type="curve"/>
			<point x="250" y="-80" type="line"/>
			<point x="254" y="-90" type="line"/>
			<point x="263" y="-87"/>
			<point x="270" y="-86"/>
			<point x="282" y="-86" type="curve" smooth="yes"/>
			<point x="312" y="-86"/>
			<point x="330" y="-102"/>
			<point x="330" y="-131" type="curve" smooth="yes"/>
			<point x="330" y="-170"/>
			<point x="300" y="-194"/>
			<point x="263" y="-194" type="curve" smooth="yes"/>
			<point x="234" y="-194"/>
			<point x="216" y="-182"/>
			<point x="198" y="-168" type="curve"/>
			<point x="189" y="-180" type="line"/>
			<point x="211" y="-202"/>
			<point x="241" y="-220"/>
		</contour>
	</outline>
	<anchor name="bottom" x="295" y="-30"/>
	<anchor name="top" x="291" y="729"/>
</glyph>
<glyph name="tcedilla" format="2">
	<unicode hex="0163"/>
	<advance width="377"/>
	<outline>
		<contour>
			<point x="228" y="-220" type="curve" smooth="yes"/>
			<point x="298" y="-220"/>
			<point x="335" y="-182"/>
			<point x="335" y="-139" type="curve" smooth="yes"/>
			<point x="335" y="-86"/>
			<point x="294" y="-53"/>
			<point x="212" y="-63" type="curve"/>
			<point x="231" y="-14" type="line"/>
			<point x="294" y="-12"/>
			<point x="334" y="22"/>
			<point x="372" y="81" type="curve"/>
			<point x="362" y="88" type="line"/>
			<point x="337" y="58"/>
			<point x="299" y="45"/>
			<point x="266" y="45" type="curve" smooth="yes"/>
			<point x="215" y="45"/>
			<point x="199" y="76"/>
			<point x="199" y="140" type="curve" smooth="yes"/>
			<point x="199" y="497" type="line"/>
			<point x="347" y="497" type="line"/>
			<point x="347" y="513" type="line"/>
			<point x="199" y="513" type="line"/>
			<point x="199" y="664" type="line"/>
			<point x="194" y="668" type="line"/>
			<point x="146" y="661" type="line"/>
			<point x="135" y="549"/>
			<point x="107" y="513"/>
			<point x="35" y="508" type="curve"/>
			<point x="35" y="497" type="line"/>
			<point x="106" y="497" type="line"/>
			<point x="106" y="133" type="line" smooth="yes"/>
			<point x="106" y="32"/>
			<point x="144" y="-9"/>
			<point x="213" y="-14" type="curve"/>
			<point x="186" y="-80" type="line"/>
			<point x="190" y="-90" type="line"/>
			<point x="199" y="-87"/>
			<point x="206" y="-86"/>
			<point x="218" y="-86" type="curve" smooth="yes"/>
			<point x="248" y="-86"/>
			<point x="266" y="-102"/>
			<point x="266" y="-131" type="curve" smooth="yes"/>
			<point x="266" y="-170"/>
			<point x="236" y="-194"/>
			<point x="199" y="-194" type="curve" smooth="yes"/>
			<point x="170" y="-194"/>
			<point x="152" y="-182"/>
			<point x="134" y="-168" type="curve"/>
			<point x="125" y="-180" type="line"/>
			<point x="147" y="-202"/>
			<point x="177" y="-220"/>
		</contour>
	</outline>
	<anchor name="bottom" x="231" y="-30"/>
</glyph>
<glyph name="Tbar" format="2">
	<unicode hex="0166"/>
	<advance width="658"/>
	<outline>
		<contour>
			<point x="177" y="0" type="line"/>
			<point x="482" y="0" type="line"/>
			<point x="482" y="12" type="line"/>
			<point x="413" y="16" type="line" smooth="yes"/>
			<point x="385" y="18"/>
			<point x="379" y="29"/>
			<point x="379" y="62" type="curve" smooth="yes"/>
			<point x="379" y="354" type="line"/>
			<point x="535" y="354" type="line"/>
			<point x="535" y="379" type="line"/>
			<point x="379" y="379" type="line"/>
			<point x="379" y="714" type="line"/>
			<point x="445" y="714" type="line" smooth="yes"/>
			<point x="536" y="714"/>
			<point x="575" y="666"/>
			<point x="618" y="528" type="curve"/>
			<point x="633" y="532" type="line"/>
			<point x="607" y="730" type="line"/>
			<point x="53" y="730" type="line"/>
			<point x="25" y="532" type="line"/>
			<point x="39" y="528" type="line"/>
			<point x="83" y="666"/>
			<point x="123" y="714"/>
			<point x="215" y="714" type="curve" smooth="yes"/>
			<point x="280" y="714" type="line"/>
			<point x="280" y="379" type="line"/>
			<point x="133" y="379" type="line"/>
			<point x="128" y="354" type="line"/>
			<point x="280" y="354" type="line"/>
			<point x="280" y="66" type="line" smooth="yes"/>
			<point x="280" y="33"/>
			<point x="273" y="17"/>
			<point x="247" y="16" type="curve" smooth="yes"/>
			<point x="177" y="12" type="line"/>
		</contour>
	</outline>
	<anchor name="bottom" x="329" y="-30"/>
	<anchor name="top" x="329" y="730"/>
</glyph>
<glyph name="uogonek" format="2">
	<unicode hex="0173"/>
	<advance width="619"/>
	<outline>
		<contour>
			<point x="481" y="-230" type="curve" smooth="yes"/>
			<point x="511" y="-230"/>
			<point x="552" y="-219"/>
			<point x="581" y="-166" type="curve"/>
			<point x="573" y="-161" type="line"/>
			<point x="557" y="-176"/>
			<point x="539" y="-183"/>
			<point x="523" y="-183" type="curve" smooth="yes"/>
			<point x="498" y="-183"/>
			<point x="480" y="-168"/>
			<point x="480" y="-126" type="curve" smooth="yes"/>
			<point x="480" y="-81"/>
			<point x="501" y="-43"/>
			<point x="551" y="-2" type="curve"/>
			<point x="590" y="0" type="line"/>
			<point x="590" y="12" type="line"/>
			<point x="540" y="15" type="line" smooth="yes"/>
			<point x="514" y="17"/>
			<point x="508" y="28"/>
			<point x="508" y="60" type="curve" smooth="yes"/>
			<point x="508" y="513" type="line"/>
			<point x="502" y="518" type="line"/>
			<point x="345" y="507" type="line"/>
			<point x="344" y="497" type="line"/>
			<point x="381" y="494" type="line" smooth="yes"/>
			<point x="410" y="492"/>
			<point x="415" y="479"/>
			<point x="415" y="432" type="curve" smooth="yes"/>
			<point x="415" y="153" type="line" smooth="yes"/>
			<point x="415" y="68"/>
			<point x="365" y="23"/>
			<point x="289" y="23" type="curve" smooth="yes"/>
			<point x="219" y="23"/>
			<point x="194" y="63"/>
			<point x="194" y="154" type="curve" smooth="yes"/>
			<point x="194" y="513" type="line"/>
			<point x="188" y="518" type="line"/>
			<point x="31" y="507" type="line"/>
			<point x="30" y="497" type="line"/>
			<point x="67" y="494" type="line" smooth="yes"/>
			<point x="96" y="492"/>
			<point x="101" y="479"/>
			<point x="101" y="432" type="curve" smooth="yes"/>
			<point x="101" y="157" type="line" smooth="yes"/>
			<point x="101" y="45"/>
			<point x="156" y="-14"/>
			<point x="256" y="-14" type="curve" smooth="yes"/>
			<point x="326" y="-14"/>
			<point x="377" y="10"/>
			<point x="415" y="80" type="curve"/>
			<point x="417" y="80" type="line"/>
			<point x="425" y="-9" type="line"/>
			<point x="520" y="-4" type="line"/>
			<point x="456" y="-43"/>
			<point x="400" y="-98"/>
			<point x="400" y="-155" type="curve" smooth="yes"/>
			<point x="400" y="-195"/>
			<point x="427" y="-230"/>
		</contour>
	</outline>
	<anchor name="bottom" x="305" y="-30"/>
	<anchor name="top" x="290" y="550"/>
</glyph>
<glyph name="florin" format="2">
	<unicode hex="0192"/>
	<advance width="570"/>
	<outline>
		<contour>
			<point x="41" y="-163" type="curve" smooth="yes"/>
			<point x="150" y="-163"/>
			<point x="229" y="-70"/>
			<point x="247" y="75" type="curve" smooth="yes"/>
			<point x="293" y="451" type="line"/>
			<point x="440" y="451" type="line"/>
			<point x="442" y="467" type="line"/>
			<point x="296" y="467" type="line"/>
			<point x="308" y="562" type="line" smooth="yes"/>
			<point x="324" y="686"/>
			<point x="361" y="729"/>
			<point x="416" y="729" type="curve" smooth="yes"/>
			<point x="444" y="729"/>
			<point x="467" y="722"/>
			<point x="484" y="711" type="curve"/>
			<point x="457" y="670"/>
			<point x="450" y="655"/>
			<point x="450" y="637" type="curve" smooth="yes"/>
			<point x="450" y="616"/>
			<point x="466" y="601"/>
			<point x="497" y="601" type="curve" smooth="yes"/>
			<point x="533" y="601"/>
			<point x="550" y="626"/>
			<point x="550" y="654" type="curve" smooth="yes"/>
			<point x="550" y="706"/>
			<point x="502" y="744"/>
			<point x="417" y="744" type="curve" smooth="yes"/>
			<point x="304" y="744"/>
			<point x="227" y="653"/>
			<point x="208" y="508" type="curve"/>
			<point x="202" y="465" type="line"/>
			<point x="122" y="465" type="line"/>
			<point x="120" y="451" type="line"/>
			<point x="200" y="451" type="line"/>
			<point x="147" y="20" type="line"/>
			<point x="134" y="-104"/>
			<point x="93" y="-148"/>
			<point x="42" y="-148" type="curve" smooth="yes"/>
			<point x="14" y="-148"/>
			<point x="-9" y="-141"/>
			<point x="-26" y="-130" type="curve"/>
			<point x="1" y="-89"/>
			<point x="8" y="-74"/>
			<point x="8" y="-56" type="curve" smooth="yes"/>
			<point x="8" y="-35"/>
			<point x="-8" y="-20"/>
			<point x="-39" y="-20" type="curve" smooth="yes"/>
			<point x="-75" y="-20"/>
			<point x="-92" y="-45"/>
			<point x="-92" y="-73" type="curve" smooth="yes"/>
			<point x="-92" y="-125"/>
			<point x="-44" y="-163"/>
		</contour>
	</outline>
</glyph>
<glyph name="ohorn" format="2">
	<unicode hex="01A1"/>
	<advance width="613"/>
	<outline>
		<contour>
			<point x="286" y="-14" type="curve" smooth="yes"/>
			<point x="434" y="-14"/>
			<point x="532" y="96"/>
			<point x="532" y="270" type="curve" smooth="yes"/>
			<point x="532" y="322"/>
			<point x="522" y="367"/>
			<point x="504" y="405" type="curve"/>
			<point x="577" y="448"/>
			<point x="613" y="521"/>
			<point x="613" y="576" type="curve" smooth="yes"/>
			<point x="613" y="622"/>
			<point x="591" y="662"/>
			<point x="541" y="662" type="curve" smooth="yes"/>
			<point x="505" y="662"/>
			<point x="481" y="637"/>
			<point x="481" y="599" type="curve" smooth="yes"/>
			<point x="481" y="563"/>
			<point x="502" y="547"/>
			<point x="550" y="547" type="curve" smooth="yes"/>
			<point x="571" y="547" type="line"/>
			<point x="568" y="508"/>
			<point x="554" y="459"/>
			<point x="495" y="421" type="curve"/>
			<point x="456" y="488"/>
			<point x="387" y="527"/>
			<point x="300" y="527" type="curve" smooth="yes"/>
			<point x="146" y="527"/>
			<point x="48" y="420"/>
			<point x="48" y="245" type="curve" smooth="yes"/>
			<point x="48" y="85"/>
			<point x="142" y="-14"/>
		</contour>
		<contour>
			<point x="303" y="4" type="curve" smooth="yes"/>
			<point x="211" y="4"/>
			<point x="149" y="85"/>
			<point x="149" y="274" type="curve" smooth="yes"/>
			<point x="149" y="446"/>
			<point x="196" y="509"/>
			<point x="281" y="509" type="curve" smooth="yes"/>
			<point x="374" y="509"/>
			<point x="430" y="429"/>
			<point x="430" y="245" type="curve" smooth="yes"/>
			<point x="430" y="71"/>
			<point x="385" y="4"/>
		</contour>
	</outline>
	<anchor name="bottom" x="296" y="-30"/>
	<anchor name="top" x="293" y="550"/>
</glyph>
<glyph name="uhorn" format="2">
	<unicode hex="01B0"/>
	<advance width="676"/>
	<outline>
		<contour>
			<point x="256" y="-14" type="curve" smooth="yes"/>
			<point x="326" y="-14"/>
			<point x="377" y="10"/>
			<point x="415" y="80" type="curve"/>
			<point x="417" y="80" type="line"/>
			<point x="425" y="-9" type="line"/>
			<point x="590" y="0" type="line"/>
			<point x="590" y="12" type="line"/>
			<point x="540" y="15" type="line" smooth="yes"/>
			<point x="514" y="17"/>
			<point x="508" y="28"/>
			<point x="508" y="60" type="curve" smooth="yes"/>
			<point x="508" y="379" type="line"/>
			<point x="620" y="413"/>
			<point x="676" y="507"/>
			<point x="676" y="576" type="curve" smooth="yes"/>
			<point x="676" y="622"/>
			<point x="654" y="662"/>
			<point x="604" y="662" type="curve" smooth="yes"/>
			<point x="568" y="662"/>
			<point x="544" y="637"/>
			<point x="544" y="599" type="curve" smooth="yes"/>
			<point x="544" y="563"/>
			<point x="565" y="547"/>
			<point x="613" y="547" type="curve" smooth="yes"/>
			<point x="634" y="547" type="line"/>
			<point x="630" y="499"/>
			<point x="610" y="434"/>
			<point x="508" y="396" type="curve"/>
			<point x="508" y="513" type="line"/>
			<point x="502" y="518" type="line"/>
			<point x="345" y="507" type="line"/>
			<point x="344" y="497" type="line"/>
			<point x="381" y="494" type="line" smooth="yes"/>
			<point x="410" y="492"/>
			<point x="415" y="480"/>
			<point x="415" y="432" type="curve" smooth="yes"/>
			<point x="415" y="153" type="line" smooth="yes"/>
			<point x="415" y="68"/>
			<point x="365" y="23"/>
			<point x="289" y="23" type="curve" smooth="yes"/>
			<point x="219" y="23"/>
			<point x="194" y="63"/>
			<point x="194" y="154" type="curve" smooth="yes"/>
			<point x="194" y="513" type="line"/>
			<point x="188" y="518" type="line"/>
			<point x="31" y="507" type="line"/>
			<point x="30" y="497" type="line"/>
			<point x="67" y="494" type="line" smooth="yes"/>
			<point x="96" y="492"/>
			<point x="101" y="480"/>
			<point x="101" y="432" type="curve" smooth="yes"/>
			<point x="101" y="157" type="line" smooth="yes"/>
			<point x="101" y="45"/>
			<point x="156" y="-14"/>
		</contour>
	</outline>
	<anchor name="bottom" x="305" y="-30"/>
	<anchor name="top" x="300" y="550"/>
</glyph>
<glyph name="oogonek" format="2">
	<unicode hex="01EB"/>
	<advance width="580"/>
	<outline>
		<contour>
			<point x="306" y="-230" type="curve" smooth="yes"/>
			<point x="336" y="-230"/>
			<point x="377" y="-220"/>
			<point x="406" y="-166" type="curve"/>
			<point x="398" y="-161" type="line"/>
			<point x="382" y="-176"/>
			<point x="364" y="-183"/>
			<point x="348" y="-183" type="curve" smooth="yes"/>
			<point x="323" y="-183"/>
			<point x="305" y="-168"/>
			<point x="305" y="-126" type="curve" smooth="yes"/>
			<point x="305" y="-78"/>
			<point x="329" y="-39"/>
			<point x="386" y="5" type="curve"/>
			<point x="476" y="44"/>
			<point x="532" y="139"/>
			<point x="532" y="270" type="curve" smooth="yes"/>
			<point x="532" y="428"/>
			<point x="440" y="527"/>
			<point x="300" y="527" type="curve" smooth="yes"/>
			<point x="146" y="527"/>
			<point x="48" y="420"/>
			<point x="48" y="245" type="curve" smooth="yes"/>
			<point x="48" y="85"/>
			<point x="142" y="-14"/>
			<point x="286" y="-14" type="curve" smooth="yes"/>
			<point x="303" y="-14"/>
			<point x="320" y="-12"/>
			<point x="336" y="-9" type="curve"/>
			<point x="276" y="-48"/>
			<point x="225" y="-100"/>
			<point x="225" y="-155" type="curve" smooth="yes"/>
			<point x="225" y="-195"/>
			<point x="252" y="-230"/>
		</contour>
		<contour>
			<point x="303" y="4" type="curve" smooth="yes"/>
			<point x="211" y="4"/>
			<point x="149" y="85"/>
			<point x="149" y="274" type="curve" smooth="yes"/>
			<point x="149" y="446"/>
			<point x="196" y="509"/>
			<point x="281" y="509" type="curve" smooth="yes"/>
			<point x="374" y="509"/>
			<point x="430" y="429"/>
			<point x="430" y="245" type="curve" smooth="yes"/>
			<point x="430" y="71"/>
			<point x="385" y="4"/>
		</contour>
	</outline>
	<anchor name="bottom" x="290" y="-30"/>
	<anchor name="top" x="283" y="550"/>
</glyph>
<glyph name="Aringacute" format="2">
	<unicode hex="01FA"/>
	<advance width="661"/>
	<outline>
		<contour>
			<point x="0" y="0" type="line"/>
			<point x="194" y="0" type="line"/>
			<point x="194" y="11" type="line"/>
			<point x="134" y="18" type="line" smooth="yes"/>
			<point x="105" y="21"/>
			<point x="101" y="42"/>
			<point x="111" y="73" type="curve" smooth="yes"/>
			<point x="167" y="248" type="line"/>
			<point x="422" y="248" type="line"/>
			<point x="475" y="67" type="line" smooth="yes"/>
			<point x="484" y="35"/>
			<point x="480" y="22"/>
			<point x="456" y="19" type="curve" smooth="yes"/>
			<point x="402" y="12" type="line"/>
			<point x="402" y="0" type="line"/>
			<point x="661" y="0" type="line"/>
			<point x="661" y="14" type="line"/>
			<point x="625" y="21" type="line" smooth="yes"/>
			<point x="597" y="26"/>
			<point x="592" y="38"/>
			<point x="581" y="71" type="curve" smooth="yes"/>
			<point x="370" y="720" type="line"/>
			<point x="416" y="733"/>
			<point x="440" y="770"/>
			<point x="440" y="820" type="curve" smooth="yes"/>
			<point x="440" y="880"/>
			<point x="404" y="920"/>
			<point x="334" y="920" type="curve" smooth="yes"/>
			<point x="260" y="920"/>
			<point x="224" y="874"/>
			<point x="224" y="818" type="curve" smooth="yes"/>
			<point x="224" y="767"/>
			<point x="246" y="731"/>
			<point x="295" y="719" type="curve"/>
			<point x="84" y="74" type="line" smooth="yes"/>
			<point x="71" y="34"/>
			<point x="61" y="24"/>
			<point x="38" y="19" type="curve" smooth="yes"/>
			<point x="0" y="12" type="line"/>
		</contour>
		<contour>
			<point x="174" y="266" type="line"/>
			<point x="295" y="650" type="line"/>
			<point x="297" y="650" type="line"/>
			<point x="415" y="266" type="line"/>
		</contour>
		<contour>
			<point x="333" y="730" type="curve" smooth="yes"/>
			<point x="295" y="730"/>
			<point x="282" y="758"/>
			<point x="282" y="818" type="curve" smooth="yes"/>
			<point x="282" y="877"/>
			<point x="295" y="905"/>
			<point x="331" y="905" type="curve" smooth="yes"/>
			<point x="366" y="905"/>
			<point x="381" y="878"/>
			<point x="381" y="818" type="curve" smooth="yes"/>
			<point x="381" y="756"/>
			<point x="370" y="730"/>
		</contour>
		<contour>
			<point x="247" y="944" type="line"/>
			<point x="406" y="1007" type="line" smooth="yes"/>
			<point x="434" y="1018"/>
			<point x="446" y="1035"/>
			<point x="446" y="1058" type="curve" smooth="yes"/>
			<point x="446" y="1080"/>
			<point x="431" y="1103"/>
			<point x="406" y="1103" type="curve" smooth="yes"/>
			<point x="394" y="1103"/>
			<point x="383" y="1097"/>
			<point x="366" y="1080" type="curve" smooth="yes"/>
			<point x="240" y="954" type="line"/>
		</contour>
	</outline>
	<anchor name="bottom" x="296" y="-30"/>
	<anchor name="top" x="335" y="730"/>
</glyph>
<glyph name="jdotless" format="2">
	<unicode hex="0237"/>
	<advance width="297"/>
	<outline>
		<contour>
			<point x="41" y="-229" type="line"/>
			<point x="179" y="-161"/>
			<point x="212" y="-91"/>
			<point x="212" y="91" type="curve" smooth="yes"/>
			<point x="212" y="513" type="line"/>
			<point x="205" y="518" type="line"/>
			<point x="36" y="509" type="line"/>
			<point x="35" y="499" type="line"/>
			<point x="85" y="495" type="line" smooth="yes"/>
			<point x="114" y="493"/>
			<point x="119" y="481"/>
			<point x="119" y="432" type="curve" smooth="yes"/>
			<point x="119" y="26" type="line" smooth="yes"/>
			<point x="119" y="-118"/>
			<point x="108" y="-165"/>
			<point x="36" y="-220" type="curve"/>
		</contour>
	</outline>
	<anchor name="top" x="138" y="550"/>
</glyph>
<glyph name="schwa" format="2">
	<unicode hex="0259"/>
	<advance width="519"/>
	<outline>
		<contour>
			<point x="231" y="-14" type="curve" smooth="yes"/>
			<point x="376" y="-14"/>
			<point x="471" y="85"/>
			<point x="471" y="268" type="curve" smooth="yes"/>
			<point x="471" y="438"/>
			<point x="381" y="527"/>
			<point x="247" y="527" type="curve" smooth="yes"/>
			<point x="164" y="527"/>
			<point x="102" y="492"/>
			<point x="48" y="400" type="curve"/>
			<point x="57" y="393" type="line"/>
			<point x="110" y="447"/>
			<point x="158" y="459"/>
			<point x="215" y="459" type="curve" smooth="yes"/>
			<point x="309" y="459"/>
			<point x="379" y="392"/>
			<point x="372" y="222" type="curve"/>
			<point x="55" y="222" type="line"/>
			<point x="53" y="203"/>
			<point x="52" y="187"/>
			<point x="52" y="165" type="curve" smooth="yes"/>
			<point x="52" y="57"/>
			<point x="121" y="-14"/>
		</contour>
		<contour>
			<point x="240" y="1" type="curve" smooth="yes"/>
			<point x="176" y="1"/>
			<point x="147" y="40"/>
			<point x="147" y="161" type="curve" smooth="yes"/>
			<point x="147" y="179"/>
			<point x="148" y="194"/>
			<point x="149" y="206" type="curve"/>
			<point x="371" y="206" type="line"/>
			<point x="361" y="54"/>
			<point x="318" y="1"/>
		</contour>
	</outline>
	<anchor name="bottom" x="241" y="-30"/>
	<anchor name="top" x="246" y="550"/>
</glyph>
<glyph name="ringhalfright" format="2">
	<unicode hex="02BE"/>
	<advance width="500"/>
	<outline>
		<contour>
			<point x="205" y="582" type="line"/>
			<point x="208" y="582" type="line" smooth="yes"/>
			<point x="282" y="582"/>
			<point x="318" y="628"/>
			<point x="318" y="684" type="curve" smooth="yes"/>
			<point x="318" y="746"/>
			<point x="285" y="787"/>
			<point x="210" y="787" type="curve" smooth="yes"/>
			<point x="205" y="787" type="line"/>
			<point x="205" y="772" type="line"/>
			<point x="209" y="772" type="line" smooth="yes"/>
			<point x="247" y="772"/>
			<point x="260" y="744"/>
			<point x="260" y="684" type="curve" smooth="yes"/>
			<point x="260" y="625"/>
			<point x="247" y="597"/>
			<point x="211" y="597" type="curve" smooth="yes"/>
			<point x="205" y="597" type="line"/>
		</contour>
	</outline>
	<anchor name="_top" x="250" y="550"/>
</glyph>
<glyph name="ringhalfleft" format="2">
	<unicode hex="02BF"/>
	<advance width="500"/>
	<outline>
		<contour>
			<point x="290" y="582" type="curve" smooth="yes"/>
			<point x="295" y="582" type="line"/>
			<point x="295" y="597" type="line"/>
			<point x="291" y="597" type="line" smooth="yes"/>
			<point x="253" y="597"/>
			<point x="240" y="625"/>
			<point x="240" y="685" type="curve" smooth="yes"/>
			<point x="240" y="744"/>
			<point x="253" y="772"/>
			<point x="289" y="772" type="curve" smooth="yes"/>
			<point x="295" y="772" type="line"/>
			<point x="295" y="787" type="line"/>
			<point x="292" y="787" type="line" smooth="yes"/>
			<point x="218" y="787"/>
			<point x="182" y="741"/>
			<point x="182" y="685" type="curve" smooth="yes"/>
			<point x="182" y="623"/>
			<point x="215" y="582"/>
		</contour>
	</outline>
	<anchor name="_top" x="250" y="550"/>
</glyph>
<glyph name="breve" format="2">
	<unicode hex="02D8"/>
	<advance width="500"/>
	<outline>
		<contour>
			<point x="247" y="587" type="curve" smooth="yes"/>
			<point x="344" y="587"/>
			<point x="381" y="668"/>
			<point x="390" y="761" type="curve"/>
			<point x="377" y="764" type="line"/>
			<point x="360" y="707"/>
			<point x="322" y="667"/>
			<point x="252" y="667" type="curve" smooth="yes"/>
			<point x="183" y="667"/>
			<point x="147" y="699"/>
			<point x="126" y="765" type="curve"/>
			<point x="111" y="761" type="line"/>
			<point x="122" y="662"/>
			<point x="152" y="587"/>
		</contour>
	</outline>
	<anchor name="_top" x="244" y="550"/>
</glyph>
<glyph name="dotaccent" format="2">
	<unicode hex="02D9"/>
	<advance width="500"/>
	<outline>
		<contour>
			<point x="249" y="622" type="curve" smooth="yes"/>
			<point x="287" y="622"/>
			<point x="315" y="650"/>
			<point x="315" y="687" type="curve" smooth="yes"/>
			<point x="315" y="724"/>
			<point x="287" y="751"/>
			<point x="249" y="751" type="curve" smooth="yes"/>
			<point x="212" y="751"/>
			<point x="184" y="723"/>
			<point x="184" y="686" type="curve" smooth="yes"/>
			<point x="184" y="649"/>
			<point x="212" y="622"/>
		</contour>
	</outline>
	<anchor name="_top" x="250" y="550"/>
</glyph>
<glyph name="ring" format="2">
	<unicode hex="02DA"/>
	<advance width="500"/>
	<outline>
		<contour>
			<point x="250" y="582" type="curve" smooth="yes"/>
			<point x="320" y="582"/>
			<point x="358" y="625"/>
			<point x="358" y="687" type="curve" smooth="yes"/>
			<point x="358" y="747"/>
			<point x="322" y="787"/>
			<point x="252" y="787" type="curve" smooth="yes"/>
			<point x="178" y="787"/>
			<point x="142" y="741"/>
			<point x="142" y="685" type="curve" smooth="yes"/>
			<point x="142" y="623"/>
			<point x="175" y="582"/>
		</contour>
		<contour>
			<point x="251" y="597" type="curve" smooth="yes"/>
			<point x="213" y="597"/>
			<point x="200" y="625"/>
			<point x="200" y="685" type="curve" smooth="yes"/>
			<point x="200" y="744"/>
			<point x="213" y="772"/>
			<point x="249" y="772" type="curve" smooth="yes"/>
			<point x="284" y="772"/>
			<point x="299" y="745"/>
			<point x="299" y="685" type="curve" smooth="yes"/>
			<point x="299" y="623"/>
			<point x="288" y="597"/>
		</contour>
	</outline>
	<anchor name="_top" x="250" y="550"/>
</glyph>
<glyph name="ogonek" format="2">
	<unicode hex="02DB"/>
	<advance width="500"/>
	<outline>
		<contour>
			<point x="232" y="-230" type="curve" smooth="yes"/>
			<point x="262" y="-230"/>
			<point x="303" y="-219"/>
			<point x="332" y="-166" type="curve"/>
			<point x="324" y="-161" type="line"/>
			<point x="308" y="-176"/>
			<point x="290" y="-183"/>
			<point x="274" y="-183" type="curve" smooth="yes"/>
			<point x="249" y="-183"/>
			<point x="231" y="-168"/>
			<point x="231" y="-126" type="curve" smooth="yes"/>
			<point x="231" y="-77"/>
			<point x="256" y="-37"/>
			<point x="315" y="8" type="curve"/>
			<point x="293" y="9" type="line"/>
			<point x="221" y="-31"/>
			<point x="151" y="-91"/>
			<point x="151" y="-155" type="curve" smooth="yes"/>
			<point x="151" y="-195"/>
			<point x="178" y="-230"/>
		</contour>
	</outline>
	<anchor name="_bottom" x="250" y="-30"/>
</glyph>
<glyph name="hungarumlaut" format="2">
	<unicode hex="02DD"/>
	<advance width="500"/>
	<outline>
		<contour>
			<point x="302" y="585" type="line"/>
			<point x="429" y="679" type="line" smooth="yes"/>
			<point x="447" y="692"/>
			<point x="463" y="710"/>
			<point x="463" y="730" type="curve" smooth="yes"/>
			<point x="463" y="752"/>
			<point x="449" y="774"/>
			<point x="422" y="774" type="curve" smooth="yes"/>
			<point x="408" y="774"/>
			<point x="395" y="765"/>
			<point x="383" y="745" type="curve" smooth="yes"/>
			<point x="294" y="593" type="line"/>
		</contour>
		<contour>
			<point x="158" y="585" type="line"/>
			<point x="271" y="678" type="line" smooth="yes"/>
			<point x="297" y="700"/>
			<point x="309" y="713"/>
			<point x="309" y="732" type="curve" smooth="yes"/>
			<point x="309" y="760"/>
			<point x="291" y="776"/>
			<point x="265" y="776" type="curve" smooth="yes"/>
			<point x="251" y="776"/>
			<point x="238" y="769"/>
			<point x="227" y="747" type="curve" smooth="yes"/>
			<point x="150" y="593" type="line"/>
		</contour>
	</outline>
	<anchor name="_top" x="250" y="550"/>
</glyph>
<glyph name="gravecomb" format="2">
	<unicode hex="0300"/>
	<outline>
		<contour>
			<point x="56" y="585" type="line"/>
			<point x="64" y="593" type="line"/>
			<point x="-24" y="746" type="line" smooth="yes"/>
			<point x="-36" y="767"/>
			<point x="-49" y="775"/>
			<point x="-63" y="775" type="curve" smooth="yes"/>
			<point x="-90" y="775"/>
			<point x="-103" y="753"/>
			<point x="-103" y="731" type="curve" smooth="yes"/>
			<point x="-103" y="711"/>
			<point x="-86" y="694"/>
			<point x="-68" y="680" type="curve" smooth="yes"/>
		</contour>
	</outline>
	<anchor name="_top" x="1" y="550"/>
</glyph>
<glyph name="circumflexcomb" format="2">
	<unicode hex="0302"/>
	<outline>
		<contour>
			<point x="-139" y="585" type="line"/>
			<point x="0" y="680" type="line"/>
			<point x="135" y="586" type="line"/>
			<point x="143" y="594" type="line"/>
			<point x="41" y="743" type="line" smooth="yes"/>
			<point x="25" y="766"/>
			<point x="14" y="771"/>
			<point x="0" y="771" type="curve" smooth="yes"/>
			<point x="-14" y="771"/>
			<point x="-28" y="765"/>
			<point x="-39" y="749" type="curve" smooth="yes"/>
			<point x="-147" y="593" type="line"/>
		</contour>
	</outline>
	<anchor name="_top" x="0" y="550"/>
</glyph>
<glyph name="tildecomb" format="2">
	<unicode hex="0303"/>
	<outline>
		<contour>
			<point x="72" y="620" type="curve" smooth="yes"/>
			<point x="112" y="620"/>
			<point x="132" y="640"/>
			<point x="147" y="723" type="curve"/>
			<point x="136" y="726" type="line"/>
			<point x="123" y="696"/>
			<point x="112" y="690"/>
			<point x="94" y="690" type="curve" smooth="yes"/>
			<point x="77" y="690"/>
			<point x="67" y="695"/>
			<point x="15" y="717" type="curve" smooth="yes"/>
			<point x="-25" y="734"/>
			<point x="-44" y="742"/>
			<point x="-70" y="742" type="curve" smooth="yes"/>
			<point x="-113" y="742"/>
			<point x="-132" y="719"/>
			<point x="-146" y="639" type="curve"/>
			<point x="-135" y="636" type="line"/>
			<point x="-122" y="666"/>
			<point x="-111" y="671"/>
			<point x="-92" y="671" type="curve" smooth="yes"/>
			<point x="-80" y="671"/>
			<point x="-74" y="669"/>
			<point x="-16" y="645" type="curve" smooth="yes"/>
			<point x="23" y="629"/>
			<point x="45" y="620"/>
		</contour>
	</outline>
	<anchor name="_top" x="0" y="550"/>
</glyph>
<glyph name="macroncomb" format="2">
	<unicode hex="0304"/>
	<outline>
		<contour>
			<point x="-132" y="644" type="line"/>
			<point x="132" y="644" type="line"/>
			<point x="132" y="705" type="line"/>
			<point x="-132" y="705" type="line"/>
		</contour>
	</outline>
	<anchor name="_top" x="0" y="550"/>
</glyph>
<glyph name="brevecomb" format="2">
	<unicode hex="0306"/>
	<outline>
		<contour>
			<point x="-2" y="587" type="curve" smooth="yes"/>
			<point x="95" y="587"/>
			<point x="132" y="668"/>
			<point x="141" y="761" type="curve"/>
			<point x="128" y="764" type="line"/>
			<point x="111" y="707"/>
			<point x="73" y="667"/>
			<point x="3" y="667" type="curve" smooth="yes"/>
			<point x="-66" y="667"/>
			<point x="-102" y="699"/>
			<point x="-123" y="765" type="curve"/>
			<point x="-138" y="761" type="line"/>
			<point x="-127" y="662"/>
			<point x="-97" y="587"/>
		</contour>
	</outline>
	<anchor name="_top" x="0" y="550"/>
</glyph>
<glyph name="dotaccentcomb" format="2">
	<unicode hex="0307"/>
	<outline>
		<contour>
			<point x="0" y="622" type="curve" smooth="yes"/>
			<point x="38" y="622"/>
			<point x="66" y="650"/>
			<point x="66" y="687" type="curve" smooth="yes"/>
			<point x="66" y="724"/>
			<point x="38" y="751"/>
			<point x="0" y="751" type="curve" smooth="yes"/>
			<point x="-37" y="751"/>
			<point x="-65" y="723"/>
			<point x="-65" y="686" type="curve" smooth="yes"/>
			<point x="-65" y="649"/>
			<point x="-37" y="622"/>
		</contour>
	</outline>
	<anchor name="_top" x="0" y="550"/>
</glyph>
<glyph name="dieresiscomb" format="2">
	<unicode hex="0308"/>
	<outline>
		<contour>
			<point x="92" y="624" type="curve" smooth="yes"/>
			<point x="127" y="624"/>
			<point x="152" y="649"/>
			<point x="152" y="683" type="curve" smooth="yes"/>
			<point x="152" y="717"/>
			<point x="127" y="741"/>
			<point x="92" y="741" type="curve" smooth="yes"/>
			<point x="57" y="741"/>
			<point x="33" y="716"/>
			<point x="33" y="682" type="curve" smooth="yes"/>
			<point x="33" y="648"/>
			<point x="57" y="624"/>
		</contour>
		<contour>
			<point x="-95" y="624" type="curve" smooth="yes"/>
			<point x="-59" y="624"/>
			<point x="-35" y="649"/>
			<point x="-35" y="683" type="curve" smooth="yes"/>
			<point x="-35" y="717"/>
			<point x="-59" y="741"/>
			<point x="-95" y="741" type="curve" smooth="yes"/>
			<point x="-129" y="741"/>
			<point x="-154" y="716"/>
			<point x="-154" y="682" type="curve" smooth="yes"/>
			<point x="-154" y="648"/>
			<point x="-129" y="624"/>
		</contour>
	</outline>
	<anchor name="_top" x="1" y="550"/>
</glyph>
<glyph name="caroncomb" format="2">
	<unicode hex="030C"/>
	<outline>
		<contour>
			<point x="0" y="586" type="curve" smooth="yes"/>
			<point x="14" y="586"/>
			<point x="28" y="592"/>
			<point x="39" y="608" type="curve" smooth="yes"/>
			<point x="147" y="764" type="line"/>
			<point x="139" y="772" type="line"/>
			<point x="0" y="677" type="line"/>
			<point x="-135" y="771" type="line"/>
			<point x="-143" y="763" type="line"/>
			<point x="-41" y="614" type="line" smooth="yes"/>
			<point x="-25" y="591"/>
			<point x="-14" y="586"/>
		</contour>
	</outline>
	<anchor name="_top" x="0" y="550"/>
</glyph>
<glyph name="breveinvertedcomb" format="2">
	<unicode hex="0311"/>
	<outline>
		<contour>
			<point x="4" y="757" type="curve" smooth="yes"/>
			<point x="-93" y="757"/>
			<point x="-130" y="676"/>
			<point x="-139" y="583" type="curve"/>
			<point x="-126" y="580" type="line"/>
			<point x="-109" y="637"/>
			<point x="-71" y="677"/>
			<point x="-1" y="677" type="curve" smooth="yes"/>
			<point x="68" y="677"/>
			<point x="104" y="645"/>
			<point x="125" y="579" type="curve"/>
			<point x="140" y="583" type="line"/>
			<point x="129" y="682"/>
			<point x="99" y="757"/>
		</contour>
	</outline>
	<anchor name="_top" x="0" y="550"/>
</glyph>
<glyph name="dieresisbelowcomb" format="2">
	<unicode hex="0324"/>
	<outline>
		<contour>
			<point x="93" y="-186" type="curve" smooth="yes"/>
			<point x="128" y="-186"/>
			<point x="153" y="-161"/>
			<point x="153" y="-127" type="curve" smooth="yes"/>
			<point x="153" y="-93"/>
			<point x="128" y="-69"/>
			<point x="93" y="-69" type="curve" smooth="yes"/>
			<point x="58" y="-69"/>
			<point x="34" y="-94"/>
			<point x="34" y="-128" type="curve" smooth="yes"/>
			<point x="34" y="-162"/>
			<point x="58" y="-186"/>
		</contour>
		<contour>
			<point x="-94" y="-186" type="curve" smooth="yes"/>
			<point x="-58" y="-186"/>
			<point x="-34" y="-161"/>
			<point x="-34" y="-127" type="curve" smooth="yes"/>
			<point x="-34" y="-93"/>
			<point x="-58" y="-69"/>
			<point x="-94" y="-69" type="curve" smooth="yes"/>
			<point x="-128" y="-69"/>
			<point x="-153" y="-94"/>
			<point x="-153" y="-128" type="curve" smooth="yes"/>
			<point x="-153" y="-162"/>
			<point x="-128" y="-186"/>
		</contour>
	</outline>
	<anchor name="_bottom" x="0" y="-30"/>
</glyph>
<glyph name="commaaccentcomb" format="2">
	<unicode hex="0326"/>
	<outline>
		<contour>
			<point x="-34" y="-267" type="line"/>
			<point x="47" y="-219"/>
			<point x="61" y="-169"/>
			<point x="61" y="-126" type="curve" smooth="yes"/>
			<point x="61" y="-89"/>
			<point x="42" y="-58"/>
			<point x="0" y="-58" type="curve" smooth="yes"/>
			<point x="-34" y="-58"/>
			<point x="-55" y="-80"/>
			<point x="-55" y="-110" type="curve" smooth="yes"/>
			<point x="-55" y="-138"/>
			<point x="-39" y="-158"/>
			<point x="9" y="-158" type="curve" smooth="yes"/>
			<point x="21" y="-158" type="line"/>
			<point x="21" y="-191"/>
			<point x="8" y="-218"/>
			<point x="-42" y="-255" type="curve"/>
		</contour>
	</outline>
	<anchor name="_bottom" x="0" y="-30"/>
</glyph>
<glyph name="macronbelowcomb" format="2">
	<unicode hex="0331"/>
	<outline>
		<contour>
			<point x="-132" y="-152" type="line"/>
			<point x="132" y="-152" type="line"/>
			<point x="132" y="-91" type="line"/>
			<point x="-132" y="-91" type="line"/>
		</contour>
	</outline>
	<anchor name="_bottom" x="0" y="-30"/>
</glyph>
<glyph name="tonos" format="2">
	<unicode hex="0384"/>
	<advance width="479"/>
	<outline>
		<contour>
			<point x="196" y="572" type="line"/>
			<point x="333" y="738" type="line"/>
			<point x="333" y="745" type="line"/>
			<point x="317" y="772"/>
			<point x="304" y="782"/>
			<point x="286" y="782" type="curve" smooth="yes"/>
			<point x="265" y="782"/>
			<point x="256" y="773"/>
			<point x="244" y="739" type="curve" smooth="yes"/>
			<point x="187" y="576" type="line"/>
		</contour>
	</outline>
	<anchor name="_top" x="207" y="550"/>
</glyph>
<glyph name="dieresistonos" format="2">
	<unicode hex="0385"/>
	<advance width="594"/>
	<outline>
		<contour>
			<point x="244" y="584" type="line"/>
			<point x="366" y="755" type="line"/>
			<point x="366" y="762" type="line"/>
			<point x="349" y="785"/>
			<point x="336" y="794"/>
			<point x="320" y="794" type="curve" smooth="yes"/>
			<point x="296" y="794"/>
			<point x="288" y="785"/>
			<point x="278" y="748" type="curve" smooth="yes"/>
			<point x="235" y="587" type="line"/>
		</contour>
		<contour>
			<point x="151" y="616" type="curve" smooth="yes"/>
			<point x="186" y="616"/>
			<point x="211" y="640"/>
			<point x="211" y="675" type="curve" smooth="yes"/>
			<point x="211" y="709"/>
			<point x="187" y="733"/>
			<point x="151" y="733" type="curve" smooth="yes"/>
			<point x="117" y="733"/>
			<point x="92" y="708"/>
			<point x="92" y="674" type="curve" smooth="yes"/>
			<point x="92" y="640"/>
			<point x="117" y="616"/>
		</contour>
		<contour>
			<point x="442" y="616" type="curve" smooth="yes"/>
			<point x="477" y="616"/>
			<point x="502" y="641"/>
			<point x="502" y="675" type="curve" smooth="yes"/>
			<point x="502" y="709"/>
			<point x="477" y="733"/>
			<point x="442" y="733" type="curve" smooth="yes"/>
			<point x="408" y="733"/>
			<point x="383" y="709"/>
			<point x="383" y="674" type="curve" smooth="yes"/>
			<point x="383" y="640"/>
			<point x="407" y="616"/>
		</contour>
	</outline>
	<anchor name="_top" x="257" y="550"/>
</glyph>
<glyph name="Gamma" format="2">
	<unicode hex="0393"/>
	<advance width="570"/>
	<outline>
		<contour>
			<point x="59" y="0" type="line"/>
			<point x="359" y="0" type="line"/>
			<point x="359" y="12" type="line"/>
			<point x="284" y="15" type="line" smooth="yes"/>
			<point x="255" y="16"/>
			<point x="247" y="27"/>
			<point x="247" y="65" type="curve"/>
			<point x="247" y="714" type="line"/>
			<point x="334" y="714" type="line" smooth="yes"/>
			<point x="436" y="714"/>
			<point x="474" y="682"/>
			<point x="512" y="564" type="curve"/>
			<point x="525" y="567" type="line"/>
			<point x="497" y="730" type="line"/>
			<point x="59" y="730" type="line"/>
			<point x="59" y="718" type="line"/>
			<point x="115" y="715" type="line" smooth="yes"/>
			<point x="141" y="714"/>
			<point x="148" y="704"/>
			<point x="148" y="668" type="curve" smooth="yes"/>
			<point x="148" y="67" type="line" smooth="yes"/>
			<point x="148" y="29"/>
			<point x="141" y="18"/>
			<point x="117" y="16" type="curve" smooth="yes"/>
			<point x="59" y="12" type="line"/>
		</contour>
	</outline>
</glyph>
<glyph name="Theta" format="2">
	<unicode hex="0398"/>
	<advance width="757"/>
	<outline>
		<contour>
			<point x="380" y="-14" type="curve" smooth="yes"/>
			<point x="578" y="-14"/>
			<point x="704" y="140"/>
			<point x="704" y="383" type="curve" smooth="yes"/>
			<point x="704" y="606"/>
			<point x="583" y="744"/>
			<point x="389" y="744" type="curve" smooth="yes"/>
			<point x="183" y="744"/>
			<point x="59" y="597"/>
			<point x="59" y="351" type="curve" smooth="yes"/>
			<point x="59" y="126"/>
			<point x="183" y="-14"/>
		</contour>
		<contour>
			<point x="394" y="3" type="curve" smooth="yes"/>
			<point x="244" y="3"/>
			<point x="165" y="132"/>
			<point x="165" y="375" type="curve" smooth="yes"/>
			<point x="165" y="619"/>
			<point x="230" y="730"/>
			<point x="374" y="730" type="curve" smooth="yes"/>
			<point x="522" y="730"/>
			<point x="595" y="608"/>
			<point x="595" y="361" type="curve" smooth="yes"/>
			<point x="595" y="109"/>
			<point x="535" y="3"/>
		</contour>
		<contour>
			<point x="232" y="270" type="line"/>
			<point x="246" y="272" type="line"/>
			<point x="268" y="345"/>
			<point x="280" y="356"/>
			<point x="344" y="356" type="curve" smooth="yes"/>
			<point x="420" y="356" type="line" smooth="yes"/>
			<point x="484" y="356"/>
			<point x="500" y="342"/>
			<point x="518" y="272" type="curve"/>
			<point x="532" y="274" type="line"/>
			<point x="532" y="458" type="line"/>
			<point x="518" y="456" type="line"/>
			<point x="496" y="383"/>
			<point x="484" y="372"/>
			<point x="420" y="372" type="curve" smooth="yes"/>
			<point x="344" y="372" type="line" smooth="yes"/>
			<point x="280" y="372"/>
			<point x="264" y="386"/>
			<point x="246" y="456" type="curve"/>
			<point x="232" y="454" type="line"/>
		</contour>
	</outline>
</glyph>
<glyph name="Lambda" format="2">
	<unicode hex="039B"/>
	<advance width="641"/>
	<outline>
		<contour>
			<point x="0" y="0" type="line"/>
			<point x="194" y="0" type="line"/>
			<point x="194" y="11" type="line"/>
			<point x="134" y="18" type="line" smooth="yes"/>
			<point x="107" y="21"/>
			<point x="100" y="38"/>
			<point x="111" y="73" type="curve"/>
			<point x="285" y="650" type="line"/>
			<point x="287" y="650" type="line"/>
			<point x="455" y="67" type="line"/>
			<point x="464" y="35"/>
			<point x="459" y="22"/>
			<point x="436" y="19" type="curve" smooth="yes"/>
			<point x="382" y="12" type="line"/>
			<point x="382" y="0" type="line"/>
			<point x="641" y="0" type="line"/>
			<point x="641" y="14" type="line"/>
			<point x="605" y="21" type="line" smooth="yes"/>
			<point x="579" y="26"/>
			<point x="573" y="33"/>
			<point x="561" y="71" type="curve" smooth="yes"/>
			<point x="357" y="730" type="line"/>
			<point x="289" y="730" type="line"/>
			<point x="84" y="74" type="line" smooth="yes"/>
			<point x="71" y="34"/>
			<point x="62" y="23"/>
			<point x="38" y="19" type="curve" smooth="yes"/>
			<point x="0" y="12" type="line"/>
		</contour>
	</outline>
</glyph>
<glyph name="Xi" format="2">
	<unicode hex="039E"/>
	<advance width="638"/>
	<outline>
		<contour>
			<point x="66" y="0" type="line"/>
			<point x="572" y="0" type="line"/>
			<point x="588" y="183" type="line"/>
			<point x="575" y="183" type="line"/>
			<point x="535" y="72"/>
			<point x="504" y="46"/>
			<point x="411" y="46" type="curve" smooth="yes"/>
			<point x="227" y="46" type="line" smooth="yes"/>
			<point x="134" y="46"/>
			<point x="103" y="72"/>
			<point x="63" y="183" type="curve"/>
			<point x="50" y="183" type="line"/>
		</contour>
		<contour>
			<point x="137" y="256" type="line"/>
			<point x="151" y="258" type="line"/>
			<point x="171" y="321"/>
			<point x="180" y="327"/>
			<point x="249" y="327" type="curve" smooth="yes"/>
			<point x="381" y="327" type="line" smooth="yes"/>
			<point x="450" y="327"/>
			<point x="462" y="318"/>
			<point x="479" y="258" type="curve"/>
			<point x="493" y="260" type="line"/>
			<point x="493" y="444" type="line"/>
			<point x="479" y="442" type="line"/>
			<point x="459" y="380"/>
			<point x="449" y="373"/>
			<point x="381" y="373" type="curve" smooth="yes"/>
			<point x="249" y="373" type="line" smooth="yes"/>
			<point x="182" y="373"/>
			<point x="168" y="382"/>
			<point x="151" y="442" type="curve"/>
			<point x="137" y="440" type="line"/>
		</contour>
		<contour>
			<point x="78" y="554" type="line"/>
			<point x="115" y="664"/>
			<point x="142" y="684"/>
			<point x="256" y="684" type="curve" smooth="yes"/>
			<point x="382" y="684" type="line" smooth="yes"/>
			<point x="496" y="684"/>
			<point x="523" y="664"/>
			<point x="560" y="554" type="curve"/>
			<point x="573" y="557" type="line"/>
			<point x="545" y="730" type="line"/>
			<point x="93" y="730" type="line"/>
			<point x="65" y="557" type="line"/>
		</contour>
	</outline>
</glyph>
<glyph name="Phi" format="2">
	<unicode hex="03A6"/>
	<advance width="923"/>
	<outline>
		<contour>
			<point x="326" y="-30" type="line"/>
			<point x="603" y="-30" type="line"/>
			<point x="603" y="-18" type="line"/>
			<point x="546" y="-14" type="line" smooth="yes"/>
			<point x="521" y="-12"/>
			<point x="514" y="-2"/>
			<point x="514" y="33" type="curve" smooth="yes"/>
			<point x="514" y="68" type="line"/>
			<point x="737" y="77"/>
			<point x="870" y="194"/>
			<point x="870" y="381" type="curve" smooth="yes"/>
			<point x="870" y="556"/>
			<point x="737" y="662"/>
			<point x="514" y="666" type="curve"/>
			<point x="514" y="694" type="line" smooth="yes"/>
			<point x="514" y="732"/>
			<point x="521" y="744"/>
			<point x="544" y="745" type="curve" smooth="yes"/>
			<point x="603" y="748" type="line"/>
			<point x="603" y="760" type="line"/>
			<point x="326" y="760" type="line"/>
			<point x="326" y="748" type="line"/>
			<point x="382" y="745" type="line" smooth="yes"/>
			<point x="408" y="744"/>
			<point x="415" y="734"/>
			<point x="415" y="698" type="curve" smooth="yes"/>
			<point x="415" y="665" type="line"/>
			<point x="185" y="658"/>
			<point x="53" y="545"/>
			<point x="53" y="356" type="curve" smooth="yes"/>
			<point x="53" y="179"/>
			<point x="189" y="71"/>
			<point x="415" y="67" type="curve"/>
			<point x="415" y="37" type="line" smooth="yes"/>
			<point x="415" y="-1"/>
			<point x="408" y="-12"/>
			<point x="384" y="-14" type="curve" smooth="yes"/>
			<point x="326" y="-18" type="line"/>
		</contour>
		<contour>
			<point x="415" y="86" type="line"/>
			<point x="245" y="97"/>
			<point x="159" y="193"/>
			<point x="159" y="374" type="curve" smooth="yes"/>
			<point x="159" y="566"/>
			<point x="238" y="652"/>
			<point x="415" y="654" type="curve"/>
		</contour>
		<contour>
			<point x="514" y="83" type="curve"/>
			<point x="514" y="651" type="line"/>
			<point x="681" y="640"/>
			<point x="761" y="547"/>
			<point x="761" y="363" type="curve" smooth="yes"/>
			<point x="761" y="167"/>
			<point x="688" y="85"/>
		</contour>
	</outline>
</glyph>
<glyph name="Omega" format="2">
	<unicode hex="03A9"/>
	<advance width="773"/>
	<outline>
		<contour>
			<point x="60" y="0" type="line"/>
			<point x="353" y="0" type="line"/>
			<point x="353" y="131" type="line"/>
			<point x="224" y="171"/>
			<point x="171" y="257"/>
			<point x="171" y="428" type="curve" smooth="yes"/>
			<point x="171" y="616"/>
			<point x="253" y="730"/>
			<point x="388" y="730" type="curve" smooth="yes"/>
			<point x="516" y="730"/>
			<point x="600" y="604"/>
			<point x="600" y="414" type="curve" smooth="yes"/>
			<point x="600" y="260"/>
			<point x="544" y="173"/>
			<point x="418" y="130" type="curve"/>
			<point x="418" y="0" type="line"/>
			<point x="713" y="0" type="line"/>
			<point x="738" y="195" type="line"/>
			<point x="725" y="195" type="line"/>
			<point x="690" y="71"/>
			<point x="673" y="51"/>
			<point x="606" y="51" type="curve" smooth="yes"/>
			<point x="453" y="51" type="line"/>
			<point x="453" y="101" type="line"/>
			<point x="612" y="145"/>
			<point x="709" y="269"/>
			<point x="709" y="428" type="curve" smooth="yes"/>
			<point x="709" y="613"/>
			<point x="579" y="743"/>
			<point x="394" y="743" type="curve" smooth="yes"/>
			<point x="202" y="743"/>
			<point x="65" y="605"/>
			<point x="65" y="411" type="curve" smooth="yes"/>
			<point x="65" y="264"/>
			<point x="166" y="141"/>
			<point x="318" y="102" type="curve"/>
			<point x="318" y="51" type="line"/>
			<point x="164" y="51" type="line" smooth="yes"/>
			<point x="100" y="51"/>
			<point x="81" y="75"/>
			<point x="48" y="195" type="curve"/>
			<point x="35" y="195" type="line"/>
		</contour>
	</outline>
	<anchor name="bottom" x="393" y="-45"/>
	<anchor name="side" x="799" y="217"/>
	<anchor name="topleft" x="46" y="730"/>
	<guideline x="71" y="418" angle="90"/>
</glyph>
<glyph name="beta" format="2">
	<unicode hex="03B2"/>
	<advance width="599"/>
	<outline>
		<contour>
			<point x="90" y="-221" type="line"/>
			<point x="179" y="-214" type="line"/>
			<point x="166" y="-133"/>
			<point x="160" y="-59"/>
			<point x="160" y="21" type="curve"/>
			<point x="162" y="21" type="line"/>
			<point x="191" y="1"/>
			<point x="252" y="-14"/>
			<point x="303" y="-14" type="curve" smooth="yes"/>
			<point x="445" y="-14"/>
			<point x="547" y="87"/>
			<point x="547" y="229" type="curve" smooth="yes"/>
			<point x="547" y="341"/>
			<point x="484" y="412"/>
			<point x="373" y="426" type="curve"/>
			<point x="373" y="428" type="line"/>
			<point x="455" y="463"/>
			<point x="494" y="518"/>
			<point x="494" y="598" type="curve" smooth="yes"/>
			<point x="494" y="710"/>
			<point x="416" y="782"/>
			<point x="295" y="782" type="curve" smooth="yes"/>
			<point x="151" y="782"/>
			<point x="73" y="697"/>
			<point x="73" y="538" type="curve" smooth="yes"/>
			<point x="73" y="-13" type="line" smooth="yes"/>
			<point x="73" y="-70"/>
			<point x="78" y="-165"/>
			<point x="83" y="-216" type="curve"/>
		</contour>
		<contour>
			<point x="298" y="3" type="curve" smooth="yes"/>
			<point x="248" y="3"/>
			<point x="187" y="25"/>
			<point x="161" y="52" type="curve"/>
			<point x="161" y="546" type="line" smooth="yes"/>
			<point x="161" y="702"/>
			<point x="196" y="764"/>
			<point x="284" y="764" type="curve" smooth="yes"/>
			<point x="367" y="764"/>
			<point x="411" y="704"/>
			<point x="411" y="590" type="curve" smooth="yes"/>
			<point x="411" y="528"/>
			<point x="393" y="481"/>
			<point x="349" y="428" type="curve"/>
			<point x="325" y="456"/>
			<point x="296" y="472"/>
			<point x="267" y="472" type="curve" smooth="yes"/>
			<point x="234" y="472"/>
			<point x="211" y="451"/>
			<point x="211" y="419" type="curve" smooth="yes"/>
			<point x="211" y="385"/>
			<point x="234" y="363"/>
			<point x="270" y="363" type="curve" smooth="yes"/>
			<point x="299" y="363"/>
			<point x="323" y="378"/>
			<point x="349" y="413" type="curve"/>
			<point x="412" y="374"/>
			<point x="447" y="305"/>
			<point x="447" y="218" type="curve" smooth="yes"/>
			<point x="447" y="90"/>
			<point x="387" y="3"/>
		</contour>
	</outline>
</glyph>
<glyph name="gamma" format="2">
	<unicode hex="03B3"/>
	<advance width="566"/>
	<outline>
		<contour>
			<point x="222" y="-187" type="curve"/>
			<point x="240" y="-188"/>
			<point x="249" y="-186"/>
			<point x="261" y="-178" type="curve"/>
			<point x="261" y="-151"/>
			<point x="259" y="-77"/>
			<point x="256" y="9" type="curve"/>
			<point x="404" y="114"/>
			<point x="508" y="298"/>
			<point x="508" y="454" type="curve" smooth="yes"/>
			<point x="508" y="475"/>
			<point x="506" y="493"/>
			<point x="501" y="508" type="curve"/>
			<point x="496" y="513" type="line"/>
			<point x="405" y="513" type="line"/>
			<point x="410" y="501"/>
			<point x="413" y="477"/>
			<point x="413" y="451" type="curve" smooth="yes"/>
			<point x="413" y="259"/>
			<point x="361" y="119"/>
			<point x="258" y="33" type="curve"/>
			<point x="255" y="33" type="line"/>
			<point x="242" y="405"/>
			<point x="206" y="522"/>
			<point x="104" y="522" type="curve" smooth="yes"/>
			<point x="64" y="522"/>
			<point x="27" y="501"/>
			<point x="0" y="462" type="curve"/>
			<point x="5" y="455" type="line"/>
			<point x="19" y="460"/>
			<point x="34" y="463"/>
			<point x="49" y="463" type="curve" smooth="yes"/>
			<point x="142" y="463"/>
			<point x="185" y="347"/>
			<point x="217" y="13" type="curve"/>
			<point x="182" y="-43"/>
			<point x="184" y="-140"/>
		</contour>
	</outline>
</glyph>
<glyph name="delta" format="2">
	<unicode hex="03B4"/>
	<advance width="547"/>
	<outline>
		<contour>
			<point x="263" y="-14" type="curve" smooth="yes"/>
			<point x="394" y="-14"/>
			<point x="504" y="95"/>
			<point x="504" y="223" type="curve" smooth="yes"/>
			<point x="504" y="333"/>
			<point x="459" y="402"/>
			<point x="321" y="505" type="curve" smooth="yes"/>
			<point x="203" y="592"/>
			<point x="180" y="619"/>
			<point x="180" y="668" type="curve" smooth="yes"/>
			<point x="180" y="726"/>
			<point x="226" y="765"/>
			<point x="296" y="765" type="curve" smooth="yes"/>
			<point x="351" y="765"/>
			<point x="396" y="748"/>
			<point x="427" y="716" type="curve"/>
			<point x="393" y="658"/>
			<point x="386" y="643"/>
			<point x="386" y="628" type="curve" smooth="yes"/>
			<point x="386" y="597"/>
			<point x="406" y="579"/>
			<point x="441" y="579" type="curve" smooth="yes"/>
			<point x="478" y="579"/>
			<point x="498" y="603"/>
			<point x="498" y="645" type="curve" smooth="yes"/>
			<point x="498" y="718"/>
			<point x="405" y="782"/>
			<point x="299" y="782" type="curve" smooth="yes"/>
			<point x="184" y="782"/>
			<point x="109" y="723"/>
			<point x="109" y="631" type="curve" smooth="yes"/>
			<point x="109" y="569"/>
			<point x="152" y="513"/>
			<point x="246" y="453" type="curve"/>
			<point x="116" y="429"/>
			<point x="38" y="336"/>
			<point x="38" y="205" type="curve" smooth="yes"/>
			<point x="38" y="67"/>
			<point x="121" y="-14"/>
		</contour>
		<contour>
			<point x="268" y="4" type="curve" smooth="yes"/>
			<point x="187" y="4"/>
			<point x="138" y="79"/>
			<point x="138" y="203" type="curve" smooth="yes"/>
			<point x="138" y="323"/>
			<point x="184" y="413"/>
			<point x="262" y="447" type="curve"/>
			<point x="364" y="375"/>
			<point x="404" y="308"/>
			<point x="404" y="207" type="curve" smooth="yes"/>
			<point x="404" y="81"/>
			<point x="353" y="4"/>
		</contour>
	</outline>
</glyph>
<glyph name="eta" format="2">
	<unicode hex="03B7"/>
	<advance width="588"/>
	<outline>
		<contour>
			<point x="508" y="-221" type="line"/>
			<point x="515" y="-216" type="line"/>
			<point x="522" y="-124"/>
			<point x="525" y="-68"/>
			<point x="525" y="7" type="curve" smooth="yes"/>
			<point x="525" y="356" type="line" smooth="yes"/>
			<point x="525" y="464"/>
			<point x="468" y="527"/>
			<point x="369" y="527" type="curve" smooth="yes"/>
			<point x="298" y="527"/>
			<point x="234" y="483"/>
			<point x="207" y="415" type="curve"/>
			<point x="204" y="415" type="line"/>
			<point x="199" y="490"/>
			<point x="174" y="522"/>
			<point x="120" y="522" type="curve" smooth="yes"/>
			<point x="82" y="522"/>
			<point x="54" y="508"/>
			<point x="25" y="475" type="curve"/>
			<point x="30" y="468" type="line"/>
			<point x="47" y="477"/>
			<point x="64" y="482"/>
			<point x="77" y="482" type="curve" smooth="yes"/>
			<point x="104" y="482"/>
			<point x="116" y="467"/>
			<point x="116" y="433" type="curve" smooth="yes"/>
			<point x="116" y="0" type="line"/>
			<point x="209" y="0" type="line"/>
			<point x="209" y="350" type="line" smooth="yes"/>
			<point x="209" y="431"/>
			<point x="262" y="489"/>
			<point x="336" y="489" type="curve" smooth="yes"/>
			<point x="407" y="489"/>
			<point x="432" y="455"/>
			<point x="432" y="361" type="curve" smooth="yes"/>
			<point x="432" y="26" type="line" smooth="yes"/>
			<point x="432" y="-77"/>
			<point x="429" y="-123"/>
			<point x="414" y="-214" type="curve"/>
		</contour>
	</outline>
	<anchor name="bottom" x="162" y="-30"/>
	<anchor name="top" x="272" y="550"/>
</glyph>
<glyph name="iota" format="2">
	<unicode hex="03B9"/>
	<advance width="281"/>
	<outline>
		<contour>
			<point x="177" y="-14" type="curve" smooth="yes"/>
			<point x="214" y="-14"/>
			<point x="255" y="12"/>
			<point x="281" y="53" type="curve"/>
			<point x="276" y="60" type="line"/>
			<point x="261" y="52"/>
			<point x="232" y="45"/>
			<point x="209" y="45" type="curve" smooth="yes"/>
			<point x="167" y="45"/>
			<point x="149" y="72"/>
			<point x="149" y="134" type="curve" smooth="yes"/>
			<point x="149" y="199"/>
			<point x="158" y="410"/>
			<point x="166" y="513" type="curve"/>
			<point x="160" y="518" type="line"/>
			<point x="63" y="511" type="line"/>
			<point x="65" y="466"/>
			<point x="67" y="263"/>
			<point x="67" y="143" type="curve" smooth="yes"/>
			<point x="67" y="33"/>
			<point x="100" y="-14"/>
		</contour>
	</outline>
	<anchor name="top" x="114" y="550"/>
</glyph>
<glyph name="kappa" format="2">
	<unicode hex="03BA"/>
	<advance width="571"/>
	<outline>
		<contour>
			<point x="441" y="-14" type="curve" smooth="yes"/>
			<point x="476" y="-14"/>
			<point x="508" y="2"/>
			<point x="536" y="33" type="curve"/>
			<point x="531" y="40" type="line"/>
			<point x="518" y="32"/>
			<point x="498" y="26"/>
			<point x="487" y="26" type="curve" smooth="yes"/>
			<point x="457" y="26"/>
			<point x="436" y="52"/>
			<point x="388" y="151" type="curve" smooth="yes"/>
			<point x="351" y="225"/>
			<point x="321" y="293"/>
			<point x="297" y="359" type="curve"/>
			<point x="345" y="418" type="line" smooth="yes"/>
			<point x="378" y="459"/>
			<point x="417" y="494"/>
			<point x="431" y="495" type="curve"/>
			<point x="418" y="449"/>
			<point x="432" y="421"/>
			<point x="470" y="421" type="curve" smooth="yes"/>
			<point x="500" y="421"/>
			<point x="521" y="443"/>
			<point x="521" y="473" type="curve" smooth="yes"/>
			<point x="521" y="505"/>
			<point x="496" y="527"/>
			<point x="458" y="527" type="curve" smooth="yes"/>
			<point x="424" y="527"/>
			<point x="388" y="500"/>
			<point x="334" y="434" type="curve" smooth="yes"/>
			<point x="155" y="214" type="line"/>
			<point x="158" y="305"/>
			<point x="165" y="413"/>
			<point x="171" y="513" type="curve"/>
			<point x="165" y="518" type="line"/>
			<point x="68" y="511" type="line"/>
			<point x="69" y="0" type="line"/>
			<point x="155" y="0" type="line"/>
			<point x="155" y="190" type="line"/>
			<point x="230" y="282" type="line"/>
			<point x="248" y="228"/>
			<point x="286" y="141"/>
			<point x="317" y="81" type="curve" smooth="yes"/>
			<point x="354" y="9"/>
			<point x="384" y="-14"/>
		</contour>
	</outline>
</glyph>
<glyph name="lambda" format="2">
	<unicode hex="03BB"/>
	<advance width="554"/>
	<outline>
		<contour>
			<point x="554" y="57" type="line"/>
			<point x="538" y="50"/>
			<point x="517" y="46"/>
			<point x="496" y="46" type="curve" smooth="yes"/>
			<point x="453" y="46"/>
			<point x="429" y="69"/>
			<point x="410" y="128" type="curve" smooth="yes"/>
			<point x="251" y="630" type="line" smooth="yes"/>
			<point x="215" y="743"/>
			<point x="176" y="782"/>
			<point x="97" y="782" type="curve" smooth="yes"/>
			<point x="42" y="782"/>
			<point x="0" y="749"/>
			<point x="0" y="705" type="curve" smooth="yes"/>
			<point x="0" y="672"/>
			<point x="20" y="653"/>
			<point x="55" y="653" type="curve" smooth="yes"/>
			<point x="82" y="653"/>
			<point x="102" y="674"/>
			<point x="102" y="702" type="curve" smooth="yes"/>
			<point x="102" y="715"/>
			<point x="93" y="739"/>
			<point x="79" y="762" type="curve"/>
			<point x="84" y="765"/>
			<point x="91" y="765"/>
			<point x="102" y="765" type="curve" smooth="yes"/>
			<point x="169" y="765"/>
			<point x="199" y="732"/>
			<point x="230" y="627" type="curve" smooth="yes"/>
			<point x="265" y="510" type="line"/>
			<point x="0" y="5" type="line"/>
			<point x="7" y="0" type="line"/>
			<point x="111" y="0" type="line"/>
			<point x="298" y="389" type="line"/>
			<point x="300" y="389" type="line"/>
			<point x="380" y="120" type="line" smooth="yes"/>
			<point x="410" y="15"/>
			<point x="431" y="-13"/>
			<point x="479" y="-13" type="curve" smooth="yes"/>
			<point x="510" y="-13"/>
			<point x="541" y="12"/>
			<point x="559" y="50" type="curve"/>
		</contour>
	</outline>
</glyph>
<glyph name="mu" format="2">
	<unicode hex="03BC"/>
	<advance width="598"/>
	<outline>
		<contour>
			<point x="92" y="-221" type="line"/>
			<point x="182" y="-214" type="line"/>
			<point x="171" y="-140"/>
			<point x="163" y="-45"/>
			<point x="163" y="21" type="curve"/>
			<point x="165" y="21" type="line"/>
			<point x="185" y="0"/>
			<point x="222" y="-14"/>
			<point x="258" y="-14" type="curve" smooth="yes"/>
			<point x="323" y="-14"/>
			<point x="373" y="26"/>
			<point x="392" y="93" type="curve"/>
			<point x="395" y="93" type="line"/>
			<point x="407" y="19"/>
			<point x="435" y="-14"/>
			<point x="486" y="-14" type="curve" smooth="yes"/>
			<point x="524" y="-14"/>
			<point x="555" y="1"/>
			<point x="583" y="33" type="curve"/>
			<point x="578" y="40" type="line"/>
			<point x="563" y="32"/>
			<point x="542" y="26"/>
			<point x="529" y="26" type="curve" smooth="yes"/>
			<point x="482" y="26"/>
			<point x="468" y="51"/>
			<point x="468" y="138" type="curve" smooth="yes"/>
			<point x="468" y="214"/>
			<point x="474" y="362"/>
			<point x="484" y="513" type="curve"/>
			<point x="478" y="518" type="line"/>
			<point x="381" y="511" type="line"/>
			<point x="381" y="479"/>
			<point x="386" y="184"/>
			<point x="386" y="151" type="curve" smooth="yes"/>
			<point x="386" y="72"/>
			<point x="337" y="23"/>
			<point x="257" y="23" type="curve" smooth="yes"/>
			<point x="223" y="23"/>
			<point x="185" y="36"/>
			<point x="164" y="55" type="curve"/>
			<point x="164" y="169"/>
			<point x="169" y="378"/>
			<point x="176" y="513" type="curve"/>
			<point x="170" y="518" type="line"/>
			<point x="73" y="511" type="line"/>
			<point x="74" y="494"/>
			<point x="76" y="124"/>
			<point x="76" y="7" type="curve" smooth="yes"/>
			<point x="76" y="-82"/>
			<point x="77" y="-115"/>
			<point x="86" y="-216" type="curve"/>
		</contour>
	</outline>
</glyph>
<glyph name="xi" format="2">
	<unicode hex="03BE"/>
	<advance width="470"/>
	<outline>
		<contour>
			<point x="345" y="-230" type="line"/>
			<point x="417" y="-159"/>
			<point x="445" y="-114"/>
			<point x="445" y="-68" type="curve" smooth="yes"/>
			<point x="445" y="2"/>
			<point x="410" y="34"/>
			<point x="293" y="69" type="curve" smooth="yes"/>
			<point x="118" y="121"/>
			<point x="83" y="143"/>
			<point x="83" y="200" type="curve" smooth="yes"/>
			<point x="83" y="265"/>
			<point x="156" y="321"/>
			<point x="271" y="344" type="curve"/>
			<point x="310" y="318"/>
			<point x="329" y="311"/>
			<point x="352" y="311" type="curve" smooth="yes"/>
			<point x="390" y="311"/>
			<point x="416" y="334"/>
			<point x="416" y="368" type="curve" smooth="yes"/>
			<point x="416" y="401"/>
			<point x="391" y="426"/>
			<point x="358" y="426" type="curve" smooth="yes"/>
			<point x="334" y="426"/>
			<point x="315" y="418"/>
			<point x="273" y="393" type="curve"/>
			<point x="166" y="408"/>
			<point x="115" y="442"/>
			<point x="115" y="499" type="curve" smooth="yes"/>
			<point x="115" y="573"/>
			<point x="216" y="632"/>
			<point x="445" y="691" type="curve"/>
			<point x="445" y="703" type="line"/>
			<point x="402" y="766" type="line"/>
			<point x="347" y="752"/>
			<point x="280" y="723"/>
			<point x="207" y="681" type="curve"/>
			<point x="167" y="675"/>
			<point x="110" y="682"/>
			<point x="89" y="695" type="curve"/>
			<point x="106" y="717"/>
			<point x="119" y="745"/>
			<point x="119" y="761" type="curve" smooth="yes"/>
			<point x="119" y="788"/>
			<point x="100" y="806"/>
			<point x="72" y="806" type="curve" smooth="yes"/>
			<point x="39" y="806"/>
			<point x="18" y="784"/>
			<point x="18" y="749" type="curve" smooth="yes"/>
			<point x="18" y="689"/>
			<point x="81" y="651"/>
			<point x="171" y="657" type="curve"/>
			<point x="115" y="613"/>
			<point x="84" y="558"/>
			<point x="84" y="500" type="curve" smooth="yes"/>
			<point x="84" y="431"/>
			<point x="132" y="388"/>
			<point x="234" y="365" type="curve"/>
			<point x="234" y="363" type="line"/>
			<point x="118" y="332"/>
			<point x="49" y="259"/>
			<point x="49" y="166" type="curve" smooth="yes"/>
			<point x="49" y="71"/>
			<point x="95" y="32"/>
			<point x="265" y="-17" type="curve" smooth="yes"/>
			<point x="354" y="-43"/>
			<point x="383" y="-68"/>
			<point x="383" y="-119" type="curve" smooth="yes"/>
			<point x="383" y="-153"/>
			<point x="368" y="-187"/>
			<point x="336" y="-223" type="curve"/>
		</contour>
	</outline>
</glyph>
<glyph name="omicron" format="2">
	<unicode hex="03BF"/>
	<advance width="570"/>
	<outline>
		<contour>
			<point x="281" y="-14" type="curve" smooth="yes"/>
			<point x="427" y="-14"/>
			<point x="522" y="98"/>
			<point x="522" y="270" type="curve" smooth="yes"/>
			<point x="522" y="427"/>
			<point x="433" y="527"/>
			<point x="295" y="527" type="curve" smooth="yes"/>
			<point x="143" y="527"/>
			<point x="48" y="419"/>
			<point x="48" y="245" type="curve" smooth="yes"/>
			<point x="48" y="87"/>
			<point x="139" y="-14"/>
		</contour>
		<contour>
			<point x="297" y="4" type="curve" smooth="yes"/>
			<point x="200" y="4"/>
			<point x="149" y="97"/>
			<point x="149" y="274" type="curve" smooth="yes"/>
			<point x="149" y="437"/>
			<point x="188" y="509"/>
			<point x="276" y="509" type="curve" smooth="yes"/>
			<point x="372" y="509"/>
			<point x="420" y="421"/>
			<point x="420" y="245" type="curve" smooth="yes"/>
			<point x="420" y="79"/>
			<point x="382" y="4"/>
		</contour>
	</outline>
	<anchor name="top" x="283" y="550"/>
</glyph>
<glyph name="pi" format="2">
	<unicode hex="03C0"/>
	<advance width="626"/>
	<outline>
		<contour>
			<point x="475" y="-14" type="curve" smooth="yes"/>
			<point x="525" y="-14"/>
			<point x="565" y="9"/>
			<point x="591" y="53" type="curve"/>
			<point x="586" y="60" type="line"/>
			<point x="568" y="50"/>
			<point x="544" y="45"/>
			<point x="515" y="45" type="curve" smooth="yes"/>
			<point x="465" y="45"/>
			<point x="451" y="64"/>
			<point x="451" y="134" type="curve" smooth="yes"/>
			<point x="451" y="242"/>
			<point x="446" y="358"/>
			<point x="447" y="466" type="curve"/>
			<point x="570" y="466" type="line"/>
			<point x="576" y="471" type="line"/>
			<point x="576" y="527" type="line"/>
			<point x="132" y="520" type="line" smooth="yes"/>
			<point x="110" y="520"/>
			<point x="50" y="502"/>
			<point x="15" y="485" type="curve"/>
			<point x="13" y="466" type="line"/>
			<point x="166" y="466" type="line"/>
			<point x="63" y="5" type="line"/>
			<point x="70" y="0" type="line"/>
			<point x="158" y="0" type="line"/>
			<point x="206" y="466" type="line"/>
			<point x="394" y="466" type="line"/>
			<point x="371" y="162"/>
			<point x="371" y="164"/>
			<point x="371" y="124" type="curve" smooth="yes"/>
			<point x="371" y="27"/>
			<point x="402" y="-14"/>
		</contour>
	</outline>
</glyph>
<glyph name="sigmafinal" format="2">
	<unicode hex="03C2"/>
	<advance width="489"/>
	<outline>
		<contour>
			<point x="339" y="-230" type="line"/>
			<point x="409" y="-161"/>
			<point x="438" y="-114"/>
			<point x="438" y="-68" type="curve" smooth="yes"/>
			<point x="438" y="2"/>
			<point x="403" y="34"/>
			<point x="288" y="69" type="curve" smooth="yes"/>
			<point x="182" y="101"/>
			<point x="147" y="158"/>
			<point x="147" y="297" type="curve" smooth="yes"/>
			<point x="147" y="431"/>
			<point x="200" y="510"/>
			<point x="290" y="510" type="curve" smooth="yes"/>
			<point x="329" y="510"/>
			<point x="358" y="501"/>
			<point x="382" y="481" type="curve"/>
			<point x="339" y="404"/>
			<point x="340" y="405"/>
			<point x="340" y="393" type="curve" smooth="yes"/>
			<point x="340" y="361"/>
			<point x="360" y="344"/>
			<point x="396" y="344" type="curve" smooth="yes"/>
			<point x="434" y="344"/>
			<point x="454" y="366"/>
			<point x="454" y="409" type="curve" smooth="yes"/>
			<point x="454" y="475"/>
			<point x="382" y="527"/>
			<point x="291" y="527" type="curve" smooth="yes"/>
			<point x="144" y="527"/>
			<point x="48" y="417"/>
			<point x="48" y="247" type="curve" smooth="yes"/>
			<point x="48" y="108"/>
			<point x="115" y="25"/>
			<point x="261" y="-17" type="curve" smooth="yes"/>
			<point x="349" y="-43"/>
			<point x="377" y="-68"/>
			<point x="377" y="-119" type="curve" smooth="yes"/>
			<point x="377" y="-153"/>
			<point x="362" y="-187"/>
			<point x="331" y="-223" type="curve"/>
		</contour>
	</outline>
</glyph>
<glyph name="sigma" format="2">
	<unicode hex="03C3"/>
	<advance width="608"/>
	<outline>
		<contour>
			<point x="274" y="-14" type="curve" smooth="yes"/>
			<point x="412" y="-14"/>
			<point x="515" y="95"/>
			<point x="515" y="241" type="curve" smooth="yes"/>
			<point x="515" y="346"/>
			<point x="454" y="438"/>
			<point x="361" y="474" type="curve"/>
			<point x="361" y="476" type="line"/>
			<point x="562" y="466" type="line"/>
			<point x="568" y="471" type="line"/>
			<point x="568" y="527" type="line"/>
			<point x="325" y="524" type="line" smooth="yes"/>
			<point x="159" y="522"/>
			<point x="48" y="409"/>
			<point x="48" y="240" type="curve" smooth="yes"/>
			<point x="48" y="86"/>
			<point x="137" y="-14"/>
		</contour>
		<contour>
			<point x="276" y="4" type="curve" smooth="yes"/>
			<point x="195" y="4"/>
			<point x="142" y="98"/>
			<point x="142" y="243" type="curve" smooth="yes"/>
			<point x="142" y="396"/>
			<point x="206" y="476"/>
			<point x="330" y="476" type="curve" smooth="yes"/>
			<point x="339" y="476" type="line"/>
			<point x="387" y="439"/>
			<point x="416" y="348"/>
			<point x="416" y="234" type="curve" smooth="yes"/>
			<point x="416" y="88"/>
			<point x="365" y="4"/>
		</contour>
	</outline>
</glyph>
<glyph name="upsilon" format="2">
	<unicode hex="03C5"/>
	<advance width="569"/>
	<outline>
		<contour>
			<point x="296" y="-14" type="curve" smooth="yes"/>
			<point x="439" y="-14"/>
			<point x="521" y="90"/>
			<point x="521" y="273" type="curve" smooth="yes"/>
			<point x="521" y="369"/>
			<point x="500" y="456"/>
			<point x="463" y="513" type="curve"/>
			<point x="458" y="518" type="line"/>
			<point x="369" y="501" type="line"/>
			<point x="404" y="454"/>
			<point x="430" y="348"/>
			<point x="430" y="254" type="curve" smooth="yes"/>
			<point x="430" y="73"/>
			<point x="395" y="4"/>
			<point x="302" y="4" type="curve" smooth="yes"/>
			<point x="219" y="4"/>
			<point x="192" y="53"/>
			<point x="192" y="203" type="curve" smooth="yes"/>
			<point x="192" y="309"/>
			<point x="202" y="348"/>
			<point x="202" y="431" type="curve" smooth="yes"/>
			<point x="202" y="487"/>
			<point x="169" y="522"/>
			<point x="116" y="522" type="curve" smooth="yes"/>
			<point x="81" y="522"/>
			<point x="53" y="508"/>
			<point x="25" y="475" type="curve"/>
			<point x="30" y="468" type="line"/>
			<point x="44" y="477"/>
			<point x="61" y="482"/>
			<point x="75" y="482" type="curve" smooth="yes"/>
			<point x="103" y="482"/>
			<point x="114" y="466"/>
			<point x="114" y="427" type="curve" smooth="yes"/>
			<point x="114" y="349"/>
			<point x="103" y="303"/>
			<point x="103" y="196" type="curve" smooth="yes"/>
			<point x="103" y="50"/>
			<point x="162" y="-14"/>
		</contour>
	</outline>
	<anchor name="top" x="280" y="550"/>
</glyph>
<glyph name="phi" format="2">
	<unicode hex="03C6"/>
	<advance width="755"/>
	<outline>
		<contour>
			<point x="337" y="-219" type="line"/>
			<point x="408" y="-219" type="line"/>
			<point x="413" y="-15" type="line"/>
			<point x="596" y="-7"/>
			<point x="707" y="97"/>
			<point x="707" y="262" type="curve" smooth="yes"/>
			<point x="707" y="414"/>
			<point x="599" y="513"/>
			<point x="424" y="521" type="curve"/>
			<point x="432" y="705" type="line"/>
			<point x="425" y="710" type="line"/>
			<point x="329" y="703" type="line"/>
			<point x="333" y="521" type="line"/>
			<point x="155" y="514"/>
			<point x="48" y="412"/>
			<point x="48" y="250" type="curve" smooth="yes"/>
			<point x="48" y="93"/>
			<point x="155" y="-5"/>
			<point x="335" y="-14" type="curve"/>
		</contour>
		<contour>
			<point x="335" y="3" type="line"/>
			<point x="207" y="16"/>
			<point x="148" y="101"/>
			<point x="148" y="271" type="curve" smooth="yes"/>
			<point x="148" y="424"/>
			<point x="204" y="496"/>
			<point x="333" y="509" type="curve"/>
		</contour>
		<contour>
			<point x="414" y="-2" type="curve"/>
			<point x="423" y="503" type="line"/>
			<point x="550" y="489"/>
			<point x="607" y="409"/>
			<point x="607" y="243" type="curve" smooth="yes"/>
			<point x="607" y="83"/>
			<point x="541" y="-1"/>
		</contour>
	</outline>
</glyph>
<glyph name="psi" format="2">
	<unicode hex="03C8"/>
	<advance width="738"/>
	<outline>
		<contour>
			<point x="348" y="-219" type="line"/>
			<point x="420" y="-219" type="line"/>
			<point x="425" y="-14" type="line"/>
			<point x="602" y="-13"/>
			<point x="690" y="83"/>
			<point x="690" y="273" type="curve" smooth="yes"/>
			<point x="690" y="367"/>
			<point x="667" y="462"/>
			<point x="632" y="513" type="curve"/>
			<point x="627" y="518" type="line"/>
			<point x="538" y="501" type="line"/>
			<point x="571" y="457"/>
			<point x="599" y="348"/>
			<point x="599" y="263" type="curve" smooth="yes"/>
			<point x="599" y="76"/>
			<point x="552" y="6"/>
			<point x="425" y="4" type="curve"/>
			<point x="443" y="705" type="line"/>
			<point x="436" y="710" type="line"/>
			<point x="340" y="703" type="line"/>
			<point x="347" y="4" type="line"/>
			<point x="234" y="6"/>
			<point x="192" y="60"/>
			<point x="192" y="203" type="curve" smooth="yes"/>
			<point x="192" y="309"/>
			<point x="202" y="348"/>
			<point x="202" y="431" type="curve" smooth="yes"/>
			<point x="202" y="486"/>
			<point x="168" y="522"/>
			<point x="117" y="522" type="curve" smooth="yes"/>
			<point x="81" y="522"/>
			<point x="57" y="510"/>
			<point x="25" y="475" type="curve"/>
			<point x="30" y="468" type="line"/>
			<point x="46" y="477"/>
			<point x="62" y="482"/>
			<point x="76" y="482" type="curve" smooth="yes"/>
			<point x="103" y="482"/>
			<point x="114" y="466"/>
			<point x="114" y="427" type="curve" smooth="yes"/>
			<point x="114" y="349"/>
			<point x="103" y="303"/>
			<point x="103" y="201" type="curve" smooth="yes"/>
			<point x="103" y="52"/>
			<point x="176" y="-12"/>
			<point x="347" y="-14" type="curve"/>
		</contour>
	</outline>
</glyph>
<glyph name="omega" format="2">
	<unicode hex="03C9"/>
	<advance width="784"/>
	<outline>
		<contour>
			<point x="239" y="-14" type="curve" smooth="yes"/>
			<point x="312" y="-14"/>
			<point x="359" y="26"/>
			<point x="391" y="116" type="curve"/>
			<point x="394" y="116" type="line"/>
			<point x="414" y="35"/>
			<point x="470" y="-14"/>
			<point x="542" y="-14" type="curve" smooth="yes"/>
			<point x="658" y="-14"/>
			<point x="731" y="80"/>
			<point x="731" y="230" type="curve" smooth="yes"/>
			<point x="731" y="329"/>
			<point x="688" y="444"/>
			<point x="627" y="507" type="curve"/>
			<point x="621" y="513" type="line"/>
			<point x="532" y="495" type="line"/>
			<point x="596" y="421"/>
			<point x="640" y="307"/>
			<point x="640" y="216" type="curve" smooth="yes"/>
			<point x="640" y="90"/>
			<point x="600" y="14"/>
			<point x="534" y="14" type="curve" smooth="yes"/>
			<point x="477" y="14"/>
			<point x="439" y="59"/>
			<point x="411" y="160" type="curve"/>
			<point x="445" y="214"/>
			<point x="453" y="237"/>
			<point x="453" y="275" type="curve" smooth="yes"/>
			<point x="453" y="324"/>
			<point x="428" y="358"/>
			<point x="392" y="358" type="curve" smooth="yes"/>
			<point x="357" y="358"/>
			<point x="331" y="323"/>
			<point x="331" y="275" type="curve" smooth="yes"/>
			<point x="331" y="235"/>
			<point x="343" y="201"/>
			<point x="373" y="160" type="curve"/>
			<point x="341" y="62"/>
			<point x="303" y="14"/>
			<point x="256" y="14" type="curve" smooth="yes"/>
			<point x="191" y="14"/>
			<point x="151" y="92"/>
			<point x="151" y="218" type="curve" smooth="yes"/>
			<point x="151" y="355"/>
			<point x="182" y="449"/>
			<point x="247" y="507" type="curve"/>
			<point x="237" y="516" type="line"/>
			<point x="126" y="464"/>
			<point x="53" y="349"/>
			<point x="53" y="226" type="curve" smooth="yes"/>
			<point x="53" y="81"/>
			<point x="127" y="-14"/>
		</contour>
	</outline>
	<anchor name="bottom" x="392" y="-45"/>
	<anchor name="top" x="393" y="550"/>
</glyph>
<glyph name="Stigma" format="2">
	<unicode hex="03DA"/>
	<advance width="600"/>
	<outline>
		<contour>
			<point x="440" y="-209" type="line"/>
			<point x="501" y="-150"/>
			<point x="528" y="-98"/>
			<point x="528" y="-37" type="curve" smooth="yes"/>
			<point x="528" y="45"/>
			<point x="476" y="92"/>
			<point x="358" y="116" type="curve" smooth="yes"/>
			<point x="217" y="146"/>
			<point x="160" y="219"/>
			<point x="160" y="372" type="curve" smooth="yes"/>
			<point x="160" y="612"/>
			<point x="230" y="730"/>
			<point x="371" y="730" type="curve" smooth="yes"/>
			<point x="409" y="730"/>
			<point x="440" y="719"/>
			<point x="474" y="693" type="curve"/>
			<point x="428" y="613"/>
			<point x="427" y="610"/>
			<point x="427" y="594" type="curve" smooth="yes"/>
			<point x="427" y="559"/>
			<point x="450" y="539"/>
			<point x="490" y="539" type="curve" smooth="yes"/>
			<point x="533" y="539"/>
			<point x="555" y="564"/>
			<point x="555" y="612" type="curve" smooth="yes"/>
			<point x="555" y="686"/>
			<point x="474" y="744"/>
			<point x="370" y="744" type="curve" smooth="yes"/>
			<point x="188" y="744"/>
			<point x="53" y="586"/>
			<point x="53" y="371" type="curve" smooth="yes"/>
			<point x="53" y="188"/>
			<point x="147" y="68"/>
			<point x="325" y="25" type="curve" smooth="yes"/>
			<point x="433" y="-1"/>
			<point x="477" y="-33"/>
			<point x="477" y="-88" type="curve" smooth="yes"/>
			<point x="477" y="-130"/>
			<point x="462" y="-169"/>
			<point x="433" y="-201" type="curve"/>
		</contour>
	</outline>
</glyph>
<glyph name="stigma" format="2">
	<unicode hex="03DB"/>
	<advance width="480"/>
	<outline>
		<contour>
			<point x="339" y="-230" type="line"/>
			<point x="409" y="-161"/>
			<point x="438" y="-114"/>
			<point x="438" y="-68" type="curve" smooth="yes"/>
			<point x="438" y="2"/>
			<point x="403" y="34"/>
			<point x="288" y="69" type="curve" smooth="yes"/>
			<point x="169" y="105"/>
			<point x="117" y="165"/>
			<point x="117" y="264" type="curve" smooth="yes"/>
			<point x="117" y="394"/>
			<point x="180" y="453"/>
			<point x="318" y="452" type="curve" smooth="yes"/>
			<point x="413" y="451"/>
			<point x="445" y="471"/>
			<point x="445" y="532" type="curve" smooth="yes"/>
			<point x="445" y="563"/>
			<point x="426" y="596"/>
			<point x="391" y="627" type="curve"/>
			<point x="384" y="622" type="line"/>
			<point x="394" y="600"/>
			<point x="398" y="586"/>
			<point x="398" y="571" type="curve" smooth="yes"/>
			<point x="398" y="535"/>
			<point x="383" y="527"/>
			<point x="312" y="527" type="curve" smooth="yes"/>
			<point x="148" y="527"/>
			<point x="48" y="424"/>
			<point x="48" y="257" type="curve" smooth="yes"/>
			<point x="48" y="109"/>
			<point x="113" y="26"/>
			<point x="261" y="-17" type="curve" smooth="yes"/>
			<point x="349" y="-43"/>
			<point x="377" y="-68"/>
			<point x="377" y="-119" type="curve" smooth="yes"/>
			<point x="377" y="-153"/>
			<point x="362" y="-187"/>
			<point x="331" y="-223" type="curve"/>
		</contour>
	</outline>
</glyph>
<glyph name="digamma" format="2">
	<unicode hex="03DD"/>
	<advance width="356"/>
	<outline>
		<contour>
			<point x="115" y="-5" type="line"/>
			<point x="201" y="0" type="line"/>
			<point x="201" y="497" type="line"/>
			<point x="347" y="497" type="line"/>
			<point x="347" y="513" type="line"/>
			<point x="201" y="513" type="line"/>
			<point x="201" y="619" type="line" smooth="yes"/>
			<point x="201" y="725"/>
			<point x="226" y="767"/>
			<point x="288" y="767" type="curve" smooth="yes"/>
			<point x="315" y="767"/>
			<point x="338" y="761"/>
			<point x="356" y="749" type="curve"/>
			<point x="329" y="708"/>
			<point x="322" y="693"/>
			<point x="322" y="675" type="curve" smooth="yes"/>
			<point x="322" y="653"/>
			<point x="340" y="639"/>
			<point x="369" y="639" type="curve" smooth="yes"/>
			<point x="401" y="639"/>
			<point x="422" y="660"/>
			<point x="422" y="692" type="curve" smooth="yes"/>
			<point x="422" y="747"/>
			<point x="370" y="782"/>
			<point x="289" y="782" type="curve" smooth="yes"/>
			<point x="175" y="782"/>
			<point x="108" y="694"/>
			<point x="108" y="545" type="curve" smooth="yes"/>
			<point x="108" y="513" type="line"/>
			<point x="35" y="507" type="line"/>
			<point x="35" y="497" type="line"/>
			<point x="108" y="497" type="line"/>
			<point x="108" y="0" type="line"/>
		</contour>
	</outline>
</glyph>
<glyph name="Sampi" format="2">
	<unicode hex="03E0"/>
	<advance width="787"/>
	<outline>
		<contour>
			<point x="263" y="-181" type="line"/>
			<point x="281" y="-169" type="line"/>
			<point x="256" y="-121" type="line" smooth="yes"/>
			<point x="250" y="-109"/>
			<point x="254" y="-99"/>
			<point x="270" y="-87" type="curve" smooth="yes"/>
			<point x="631" y="188" type="line"/>
			<point x="647" y="130"/>
			<point x="655" y="62"/>
			<point x="655" y="-17" type="curve" smooth="yes"/>
			<point x="655" y="-47"/>
			<point x="653" y="-107"/>
			<point x="650" y="-170" type="curve"/>
			<point x="727" y="-172" type="line"/>
			<point x="732" y="-108"/>
			<point x="734" y="-65"/>
			<point x="734" y="-15" type="curve" smooth="yes"/>
			<point x="734" y="351"/>
			<point x="552" y="528"/>
			<point x="172" y="532" type="curve"/>
			<point x="171" y="509" type="line"/>
			<point x="292" y="498"/>
			<point x="392" y="467"/>
			<point x="469" y="418" type="curve"/>
			<point x="110" y="142" type="line" smooth="yes"/>
			<point x="89" y="126"/>
			<point x="84" y="127"/>
			<point x="66" y="147" type="curve" smooth="yes"/>
			<point x="41" y="175" type="line"/>
			<point x="25" y="165" type="line"/>
			<point x="140" y="-1" type="line"/>
			<point x="158" y="11" type="line"/>
			<point x="133" y="59" type="line" smooth="yes"/>
			<point x="127" y="71"/>
			<point x="131" y="81"/>
			<point x="147" y="93" type="curve" smooth="yes"/>
			<point x="520" y="377" type="line"/>
			<point x="558" y="342"/>
			<point x="588" y="299"/>
			<point x="609" y="251" type="curve"/>
			<point x="233" y="-38" type="line" smooth="yes"/>
			<point x="212" y="-54"/>
			<point x="207" y="-53"/>
			<point x="189" y="-33" type="curve" smooth="yes"/>
			<point x="164" y="-5" type="line"/>
			<point x="148" y="-15" type="line"/>
		</contour>
	</outline>
</glyph>
